ISO-10303-21;
HEADER;
FILE_DESCRIPTION(('FreeCAD Model'),'2;1');
FILE_NAME('Open CASCADE Shape Model','2026-06-11T06:30:59',(''),(''),
  'Open CASCADE STEP processor 7.8','FreeCAD','Unknown');
FILE_SCHEMA(('AUTOMOTIVE_DESIGN { 1 0 10303 214 1 1 1 1 }'));
ENDSEC;
DATA;
#1 = APPLICATION_PROTOCOL_DEFINITION('international standard',
  'automotive_design',2000,#2);
#2 = APPLICATION_CONTEXT(
  'core data for automotive mechanical design processes');
#3 = SHAPE_DEFINITION_REPRESENTATION(#4,#10);
#4 = PRODUCT_DEFINITION_SHAPE('','',#5);
#5 = PRODUCT_DEFINITION('design','',#6,#9);
#6 = PRODUCT_DEFINITION_FORMATION('','',#7);
#7 = PRODUCT('Pocket002','Pocket002','',(#8));
#8 = PRODUCT_CONTEXT('',#2,'mechanical');
#9 = PRODUCT_DEFINITION_CONTEXT('part definition',#2,'design');
#10 = ADVANCED_BREP_SHAPE_REPRESENTATION('',(#11,#15),#1767);
#11 = AXIS2_PLACEMENT_3D('',#12,#13,#14);
#12 = CARTESIAN_POINT('',(0.,0.,0.));
#13 = DIRECTION('',(0.,0.,1.));
#14 = DIRECTION('',(1.,0.,-0.));
#15 = MANIFOLD_SOLID_BREP('',#16);
#16 = CLOSED_SHELL('',(#17,#58,#347,#380,#405,#475,#533,#566,#584,#649,
    #666,#693,#728,#756,#784,#812,#840,#857,#892,#920,#948,#976,#1004,
    #1021,#1052,#1076,#1104,#1128,#1152,#1176,#1200,#1228,#1256,#1280,
    #1308,#1325,#1382,#1425,#1490,#1508,#1526,#1538,#1564,#1599,#1611,
    #1625,#1639,#1659,#1679,#1699,#1724,#1749,#1758));
#17 = ADVANCED_FACE('',(#18),#53,.F.);
#18 = FACE_BOUND('',#19,.F.);
#19 = EDGE_LOOP('',(#20,#30,#39,#47));
#20 = ORIENTED_EDGE('',*,*,#21,.T.);
#21 = EDGE_CURVE('',#22,#24,#26,.T.);
#22 = VERTEX_POINT('',#23);
#23 = CARTESIAN_POINT('',(-10.3166250554,22.225,74.0791));
#24 = VERTEX_POINT('',#25);
#25 = CARTESIAN_POINT('',(-10.3166250554,17.045850186097,74.0791));
#26 = LINE('',#27,#28);
#27 = CARTESIAN_POINT('',(-10.3166250554,22.225,74.0791));
#28 = VECTOR('',#29,1.);
#29 = DIRECTION('',(0.,-1.,2.22044604925E-16));
#30 = ORIENTED_EDGE('',*,*,#31,.T.);
#31 = EDGE_CURVE('',#24,#32,#34,.T.);
#32 = VERTEX_POINT('',#33);
#33 = CARTESIAN_POINT('',(-10.3166250554,17.045850186097,60.7949));
#34 = CIRCLE('',#35,7.9375);
#35 = AXIS2_PLACEMENT_3D('',#36,#37,#38);
#36 = CARTESIAN_POINT('',(-10.3166250554,12.7,67.437));
#37 = DIRECTION('',(-1.,0.,0.));
#38 = DIRECTION('',(0.,-1.,0.));
#39 = ORIENTED_EDGE('',*,*,#40,.F.);
#40 = EDGE_CURVE('',#41,#32,#43,.T.);
#41 = VERTEX_POINT('',#42);
#42 = CARTESIAN_POINT('',(-10.3166250554,22.225,60.7949));
#43 = LINE('',#44,#45);
#44 = CARTESIAN_POINT('',(-10.3166250554,22.225,60.7949));
#45 = VECTOR('',#46,1.);
#46 = DIRECTION('',(0.,-1.,2.22044604925E-16));
#47 = ORIENTED_EDGE('',*,*,#48,.F.);
#48 = EDGE_CURVE('',#22,#41,#49,.T.);
#49 = LINE('',#50,#51);
#50 = CARTESIAN_POINT('',(-10.3166250554,22.225,74.0791));
#51 = VECTOR('',#52,1.);
#52 = DIRECTION('',(0.,-2.22044604925E-16,-1.));
#53 = PLANE('',#54);
#54 = AXIS2_PLACEMENT_3D('',#55,#56,#57);
#55 = CARTESIAN_POINT('',(-10.3166250554,22.225,74.0791));
#56 = DIRECTION('',(1.,0.,0.));
#57 = DIRECTION('',(0.,-2.22044604925E-16,-1.));
#58 = ADVANCED_FACE('',(#59,#130,#185,#240),#342,.T.);
#59 = FACE_BOUND('',#60,.T.);
#60 = EDGE_LOOP('',(#61,#62,#77,#85,#100,#108,#116,#124));
#61 = ORIENTED_EDGE('',*,*,#21,.T.);
#62 = ORIENTED_EDGE('',*,*,#63,.F.);
#63 = EDGE_CURVE('',#64,#24,#66,.T.);
#64 = VERTEX_POINT('',#65);
#65 = CARTESIAN_POINT('',(-10.3166250554,8.354149813903,74.0791));
#66 = ( BOUNDED_CURVE() B_SPLINE_CURVE(9,(#67,#68,#69,#70,#71,#72,#73,
#74,#75,#76),.UNSPECIFIED.,.F.,.F.) B_SPLINE_CURVE_WITH_KNOTS((10,10),(
4.721600563207,10.240234449514),.PIECEWISE_BEZIER_KNOTS.) CURVE() 
GEOMETRIC_REPRESENTATION_ITEM() RATIONAL_B_SPLINE_CURVE((1.,1.,1.,1.,1.,
1.,1.,1.,1.,1.)) REPRESENTATION_ITEM('') );
#67 = CARTESIAN_POINT('',(-10.3166250554,8.354149813903,74.0791));
#68 = CARTESIAN_POINT('',(-10.3166250554,9.575431456238,74.0791));
#69 = CARTESIAN_POINT('',(-10.3166250554,10.565259545603,74.0791));
#70 = CARTESIAN_POINT('',(-10.3166250554,11.457106374514,74.0791));
#71 = CARTESIAN_POINT('',(-10.3166250554,12.289287533421,74.0791));
#72 = CARTESIAN_POINT('',(-10.3166250554,13.110712466579,74.0791));
#73 = CARTESIAN_POINT('',(-10.3166250554,13.942893625486,74.0791));
#74 = CARTESIAN_POINT('',(-10.3166250554,14.834740454397,74.0791));
#75 = CARTESIAN_POINT('',(-10.3166250554,15.824568543762,74.0791));
#76 = CARTESIAN_POINT('',(-10.3166250554,17.045850186097,74.0791));
#77 = ORIENTED_EDGE('',*,*,#78,.T.);
#78 = EDGE_CURVE('',#64,#79,#81,.T.);
#79 = VERTEX_POINT('',#80);
#80 = CARTESIAN_POINT('',(-10.3166250554,-8.354149813903,74.0791));
#81 = LINE('',#82,#83);
#82 = CARTESIAN_POINT('',(-10.3166250554,22.225,74.0791));
#83 = VECTOR('',#84,1.);
#84 = DIRECTION('',(0.,-1.,2.22044604925E-16));
#85 = ORIENTED_EDGE('',*,*,#86,.F.);
#86 = EDGE_CURVE('',#87,#79,#89,.T.);
#87 = VERTEX_POINT('',#88);
#88 = CARTESIAN_POINT('',(-10.3166250554,-17.04585018609,74.0791));
#89 = ( BOUNDED_CURVE() B_SPLINE_CURVE(9,(#90,#91,#92,#93,#94,#95,#96,
#97,#98,#99),.UNSPECIFIED.,.F.,.F.) B_SPLINE_CURVE_WITH_KNOTS((10,10),(
4.721600563207,10.240234449514),.PIECEWISE_BEZIER_KNOTS.) CURVE() 
GEOMETRIC_REPRESENTATION_ITEM() RATIONAL_B_SPLINE_CURVE((1.,1.,1.,1.,1.,
1.,1.,1.,1.,1.)) REPRESENTATION_ITEM('') );
#90 = CARTESIAN_POINT('',(-10.3166250554,-17.04585018609,74.0791));
#91 = CARTESIAN_POINT('',(-10.3166250554,-15.82456854376,74.0791));
#92 = CARTESIAN_POINT('',(-10.3166250554,-14.83474045439,74.0791));
#93 = CARTESIAN_POINT('',(-10.3166250554,-13.94289362548,74.0791));
#94 = CARTESIAN_POINT('',(-10.3166250554,-13.11071246657,74.0791));
#95 = CARTESIAN_POINT('',(-10.3166250554,-12.28928753342,74.0791));
#96 = CARTESIAN_POINT('',(-10.3166250554,-11.45710637451,74.0791));
#97 = CARTESIAN_POINT('',(-10.3166250554,-10.5652595456,74.0791));
#98 = CARTESIAN_POINT('',(-10.3166250554,-9.575431456238,74.0791));
#99 = CARTESIAN_POINT('',(-10.3166250554,-8.354149813903,74.0791));
#100 = ORIENTED_EDGE('',*,*,#101,.T.);
#101 = EDGE_CURVE('',#87,#102,#104,.T.);
#102 = VERTEX_POINT('',#103);
#103 = CARTESIAN_POINT('',(-10.3166250554,-22.225,74.0791));
#104 = LINE('',#105,#106);
#105 = CARTESIAN_POINT('',(-10.3166250554,22.225,74.0791));
#106 = VECTOR('',#107,1.);
#107 = DIRECTION('',(0.,-1.,2.22044604925E-16));
#108 = ORIENTED_EDGE('',*,*,#109,.T.);
#109 = EDGE_CURVE('',#102,#110,#112,.T.);
#110 = VERTEX_POINT('',#111);
#111 = CARTESIAN_POINT('',(-5.2366250554,-22.225,74.0791));
#112 = LINE('',#113,#114);
#113 = CARTESIAN_POINT('',(-10.3166250554,-22.225,74.0791));
#114 = VECTOR('',#115,1.);
#115 = DIRECTION('',(1.,0.,0.));
#116 = ORIENTED_EDGE('',*,*,#117,.F.);
#117 = EDGE_CURVE('',#118,#110,#120,.T.);
#118 = VERTEX_POINT('',#119);
#119 = CARTESIAN_POINT('',(-5.2366250554,22.225,74.0791));
#120 = LINE('',#121,#122);
#121 = CARTESIAN_POINT('',(-5.2366250554,22.225,74.0791));
#122 = VECTOR('',#123,1.);
#123 = DIRECTION('',(0.,-1.,2.22044604925E-16));
#124 = ORIENTED_EDGE('',*,*,#125,.F.);
#125 = EDGE_CURVE('',#22,#118,#126,.T.);
#126 = LINE('',#127,#128);
#127 = CARTESIAN_POINT('',(-10.3166250554,22.225,74.0791));
#128 = VECTOR('',#129,1.);
#129 = DIRECTION('',(1.,0.,0.));
#130 = FACE_BOUND('',#131,.T.);
#131 = EDGE_LOOP('',(#132,#143,#151,#160,#169,#178));
#132 = ORIENTED_EDGE('',*,*,#133,.F.);
#133 = EDGE_CURVE('',#134,#136,#138,.T.);
#134 = VERTEX_POINT('',#135);
#135 = CARTESIAN_POINT('',(-7.255963941014,17.927692510063,74.0791));
#136 = VERTEX_POINT('',#137);
#137 = CARTESIAN_POINT('',(-7.064234626941,17.894151580425,74.0791));
#138 = B_SPLINE_CURVE_WITH_KNOTS('',3,(#139,#140,#141,#142),
  .UNSPECIFIED.,.F.,.F.,(4,4),(0.,1.),.PIECEWISE_BEZIER_KNOTS.);
#139 = CARTESIAN_POINT('',(-7.255963941014,17.927692510063,74.0791));
#140 = CARTESIAN_POINT('',(-7.169693549897,17.913340112264,74.0791));
#141 = CARTESIAN_POINT('',(-7.107447824661,17.903823848506,74.0791));
#142 = CARTESIAN_POINT('',(-7.064234626941,17.894151580425,74.0791));
#143 = ORIENTED_EDGE('',*,*,#144,.F.);
#144 = EDGE_CURVE('',#145,#134,#147,.T.);
#145 = VERTEX_POINT('',#146);
#146 = CARTESIAN_POINT('',(-7.255963941014,18.028315298978,74.0791));
#147 = LINE('',#148,#149);
#148 = CARTESIAN_POINT('',(-7.255963941014,18.028315298978,74.0791));
#149 = VECTOR('',#150,1.);
#150 = DIRECTION('',(-2.22044604925E-16,-1.,0.));
#151 = ORIENTED_EDGE('',*,*,#152,.F.);
#152 = EDGE_CURVE('',#153,#145,#155,.T.);
#153 = VERTEX_POINT('',#154);
#154 = CARTESIAN_POINT('',(-6.278284843136,18.181667549371,74.0791));
#155 = B_SPLINE_CURVE_WITH_KNOTS('',3,(#156,#157,#158,#159),
  .UNSPECIFIED.,.F.,.F.,(4,4),(0.,1.),.PIECEWISE_BEZIER_KNOTS.);
#156 = CARTESIAN_POINT('',(-6.278284843136,18.181667549371,74.0791));
#157 = CARTESIAN_POINT('',(-6.359719100212,18.181667549371,74.0791));
#158 = CARTESIAN_POINT('',(-6.791071055793,18.114585690094,74.0791));
#159 = CARTESIAN_POINT('',(-7.255963941014,18.028315298978,74.0791));
#160 = ORIENTED_EDGE('',*,*,#161,.F.);
#161 = EDGE_CURVE('',#162,#153,#164,.T.);
#162 = VERTEX_POINT('',#163);
#163 = CARTESIAN_POINT('',(-6.081719395023,17.9755858375,74.0791));
#164 = B_SPLINE_CURVE_WITH_KNOTS('',3,(#165,#166,#167,#168),
  .UNSPECIFIED.,.F.,.F.,(4,4),(0.,1.),.PIECEWISE_BEZIER_KNOTS.);
#165 = CARTESIAN_POINT('',(-6.081719395023,17.9755858375,74.0791));
#166 = CARTESIAN_POINT('',(-6.081719395023,18.090717028538,74.0791));
#167 = CARTESIAN_POINT('',(-6.167989786139,18.181667549371,74.0791));
#168 = CARTESIAN_POINT('',(-6.278284843136,18.181667549371,74.0791));
#169 = ORIENTED_EDGE('',*,*,#170,.F.);
#170 = EDGE_CURVE('',#171,#162,#173,.T.);
#171 = VERTEX_POINT('',#172);
#172 = CARTESIAN_POINT('',(-6.273448709095,17.77434025967,74.0791));
#173 = B_SPLINE_CURVE_WITH_KNOTS('',3,(#174,#175,#176,#177),
  .UNSPECIFIED.,.F.,.F.,(4,4),(0.,1.),.PIECEWISE_BEZIER_KNOTS.);
#174 = CARTESIAN_POINT('',(-6.273448709095,17.77434025967,74.0791));
#175 = CARTESIAN_POINT('',(-6.167989786139,17.77434025967,74.0791));
#176 = CARTESIAN_POINT('',(-6.081719395023,17.865446784827,74.0791));
#177 = CARTESIAN_POINT('',(-6.081719395023,17.9755858375,74.0791));
#178 = ORIENTED_EDGE('',*,*,#179,.F.);
#179 = EDGE_CURVE('',#136,#171,#180,.T.);
#180 = B_SPLINE_CURVE_WITH_KNOTS('',3,(#181,#182,#183,#184),
  .UNSPECIFIED.,.F.,.F.,(4,4),(0.,1.),.PIECEWISE_BEZIER_KNOTS.);
#181 = CARTESIAN_POINT('',(-7.064234626941,17.894151580425,74.0791));
#182 = CARTESIAN_POINT('',(-6.699964530636,17.81755345739,74.0791));
#183 = CARTESIAN_POINT('',(-6.41244856169,17.77434025967,74.0791));
#184 = CARTESIAN_POINT('',(-6.273448709095,17.77434025967,74.0791));
#185 = FACE_BOUND('',#186,.T.);
#186 = EDGE_LOOP('',(#187,#198,#206,#215,#224,#233));
#187 = ORIENTED_EDGE('',*,*,#188,.F.);
#188 = EDGE_CURVE('',#189,#191,#193,.T.);
#189 = VERTEX_POINT('',#190);
#190 = CARTESIAN_POINT('',(-7.255963941014,18.737666959748,74.0791));
#191 = VERTEX_POINT('',#192);
#192 = CARTESIAN_POINT('',(-7.064234626941,18.70412603011,74.0791));
#193 = B_SPLINE_CURVE_WITH_KNOTS('',3,(#194,#195,#196,#197),
  .UNSPECIFIED.,.F.,.F.,(4,4),(0.,1.),.PIECEWISE_BEZIER_KNOTS.);
#194 = CARTESIAN_POINT('',(-7.255963941014,18.737666959748,74.0791));
#195 = CARTESIAN_POINT('',(-7.169693549897,18.72331456195,74.0791));
#196 = CARTESIAN_POINT('',(-7.107447824661,18.713642293868,74.0791));
#197 = CARTESIAN_POINT('',(-7.064234626941,18.70412603011,74.0791));
#198 = ORIENTED_EDGE('',*,*,#199,.F.);
#199 = EDGE_CURVE('',#200,#189,#202,.T.);
#200 = VERTEX_POINT('',#201);
#201 = CARTESIAN_POINT('',(-7.255963941014,18.838289748664,74.0791));
#202 = LINE('',#203,#204);
#203 = CARTESIAN_POINT('',(-7.255963941014,18.838289748664,74.0791));
#204 = VECTOR('',#205,1.);
#205 = DIRECTION('',(-2.22044604925E-16,-1.,0.));
#206 = ORIENTED_EDGE('',*,*,#207,.F.);
#207 = EDGE_CURVE('',#208,#200,#210,.T.);
#208 = VERTEX_POINT('',#209);
#209 = CARTESIAN_POINT('',(-6.278284843136,18.991641999057,74.0791));
#210 = B_SPLINE_CURVE_WITH_KNOTS('',3,(#211,#212,#213,#214),
  .UNSPECIFIED.,.F.,.F.,(4,4),(0.,1.),.PIECEWISE_BEZIER_KNOTS.);
#211 = CARTESIAN_POINT('',(-6.278284843136,18.991641999057,74.0791));
#212 = CARTESIAN_POINT('',(-6.359719100212,18.991641999057,74.0791));
#213 = CARTESIAN_POINT('',(-6.791071055793,18.92456013978,74.0791));
#214 = CARTESIAN_POINT('',(-7.255963941014,18.838289748664,74.0791));
#215 = ORIENTED_EDGE('',*,*,#216,.F.);
#216 = EDGE_CURVE('',#217,#208,#219,.T.);
#217 = VERTEX_POINT('',#218);
#218 = CARTESIAN_POINT('',(-6.081719395023,18.785560287186,74.0791));
#219 = B_SPLINE_CURVE_WITH_KNOTS('',3,(#220,#221,#222,#223),
  .UNSPECIFIED.,.F.,.F.,(4,4),(0.,1.),.PIECEWISE_BEZIER_KNOTS.);
#220 = CARTESIAN_POINT('',(-6.081719395023,18.785560287186,74.0791));
#221 = CARTESIAN_POINT('',(-6.081719395023,18.900535473899,74.0791));
#222 = CARTESIAN_POINT('',(-6.167989786139,18.991641999057,74.0791));
#223 = CARTESIAN_POINT('',(-6.278284843136,18.991641999057,74.0791));
#224 = ORIENTED_EDGE('',*,*,#225,.F.);
#225 = EDGE_CURVE('',#226,#217,#228,.T.);
#226 = VERTEX_POINT('',#227);
#227 = CARTESIAN_POINT('',(-6.273448709095,18.584314709355,74.0791));
#228 = B_SPLINE_CURVE_WITH_KNOTS('',3,(#229,#230,#231,#232),
  .UNSPECIFIED.,.F.,.F.,(4,4),(0.,1.),.PIECEWISE_BEZIER_KNOTS.);
#229 = CARTESIAN_POINT('',(-6.273448709095,18.584314709355,74.0791));
#230 = CARTESIAN_POINT('',(-6.167989786139,18.584314709355,74.0791));
#231 = CARTESIAN_POINT('',(-6.081719395023,18.675421234513,74.0791));
#232 = CARTESIAN_POINT('',(-6.081719395023,18.785560287186,74.0791));
#233 = ORIENTED_EDGE('',*,*,#234,.F.);
#234 = EDGE_CURVE('',#191,#226,#235,.T.);
#235 = B_SPLINE_CURVE_WITH_KNOTS('',3,(#236,#237,#238,#239),
  .UNSPECIFIED.,.F.,.F.,(4,4),(0.,1.),.PIECEWISE_BEZIER_KNOTS.);
#236 = CARTESIAN_POINT('',(-7.064234626941,18.70412603011,74.0791));
#237 = CARTESIAN_POINT('',(-6.699964530636,18.627371902752,74.0791));
#238 = CARTESIAN_POINT('',(-6.41244856169,18.584314709355,74.0791));
#239 = CARTESIAN_POINT('',(-6.273448709095,18.584314709355,74.0791));
#240 = FACE_BOUND('',#241,.T.);
#241 = EDGE_LOOP('',(#242,#252,#260,#269,#277,#286,#295,#303,#311,#319,
    #327,#336));
#242 = ORIENTED_EDGE('',*,*,#243,.F.);
#243 = EDGE_CURVE('',#244,#246,#248,.T.);
#244 = VERTEX_POINT('',#245);
#245 = CARTESIAN_POINT('',(-9.3166250554,21.191458970362,74.0791));
#246 = VERTEX_POINT('',#247);
#247 = CARTESIAN_POINT('',(-9.3166250554,19.868698308019,74.0791));
#248 = LINE('',#249,#250);
#249 = CARTESIAN_POINT('',(-9.3166250554,21.191458970362,74.0791));
#250 = VECTOR('',#251,1.);
#251 = DIRECTION('',(-2.22044604925E-16,-1.,0.));
#252 = ORIENTED_EDGE('',*,*,#253,.F.);
#253 = EDGE_CURVE('',#254,#244,#256,.T.);
#254 = VERTEX_POINT('',#255);
#255 = CARTESIAN_POINT('',(-9.244863066407,21.191458970362,74.0791));
#256 = LINE('',#257,#258);
#257 = CARTESIAN_POINT('',(-9.244863066407,21.191458970362,74.0791));
#258 = VECTOR('',#259,1.);
#259 = DIRECTION('',(-1.,2.22044604925E-16,0.));
#260 = ORIENTED_EDGE('',*,*,#261,.F.);
#261 = EDGE_CURVE('',#262,#254,#264,.T.);
#262 = VERTEX_POINT('',#263);
#263 = CARTESIAN_POINT('',(-8.871544719315,20.736082348899,74.0791));
#264 = B_SPLINE_CURVE_WITH_KNOTS('',3,(#265,#266,#267,#268),
  .UNSPECIFIED.,.F.,.F.,(4,4),(0.,1.),.PIECEWISE_BEZIER_KNOTS.);
#265 = CARTESIAN_POINT('',(-8.871544719315,20.736082348899,74.0791));
#266 = CARTESIAN_POINT('',(-9.172945073089,20.745754616981,74.0791));
#267 = CARTESIAN_POINT('',(-9.240026932366,20.827188874057,74.0791));
#268 = CARTESIAN_POINT('',(-9.244863066407,21.191458970362,74.0791));
#269 = ORIENTED_EDGE('',*,*,#270,.F.);
#270 = EDGE_CURVE('',#271,#262,#273,.T.);
#271 = VERTEX_POINT('',#272);
#272 = CARTESIAN_POINT('',(-6.704020643058,20.736082348899,74.0791));
#273 = LINE('',#274,#275);
#274 = CARTESIAN_POINT('',(-6.704020643058,20.736082348899,74.0791));
#275 = VECTOR('',#276,1.);
#276 = DIRECTION('',(-1.,2.22044604925E-16,0.));
#277 = ORIENTED_EDGE('',*,*,#278,.F.);
#278 = EDGE_CURVE('',#279,#271,#281,.T.);
#279 = VERTEX_POINT('',#280);
#280 = CARTESIAN_POINT('',(-6.479062407995,20.879918335535,74.0791));
#281 = B_SPLINE_CURVE_WITH_KNOTS('',3,(#282,#283,#284,#285),
  .UNSPECIFIED.,.F.,.F.,(4,4),(0.,1.),.PIECEWISE_BEZIER_KNOTS.);
#282 = CARTESIAN_POINT('',(-6.479062407995,20.879918335535,74.0791));
#283 = CARTESIAN_POINT('',(-6.479062407995,20.77929554662,74.0791));
#284 = CARTESIAN_POINT('',(-6.550824396988,20.736082348899,74.0791));
#285 = CARTESIAN_POINT('',(-6.704020643058,20.736082348899,74.0791));
#286 = ORIENTED_EDGE('',*,*,#287,.F.);
#287 = EDGE_CURVE('',#288,#279,#290,.T.);
#288 = VERTEX_POINT('',#289);
#289 = CARTESIAN_POINT('',(-6.584365326627,21.2249999,74.0791));
#290 = B_SPLINE_CURVE_WITH_KNOTS('',3,(#291,#292,#293,#294),
  .UNSPECIFIED.,.F.,.F.,(4,4),(0.,1.),.PIECEWISE_BEZIER_KNOTS.);
#291 = CARTESIAN_POINT('',(-6.584365326627,21.2249999,74.0791));
#292 = CARTESIAN_POINT('',(-6.512603337633,21.038106719969,74.0791));
#293 = CARTESIAN_POINT('',(-6.479062407995,20.922975528931,74.0791));
#294 = CARTESIAN_POINT('',(-6.479062407995,20.879918335535,74.0791));
#295 = ORIENTED_EDGE('',*,*,#296,.F.);
#296 = EDGE_CURVE('',#297,#288,#299,.T.);
#297 = VERTEX_POINT('',#298);
#298 = CARTESIAN_POINT('',(-6.51728346735,21.2249999,74.0791));
#299 = LINE('',#300,#301);
#300 = CARTESIAN_POINT('',(-6.51728346735,21.2249999,74.0791));
#301 = VECTOR('',#302,1.);
#302 = DIRECTION('',(-1.,2.22044604925E-16,0.));
#303 = ORIENTED_EDGE('',*,*,#304,.F.);
#304 = EDGE_CURVE('',#305,#297,#307,.T.);
#305 = VERTEX_POINT('',#306);
#306 = CARTESIAN_POINT('',(-6.081719395023,20.362295988836,74.0791));
#307 = LINE('',#308,#309);
#308 = CARTESIAN_POINT('',(-6.081719395023,20.362295988836,74.0791));
#309 = VECTOR('',#310,1.);
#310 = DIRECTION('',(-0.450696964698,0.892677011025,0.));
#311 = ORIENTED_EDGE('',*,*,#312,.F.);
#312 = EDGE_CURVE('',#313,#305,#315,.T.);
#313 = VERTEX_POINT('',#314);
#314 = CARTESIAN_POINT('',(-6.091391663105,20.323918925157,74.0791));
#315 = LINE('',#316,#317);
#316 = CARTESIAN_POINT('',(-6.091391663105,20.323918925157,74.0791));
#317 = VECTOR('',#318,1.);
#318 = DIRECTION('',(0.244390135281,0.969676988372,0.));
#319 = ORIENTED_EDGE('',*,*,#320,.F.);
#320 = EDGE_CURVE('',#321,#313,#323,.T.);
#321 = VERTEX_POINT('',#322);
#322 = CARTESIAN_POINT('',(-8.962495240149,20.323918925157,74.0791));
#323 = LINE('',#324,#325);
#324 = CARTESIAN_POINT('',(-8.962495240149,20.323918925157,74.0791));
#325 = VECTOR('',#326,1.);
#326 = DIRECTION('',(1.,-2.22044604925E-16,0.));
#327 = ORIENTED_EDGE('',*,*,#328,.F.);
#328 = EDGE_CURVE('',#329,#321,#331,.T.);
#329 = VERTEX_POINT('',#330);
#330 = CARTESIAN_POINT('',(-9.244863066407,19.868698308019,74.0791));
#331 = B_SPLINE_CURVE_WITH_KNOTS('',3,(#332,#333,#334,#335),
  .UNSPECIFIED.,.F.,.F.,(4,4),(0.,1.),.PIECEWISE_BEZIER_KNOTS.);
#332 = CARTESIAN_POINT('',(-9.244863066407,19.868698308019,74.0791));
#333 = CARTESIAN_POINT('',(-9.244863066407,20.237648534041,74.0791));
#334 = CARTESIAN_POINT('',(-9.192133604929,20.31923879544,74.0791));
#335 = CARTESIAN_POINT('',(-8.962495240149,20.323918925157,74.0791));
#336 = ORIENTED_EDGE('',*,*,#337,.F.);
#337 = EDGE_CURVE('',#246,#329,#338,.T.);
#338 = LINE('',#339,#340);
#339 = CARTESIAN_POINT('',(-9.3166250554,19.868698308019,74.0791));
#340 = VECTOR('',#341,1.);
#341 = DIRECTION('',(1.,-2.22044604925E-16,0.));
#342 = PLANE('',#343);
#343 = AXIS2_PLACEMENT_3D('',#344,#345,#346);
#344 = CARTESIAN_POINT('',(-10.3166250554,22.225,74.0791));
#345 = DIRECTION('',(0.,2.22044604925E-16,1.));
#346 = DIRECTION('',(1.,0.,0.));
#347 = ADVANCED_FACE('',(#348),#375,.F.);
#348 = FACE_BOUND('',#349,.T.);
#349 = EDGE_LOOP('',(#350,#358,#359,#368));
#350 = ORIENTED_EDGE('',*,*,#351,.F.);
#351 = EDGE_CURVE('',#24,#352,#354,.T.);
#352 = VERTEX_POINT('',#353);
#353 = CARTESIAN_POINT('',(-13.4916250554,15.307510111658,71.42226));
#354 = ( BOUNDED_CURVE() B_SPLINE_CURVE(2,(#355,#356,#357),
.UNSPECIFIED.,.F.,.F.) B_SPLINE_CURVE_WITH_KNOTS((3,3),(0.,
5.518633886307),.PIECEWISE_BEZIER_KNOTS.) CURVE() 
GEOMETRIC_REPRESENTATION_ITEM() RATIONAL_B_SPLINE_CURVE((1.,
0.707106781187,1.)) REPRESENTATION_ITEM('') );
#355 = CARTESIAN_POINT('',(-10.3166250554,17.045850186097,74.0791));
#356 = CARTESIAN_POINT('',(-10.3166250554,15.307510111658,71.42226));
#357 = CARTESIAN_POINT('',(-13.4916250554,15.307510111658,71.42226));
#358 = ORIENTED_EDGE('',*,*,#31,.T.);
#359 = ORIENTED_EDGE('',*,*,#360,.T.);
#360 = EDGE_CURVE('',#32,#361,#363,.T.);
#361 = VERTEX_POINT('',#362);
#362 = CARTESIAN_POINT('',(-13.4916250554,15.307510111658,63.45174));
#363 = CIRCLE('',#364,3.175);
#364 = AXIS2_PLACEMENT_3D('',#365,#366,#367);
#365 = CARTESIAN_POINT('',(-13.4916250554,17.045850186097,60.7949));
#366 = DIRECTION('',(0.,-0.8368,-0.547508684863));
#367 = DIRECTION('',(0.,0.547508684863,-0.8368));
#368 = ORIENTED_EDGE('',*,*,#369,.F.);
#369 = EDGE_CURVE('',#352,#361,#370,.T.);
#370 = CIRCLE('',#371,4.7625);
#371 = AXIS2_PLACEMENT_3D('',#372,#373,#374);
#372 = CARTESIAN_POINT('',(-13.4916250554,12.7,67.437));
#373 = DIRECTION('',(-1.,0.,0.));
#374 = DIRECTION('',(0.,-1.,0.));
#375 = TOROIDAL_SURFACE('',#376,7.9375,3.175);
#376 = AXIS2_PLACEMENT_3D('',#377,#378,#379);
#377 = CARTESIAN_POINT('',(-13.4916250554,12.7,67.437));
#378 = DIRECTION('',(1.,0.,0.));
#379 = DIRECTION('',(0.,-1.,0.));
#380 = ADVANCED_FACE('',(#381),#400,.T.);
#381 = FACE_BOUND('',#382,.F.);
#382 = EDGE_LOOP('',(#383,#384,#392,#399));
#383 = ORIENTED_EDGE('',*,*,#48,.T.);
#384 = ORIENTED_EDGE('',*,*,#385,.T.);
#385 = EDGE_CURVE('',#41,#386,#388,.T.);
#386 = VERTEX_POINT('',#387);
#387 = CARTESIAN_POINT('',(-5.2366250554,22.225,60.7949));
#388 = LINE('',#389,#390);
#389 = CARTESIAN_POINT('',(-10.3166250554,22.225,60.7949));
#390 = VECTOR('',#391,1.);
#391 = DIRECTION('',(1.,0.,0.));
#392 = ORIENTED_EDGE('',*,*,#393,.F.);
#393 = EDGE_CURVE('',#118,#386,#394,.T.);
#394 = CIRCLE('',#395,12.7);
#395 = AXIS2_PLACEMENT_3D('',#396,#397,#398);
#396 = CARTESIAN_POINT('',(5.588,22.225,67.437));
#397 = DIRECTION('',(0.,-1.,2.22044604925E-16));
#398 = DIRECTION('',(1.,0.,0.));
#399 = ORIENTED_EDGE('',*,*,#125,.F.);
#400 = PLANE('',#401);
#401 = AXIS2_PLACEMENT_3D('',#402,#403,#404);
#402 = CARTESIAN_POINT('',(-8.147166991259,22.225,67.437));
#403 = DIRECTION('',(0.,1.,0.));
#404 = DIRECTION('',(0.,0.,1.));
#405 = ADVANCED_FACE('',(#406),#470,.F.);
#406 = FACE_BOUND('',#407,.F.);
#407 = EDGE_LOOP('',(#408,#409,#424,#432,#447,#455,#463,#469));
#408 = ORIENTED_EDGE('',*,*,#40,.T.);
#409 = ORIENTED_EDGE('',*,*,#410,.T.);
#410 = EDGE_CURVE('',#32,#411,#413,.T.);
#411 = VERTEX_POINT('',#412);
#412 = CARTESIAN_POINT('',(-10.3166250554,8.354149813903,60.7949));
#413 = ( BOUNDED_CURVE() B_SPLINE_CURVE(9,(#414,#415,#416,#417,#418,#419
    ,#420,#421,#422,#423),.UNSPECIFIED.,.F.,.F.) 
B_SPLINE_CURVE_WITH_KNOTS((10,10),(19.683435575928,25.202069462236),
.PIECEWISE_BEZIER_KNOTS.) CURVE() GEOMETRIC_REPRESENTATION_ITEM() 
RATIONAL_B_SPLINE_CURVE((1.,1.,1.,1.,1.,1.,1.,1.,1.,1.)) 
REPRESENTATION_ITEM('') );
#414 = CARTESIAN_POINT('',(-10.3166250554,17.045850186097,60.7949));
#415 = CARTESIAN_POINT('',(-10.3166250554,15.824568543762,60.7949));
#416 = CARTESIAN_POINT('',(-10.3166250554,14.834740454397,60.7949));
#417 = CARTESIAN_POINT('',(-10.3166250554,13.942893625486,60.7949));
#418 = CARTESIAN_POINT('',(-10.3166250554,13.110712466579,60.7949));
#419 = CARTESIAN_POINT('',(-10.3166250554,12.289287533421,60.7949));
#420 = CARTESIAN_POINT('',(-10.3166250554,11.457106374514,60.7949));
#421 = CARTESIAN_POINT('',(-10.3166250554,10.565259545603,60.7949));
#422 = CARTESIAN_POINT('',(-10.3166250554,9.575431456238,60.7949));
#423 = CARTESIAN_POINT('',(-10.3166250554,8.354149813903,60.7949));
#424 = ORIENTED_EDGE('',*,*,#425,.T.);
#425 = EDGE_CURVE('',#411,#426,#428,.T.);
#426 = VERTEX_POINT('',#427);
#427 = CARTESIAN_POINT('',(-10.3166250554,-8.354149813903,60.7949));
#428 = LINE('',#429,#430);
#429 = CARTESIAN_POINT('',(-10.3166250554,22.225,60.7949));
#430 = VECTOR('',#431,1.);
#431 = DIRECTION('',(0.,-1.,2.22044604925E-16));
#432 = ORIENTED_EDGE('',*,*,#433,.T.);
#433 = EDGE_CURVE('',#426,#434,#436,.T.);
#434 = VERTEX_POINT('',#435);
#435 = CARTESIAN_POINT('',(-10.3166250554,-17.04585018609,60.7949));
#436 = ( BOUNDED_CURVE() B_SPLINE_CURVE(9,(#437,#438,#439,#440,#441,#442
    ,#443,#444,#445,#446),.UNSPECIFIED.,.F.,.F.) 
B_SPLINE_CURVE_WITH_KNOTS((10,10),(19.683435575928,25.202069462236),
.PIECEWISE_BEZIER_KNOTS.) CURVE() GEOMETRIC_REPRESENTATION_ITEM() 
RATIONAL_B_SPLINE_CURVE((1.,1.,1.,1.,1.,1.,1.,1.,1.,1.)) 
REPRESENTATION_ITEM('') );
#437 = CARTESIAN_POINT('',(-10.3166250554,-8.354149813903,60.7949));
#438 = CARTESIAN_POINT('',(-10.3166250554,-9.575431456238,60.7949));
#439 = CARTESIAN_POINT('',(-10.3166250554,-10.5652595456,60.7949));
#440 = CARTESIAN_POINT('',(-10.3166250554,-11.45710637451,60.7949));
#441 = CARTESIAN_POINT('',(-10.3166250554,-12.28928753342,60.7949));
#442 = CARTESIAN_POINT('',(-10.3166250554,-13.11071246657,60.7949));
#443 = CARTESIAN_POINT('',(-10.3166250554,-13.94289362548,60.7949));
#444 = CARTESIAN_POINT('',(-10.3166250554,-14.83474045439,60.7949));
#445 = CARTESIAN_POINT('',(-10.3166250554,-15.82456854376,60.7949));
#446 = CARTESIAN_POINT('',(-10.3166250554,-17.04585018609,60.7949));
#447 = ORIENTED_EDGE('',*,*,#448,.T.);
#448 = EDGE_CURVE('',#434,#449,#451,.T.);
#449 = VERTEX_POINT('',#450);
#450 = CARTESIAN_POINT('',(-10.3166250554,-22.225,60.7949));
#451 = LINE('',#452,#453);
#452 = CARTESIAN_POINT('',(-10.3166250554,22.225,60.7949));
#453 = VECTOR('',#454,1.);
#454 = DIRECTION('',(0.,-1.,2.22044604925E-16));
#455 = ORIENTED_EDGE('',*,*,#456,.T.);
#456 = EDGE_CURVE('',#449,#457,#459,.T.);
#457 = VERTEX_POINT('',#458);
#458 = CARTESIAN_POINT('',(-5.2366250554,-22.225,60.7949));
#459 = LINE('',#460,#461);
#460 = CARTESIAN_POINT('',(-10.3166250554,-22.225,60.7949));
#461 = VECTOR('',#462,1.);
#462 = DIRECTION('',(1.,0.,0.));
#463 = ORIENTED_EDGE('',*,*,#464,.F.);
#464 = EDGE_CURVE('',#386,#457,#465,.T.);
#465 = LINE('',#466,#467);
#466 = CARTESIAN_POINT('',(-5.2366250554,22.225,60.7949));
#467 = VECTOR('',#468,1.);
#468 = DIRECTION('',(0.,-1.,2.22044604925E-16));
#469 = ORIENTED_EDGE('',*,*,#385,.F.);
#470 = PLANE('',#471);
#471 = AXIS2_PLACEMENT_3D('',#472,#473,#474);
#472 = CARTESIAN_POINT('',(-10.3166250554,22.225,60.7949));
#473 = DIRECTION('',(0.,2.22044604925E-16,1.));
#474 = DIRECTION('',(1.,0.,0.));
#475 = ADVANCED_FACE('',(#476),#502,.T.);
#476 = FACE_BOUND('',#477,.T.);
#477 = EDGE_LOOP('',(#478,#487,#488,#489));
#478 = ORIENTED_EDGE('',*,*,#479,.F.);
#479 = EDGE_CURVE('',#64,#480,#482,.T.);
#480 = VERTEX_POINT('',#481);
#481 = CARTESIAN_POINT('',(-13.4916250554,10.092489888342,71.42226));
#482 = CIRCLE('',#483,3.175);
#483 = AXIS2_PLACEMENT_3D('',#484,#485,#486);
#484 = CARTESIAN_POINT('',(-13.4916250554,8.354149813903,74.0791));
#485 = DIRECTION('',(-0.,0.8368,0.547508684863));
#486 = DIRECTION('',(0.,-0.547508684863,0.8368));
#487 = ORIENTED_EDGE('',*,*,#63,.T.);
#488 = ORIENTED_EDGE('',*,*,#351,.T.);
#489 = ORIENTED_EDGE('',*,*,#490,.F.);
#490 = EDGE_CURVE('',#480,#352,#491,.T.);
#491 = ( BOUNDED_CURVE() B_SPLINE_CURVE(9,(#492,#493,#494,#495,#496,#497
    ,#498,#499,#500,#501),.UNSPECIFIED.,.F.,.F.) 
B_SPLINE_CURVE_WITH_KNOTS((10,10),(4.721600563207,10.240234449514),
.PIECEWISE_BEZIER_KNOTS.) CURVE() GEOMETRIC_REPRESENTATION_ITEM() 
RATIONAL_B_SPLINE_CURVE((1.,1.,1.,1.,1.,1.,1.,1.,1.,1.)) 
REPRESENTATION_ITEM('') );
#492 = CARTESIAN_POINT('',(-13.4916250554,10.092489888342,71.42226));
#493 = CARTESIAN_POINT('',(-13.4916250554,10.60559982193,71.757981970517
    ));
#494 = CARTESIAN_POINT('',(-13.33437766774,11.167338758662,
    72.019382747581));
#495 = CARTESIAN_POINT('',(-13.23193335874,11.76540191686,
    72.198410648864));
#496 = CARTESIAN_POINT('',(-13.14830918578,12.385931787275,
    72.289393879461));
#497 = CARTESIAN_POINT('',(-13.14830918578,13.014068212724,
    72.289393879462));
#498 = CARTESIAN_POINT('',(-13.23193335874,13.63459808314,
    72.198410648863));
#499 = CARTESIAN_POINT('',(-13.33437766774,14.232661241337,
    72.019382747582));
#500 = CARTESIAN_POINT('',(-13.4916250554,14.79440017807,71.757981970517
    ));
#501 = CARTESIAN_POINT('',(-13.4916250554,15.307510111658,71.42226));
#502 = ( BOUNDED_SURFACE() B_SPLINE_SURFACE(2,9,(
    (#503,#504,#505,#506,#507,#508,#509,#510,#511,#512)
    ,(#513,#514,#515,#516,#517,#518,#519,#520,#521,#522)
    ,(#523,#524,#525,#526,#527,#528,#529,#530,#531,#532
)),.UNSPECIFIED.,.F.,.F.,.F.) B_SPLINE_SURFACE_WITH_KNOTS((3,3),(10,10),
  (0.,5.518633886307),(4.721600563207,10.240234449514),
.PIECEWISE_BEZIER_KNOTS.) GEOMETRIC_REPRESENTATION_ITEM() 
RATIONAL_B_SPLINE_SURFACE((
    (1.,1.,1.,1.,1.,1.,1.,1.,1.,1.)
    ,(0.707106781187,0.78156593879,0.816769243619,0.840716920674
      ,0.849446816312,0.849446816312,0.840716920674,0.816769243619
      ,0.78156593879,0.707106781187)
,(1.,1.,1.,1.,1.,1.,1.,1.,1.,1.))) REPRESENTATION_ITEM('') SURFACE() );
#503 = CARTESIAN_POINT('',(-13.4916250554,10.092489888342,71.42226));
#504 = CARTESIAN_POINT('',(-13.4916250554,10.60559982193,71.757981970517
    ));
#505 = CARTESIAN_POINT('',(-13.33437766774,11.167338758662,
    72.019382747581));
#506 = CARTESIAN_POINT('',(-13.23193335874,11.76540191686,
    72.198410648864));
#507 = CARTESIAN_POINT('',(-13.14830918578,12.385931787275,
    72.289393879461));
#508 = CARTESIAN_POINT('',(-13.14830918578,13.014068212724,
    72.289393879462));
#509 = CARTESIAN_POINT('',(-13.23193335874,13.63459808314,
    72.198410648863));
#510 = CARTESIAN_POINT('',(-13.33437766774,14.232661241337,
    72.019382747582));
#511 = CARTESIAN_POINT('',(-13.4916250554,14.79440017807,71.757981970517
    ));
#512 = CARTESIAN_POINT('',(-13.4916250554,15.307510111658,71.42226));
#513 = CARTESIAN_POINT('',(-10.3166250554,10.092489888342,71.42226));
#514 = CARTESIAN_POINT('',(-10.92158444182,10.556716251757,
    71.725998008738));
#515 = CARTESIAN_POINT('',(-11.09967024947,11.128448296565,
    72.007729463108));
#516 = CARTESIAN_POINT('',(-11.17170866208,11.729648602451,
    72.191780095145));
#517 = CARTESIAN_POINT('',(-11.18324954881,12.382988209868,
    72.293546467431));
#518 = CARTESIAN_POINT('',(-11.18324954881,13.017011790132,
    72.293546467432));
#519 = CARTESIAN_POINT('',(-11.17170866208,13.670351397549,
    72.191780095145));
#520 = CARTESIAN_POINT('',(-11.09967024947,14.271551703434,
    72.007729463108));
#521 = CARTESIAN_POINT('',(-10.92158444182,14.843283748243,
    71.725998008738));
#522 = CARTESIAN_POINT('',(-10.3166250554,15.307510111658,71.42226));
#523 = CARTESIAN_POINT('',(-10.3166250554,8.354149813903,74.0791));
#524 = CARTESIAN_POINT('',(-10.3166250554,9.575431456238,74.0791));
#525 = CARTESIAN_POINT('',(-10.3166250554,10.565259545603,74.0791));
#526 = CARTESIAN_POINT('',(-10.3166250554,11.457106374514,74.0791));
#527 = CARTESIAN_POINT('',(-10.3166250554,12.289287533421,74.0791));
#528 = CARTESIAN_POINT('',(-10.3166250554,13.110712466579,74.0791));
#529 = CARTESIAN_POINT('',(-10.3166250554,13.942893625486,74.0791));
#530 = CARTESIAN_POINT('',(-10.3166250554,14.834740454397,74.0791));
#531 = CARTESIAN_POINT('',(-10.3166250554,15.824568543762,74.0791));
#532 = CARTESIAN_POINT('',(-10.3166250554,17.045850186097,74.0791));
#533 = ADVANCED_FACE('',(#534),#561,.F.);
#534 = FACE_BOUND('',#535,.F.);
#535 = EDGE_LOOP('',(#536,#537,#544,#545,#554));
#536 = ORIENTED_EDGE('',*,*,#78,.T.);
#537 = ORIENTED_EDGE('',*,*,#538,.T.);
#538 = EDGE_CURVE('',#79,#426,#539,.T.);
#539 = CIRCLE('',#540,7.9375);
#540 = AXIS2_PLACEMENT_3D('',#541,#542,#543);
#541 = CARTESIAN_POINT('',(-10.3166250554,-12.7,67.437));
#542 = DIRECTION('',(-1.,-0.,0.));
#543 = DIRECTION('',(0.,-1.,-2.98390650188E-15));
#544 = ORIENTED_EDGE('',*,*,#425,.F.);
#545 = ORIENTED_EDGE('',*,*,#546,.T.);
#546 = EDGE_CURVE('',#411,#547,#549,.T.);
#547 = VERTEX_POINT('',#548);
#548 = CARTESIAN_POINT('',(-10.3166250554,4.7625,67.437));
#549 = CIRCLE('',#550,7.9375);
#550 = AXIS2_PLACEMENT_3D('',#551,#552,#553);
#551 = CARTESIAN_POINT('',(-10.3166250554,12.7,67.437));
#552 = DIRECTION('',(-1.,0.,0.));
#553 = DIRECTION('',(0.,-1.,0.));
#554 = ORIENTED_EDGE('',*,*,#555,.T.);
#555 = EDGE_CURVE('',#547,#64,#556,.T.);
#556 = CIRCLE('',#557,7.9375);
#557 = AXIS2_PLACEMENT_3D('',#558,#559,#560);
#558 = CARTESIAN_POINT('',(-10.3166250554,12.7,67.437));
#559 = DIRECTION('',(-1.,0.,0.));
#560 = DIRECTION('',(0.,-1.,0.));
#561 = PLANE('',#562);
#562 = AXIS2_PLACEMENT_3D('',#563,#564,#565);
#563 = CARTESIAN_POINT('',(-10.3166250554,22.225,74.0791));
#564 = DIRECTION('',(1.,0.,0.));
#565 = DIRECTION('',(0.,-2.22044604925E-16,-1.));
#566 = ADVANCED_FACE('',(#567),#579,.F.);
#567 = FACE_BOUND('',#568,.T.);
#568 = EDGE_LOOP('',(#569,#570,#577,#578));
#569 = ORIENTED_EDGE('',*,*,#117,.T.);
#570 = ORIENTED_EDGE('',*,*,#571,.T.);
#571 = EDGE_CURVE('',#110,#457,#572,.T.);
#572 = CIRCLE('',#573,12.7);
#573 = AXIS2_PLACEMENT_3D('',#574,#575,#576);
#574 = CARTESIAN_POINT('',(5.588,-22.225,67.437));
#575 = DIRECTION('',(0.,-1.,2.22044604925E-16));
#576 = DIRECTION('',(1.,0.,0.));
#577 = ORIENTED_EDGE('',*,*,#464,.F.);
#578 = ORIENTED_EDGE('',*,*,#393,.F.);
#579 = CYLINDRICAL_SURFACE('',#580,12.7);
#580 = AXIS2_PLACEMENT_3D('',#581,#582,#583);
#581 = CARTESIAN_POINT('',(5.588,22.225,67.437));
#582 = DIRECTION('',(0.,1.,-2.22044604925E-16));
#583 = DIRECTION('',(1.,0.,0.));
#584 = ADVANCED_FACE('',(#585),#618,.T.);
#585 = FACE_BOUND('',#586,.T.);
#586 = EDGE_LOOP('',(#587,#596,#597,#605));
#587 = ORIENTED_EDGE('',*,*,#588,.F.);
#588 = EDGE_CURVE('',#87,#589,#591,.T.);
#589 = VERTEX_POINT('',#590);
#590 = CARTESIAN_POINT('',(-13.4916250554,-15.30751011165,71.42226));
#591 = CIRCLE('',#592,3.175);
#592 = AXIS2_PLACEMENT_3D('',#593,#594,#595);
#593 = CARTESIAN_POINT('',(-13.4916250554,-17.04585018609,74.0791));
#594 = DIRECTION('',(-0.,0.8368,0.547508684863));
#595 = DIRECTION('',(0.,-0.547508684863,0.8368));
#596 = ORIENTED_EDGE('',*,*,#86,.T.);
#597 = ORIENTED_EDGE('',*,*,#598,.T.);
#598 = EDGE_CURVE('',#79,#599,#601,.T.);
#599 = VERTEX_POINT('',#600);
#600 = CARTESIAN_POINT('',(-13.4916250554,-10.09248988834,71.42226));
#601 = ( BOUNDED_CURVE() B_SPLINE_CURVE(2,(#602,#603,#604),
.UNSPECIFIED.,.F.,.F.) B_SPLINE_CURVE_WITH_KNOTS((3,3),(0.,
5.518633886307),.PIECEWISE_BEZIER_KNOTS.) CURVE() 
GEOMETRIC_REPRESENTATION_ITEM() RATIONAL_B_SPLINE_CURVE((1.,
0.707106781187,1.)) REPRESENTATION_ITEM('') );
#602 = CARTESIAN_POINT('',(-10.3166250554,-8.354149813903,74.0791));
#603 = CARTESIAN_POINT('',(-10.3166250554,-10.09248988834,71.42226));
#604 = CARTESIAN_POINT('',(-13.4916250554,-10.09248988834,71.42226));
#605 = ORIENTED_EDGE('',*,*,#606,.F.);
#606 = EDGE_CURVE('',#589,#599,#607,.T.);
#607 = ( BOUNDED_CURVE() B_SPLINE_CURVE(9,(#608,#609,#610,#611,#612,#613
    ,#614,#615,#616,#617),.UNSPECIFIED.,.F.,.F.) 
B_SPLINE_CURVE_WITH_KNOTS((10,10),(4.721600563207,10.240234449514),
.PIECEWISE_BEZIER_KNOTS.) CURVE() GEOMETRIC_REPRESENTATION_ITEM() 
RATIONAL_B_SPLINE_CURVE((1.,1.,1.,1.,1.,1.,1.,1.,1.,1.)) 
REPRESENTATION_ITEM('') );
#608 = CARTESIAN_POINT('',(-13.4916250554,-15.30751011165,71.42226));
#609 = CARTESIAN_POINT('',(-13.4916250554,-14.79440017807,
    71.757981970517));
#610 = CARTESIAN_POINT('',(-13.33437766774,-14.23266124133,
    72.019382747582));
#611 = CARTESIAN_POINT('',(-13.23193335874,-13.63459808314,
    72.198410648864));
#612 = CARTESIAN_POINT('',(-13.14830918578,-13.01406821272,
    72.289393879462));
#613 = CARTESIAN_POINT('',(-13.14830918578,-12.38593178727,
    72.289393879462));
#614 = CARTESIAN_POINT('',(-13.23193335874,-11.76540191685,
    72.198410648863));
#615 = CARTESIAN_POINT('',(-13.33437766774,-11.16733875866,
    72.019382747582));
#616 = CARTESIAN_POINT('',(-13.4916250554,-10.60559982193,
    71.757981970517));
#617 = CARTESIAN_POINT('',(-13.4916250554,-10.09248988834,71.42226));
#618 = ( BOUNDED_SURFACE() B_SPLINE_SURFACE(2,9,(
    (#619,#620,#621,#622,#623,#624,#625,#626,#627,#628)
    ,(#629,#630,#631,#632,#633,#634,#635,#636,#637,#638)
    ,(#639,#640,#641,#642,#643,#644,#645,#646,#647,#648
)),.UNSPECIFIED.,.F.,.F.,.F.) B_SPLINE_SURFACE_WITH_KNOTS((3,3),(10,10),
  (0.,5.518633886307),(4.721600563207,10.240234449514),
.PIECEWISE_BEZIER_KNOTS.) GEOMETRIC_REPRESENTATION_ITEM() 
RATIONAL_B_SPLINE_SURFACE((
    (1.,1.,1.,1.,1.,1.,1.,1.,1.,1.)
    ,(0.707106781187,0.78156593879,0.816769243619,0.840716920674
      ,0.849446816312,0.849446816312,0.840716920674,0.816769243619
      ,0.78156593879,0.707106781187)
,(1.,1.,1.,1.,1.,1.,1.,1.,1.,1.))) REPRESENTATION_ITEM('') SURFACE() );
#619 = CARTESIAN_POINT('',(-13.4916250554,-15.30751011165,71.42226));
#620 = CARTESIAN_POINT('',(-13.4916250554,-14.79440017807,
    71.757981970517));
#621 = CARTESIAN_POINT('',(-13.33437766774,-14.23266124133,
    72.019382747582));
#622 = CARTESIAN_POINT('',(-13.23193335874,-13.63459808314,
    72.198410648864));
#623 = CARTESIAN_POINT('',(-13.14830918578,-13.01406821272,
    72.289393879462));
#624 = CARTESIAN_POINT('',(-13.14830918578,-12.38593178727,
    72.289393879462));
#625 = CARTESIAN_POINT('',(-13.23193335874,-11.76540191685,
    72.198410648863));
#626 = CARTESIAN_POINT('',(-13.33437766774,-11.16733875866,
    72.019382747582));
#627 = CARTESIAN_POINT('',(-13.4916250554,-10.60559982193,
    71.757981970517));
#628 = CARTESIAN_POINT('',(-13.4916250554,-10.09248988834,71.42226));
#629 = CARTESIAN_POINT('',(-10.3166250554,-15.30751011165,71.42226));
#630 = CARTESIAN_POINT('',(-10.92158444182,-14.84328374824,
    71.725998008738));
#631 = CARTESIAN_POINT('',(-11.09967024947,-14.27155170343,
    72.007729463108));
#632 = CARTESIAN_POINT('',(-11.17170866208,-13.67035139754,
    72.191780095145));
#633 = CARTESIAN_POINT('',(-11.18324954881,-13.01701179013,
    72.293546467431));
#634 = CARTESIAN_POINT('',(-11.18324954881,-12.38298820986,
    72.293546467432));
#635 = CARTESIAN_POINT('',(-11.17170866208,-11.72964860245,
    72.191780095145));
#636 = CARTESIAN_POINT('',(-11.09967024947,-11.12844829656,
    72.007729463109));
#637 = CARTESIAN_POINT('',(-10.92158444182,-10.55671625175,
    71.725998008738));
#638 = CARTESIAN_POINT('',(-10.3166250554,-10.09248988834,71.42226));
#639 = CARTESIAN_POINT('',(-10.3166250554,-17.04585018609,74.0791));
#640 = CARTESIAN_POINT('',(-10.3166250554,-15.82456854376,74.0791));
#641 = CARTESIAN_POINT('',(-10.3166250554,-14.83474045439,74.0791));
#642 = CARTESIAN_POINT('',(-10.3166250554,-13.94289362548,74.0791));
#643 = CARTESIAN_POINT('',(-10.3166250554,-13.11071246657,74.0791));
#644 = CARTESIAN_POINT('',(-10.3166250554,-12.28928753342,74.0791));
#645 = CARTESIAN_POINT('',(-10.3166250554,-11.45710637451,74.0791));
#646 = CARTESIAN_POINT('',(-10.3166250554,-10.5652595456,74.0791));
#647 = CARTESIAN_POINT('',(-10.3166250554,-9.575431456238,74.0791));
#648 = CARTESIAN_POINT('',(-10.3166250554,-8.354149813903,74.0791));
#649 = ADVANCED_FACE('',(#650),#661,.F.);
#650 = FACE_BOUND('',#651,.T.);
#651 = EDGE_LOOP('',(#652,#658,#659,#660));
#652 = ORIENTED_EDGE('',*,*,#653,.T.);
#653 = EDGE_CURVE('',#102,#449,#654,.T.);
#654 = LINE('',#655,#656);
#655 = CARTESIAN_POINT('',(-10.3166250554,-22.225,74.0791));
#656 = VECTOR('',#657,1.);
#657 = DIRECTION('',(0.,-2.22044604925E-16,-1.));
#658 = ORIENTED_EDGE('',*,*,#456,.T.);
#659 = ORIENTED_EDGE('',*,*,#571,.F.);
#660 = ORIENTED_EDGE('',*,*,#109,.F.);
#661 = PLANE('',#662);
#662 = AXIS2_PLACEMENT_3D('',#663,#664,#665);
#663 = CARTESIAN_POINT('',(-8.147166991259,-22.225,67.437));
#664 = DIRECTION('',(0.,1.,0.));
#665 = DIRECTION('',(0.,0.,1.));
#666 = ADVANCED_FACE('',(#667),#688,.F.);
#667 = FACE_BOUND('',#668,.F.);
#668 = EDGE_LOOP('',(#669,#670,#671,#672,#681));
#669 = ORIENTED_EDGE('',*,*,#101,.T.);
#670 = ORIENTED_EDGE('',*,*,#653,.T.);
#671 = ORIENTED_EDGE('',*,*,#448,.F.);
#672 = ORIENTED_EDGE('',*,*,#673,.T.);
#673 = EDGE_CURVE('',#434,#674,#676,.T.);
#674 = VERTEX_POINT('',#675);
#675 = CARTESIAN_POINT('',(-10.3166250554,-20.6375,67.437));
#676 = CIRCLE('',#677,7.9375);
#677 = AXIS2_PLACEMENT_3D('',#678,#679,#680);
#678 = CARTESIAN_POINT('',(-10.3166250554,-12.7,67.437));
#679 = DIRECTION('',(-1.,-0.,0.));
#680 = DIRECTION('',(0.,-1.,-2.98390650188E-15));
#681 = ORIENTED_EDGE('',*,*,#682,.T.);
#682 = EDGE_CURVE('',#674,#87,#683,.T.);
#683 = CIRCLE('',#684,7.9375);
#684 = AXIS2_PLACEMENT_3D('',#685,#686,#687);
#685 = CARTESIAN_POINT('',(-10.3166250554,-12.7,67.437));
#686 = DIRECTION('',(-1.,-0.,0.));
#687 = DIRECTION('',(0.,-1.,-2.98390650188E-15));
#688 = PLANE('',#689);
#689 = AXIS2_PLACEMENT_3D('',#690,#691,#692);
#690 = CARTESIAN_POINT('',(-10.3166250554,22.225,74.0791));
#691 = DIRECTION('',(1.,0.,0.));
#692 = DIRECTION('',(0.,-2.22044604925E-16,-1.));
#693 = ADVANCED_FACE('',(#694),#720,.F.);
#694 = FACE_BOUND('',#695,.F.);
#695 = EDGE_LOOP('',(#696,#704,#713,#719));
#696 = ORIENTED_EDGE('',*,*,#697,.T.);
#697 = EDGE_CURVE('',#134,#698,#700,.T.);
#698 = VERTEX_POINT('',#699);
#699 = CARTESIAN_POINT('',(-7.255963941014,17.927692510063,73.0791));
#700 = LINE('',#701,#702);
#701 = CARTESIAN_POINT('',(-7.255963941014,17.927692510063,74.0791));
#702 = VECTOR('',#703,1.);
#703 = DIRECTION('',(-0.,-0.,-1.));
#704 = ORIENTED_EDGE('',*,*,#705,.T.);
#705 = EDGE_CURVE('',#698,#706,#708,.T.);
#706 = VERTEX_POINT('',#707);
#707 = CARTESIAN_POINT('',(-7.064234626941,17.894151580425,73.0791));
#708 = B_SPLINE_CURVE_WITH_KNOTS('',3,(#709,#710,#711,#712),
  .UNSPECIFIED.,.F.,.F.,(4,4),(0.,1.),.PIECEWISE_BEZIER_KNOTS.);
#709 = CARTESIAN_POINT('',(-7.255963941014,17.927692510063,73.0791));
#710 = CARTESIAN_POINT('',(-7.169693549897,17.913340112264,73.0791));
#711 = CARTESIAN_POINT('',(-7.107447824661,17.903823848506,73.0791));
#712 = CARTESIAN_POINT('',(-7.064234626941,17.894151580425,73.0791));
#713 = ORIENTED_EDGE('',*,*,#714,.F.);
#714 = EDGE_CURVE('',#136,#706,#715,.T.);
#715 = LINE('',#716,#717);
#716 = CARTESIAN_POINT('',(-7.064234626941,17.894151580425,74.0791));
#717 = VECTOR('',#718,1.);
#718 = DIRECTION('',(-0.,-0.,-1.));
#719 = ORIENTED_EDGE('',*,*,#133,.F.);
#720 = SURFACE_OF_LINEAR_EXTRUSION('',#721,#726);
#721 = B_SPLINE_CURVE_WITH_KNOTS('',3,(#722,#723,#724,#725),
  .UNSPECIFIED.,.F.,.F.,(4,4),(0.,1.),.PIECEWISE_BEZIER_KNOTS.);
#722 = CARTESIAN_POINT('',(-7.255963941014,17.927692510063,74.0791));
#723 = CARTESIAN_POINT('',(-7.169693549897,17.913340112264,74.0791));
#724 = CARTESIAN_POINT('',(-7.107447824661,17.903823848506,74.0791));
#725 = CARTESIAN_POINT('',(-7.064234626941,17.894151580425,74.0791));
#726 = VECTOR('',#727,1.);
#727 = DIRECTION('',(0.,0.,1.));
#728 = ADVANCED_FACE('',(#729),#748,.F.);
#729 = FACE_BOUND('',#730,.F.);
#730 = EDGE_LOOP('',(#731,#732,#741,#747));
#731 = ORIENTED_EDGE('',*,*,#714,.T.);
#732 = ORIENTED_EDGE('',*,*,#733,.T.);
#733 = EDGE_CURVE('',#706,#734,#736,.T.);
#734 = VERTEX_POINT('',#735);
#735 = CARTESIAN_POINT('',(-6.273448709095,17.77434025967,73.0791));
#736 = B_SPLINE_CURVE_WITH_KNOTS('',3,(#737,#738,#739,#740),
  .UNSPECIFIED.,.F.,.F.,(4,4),(0.,1.),.PIECEWISE_BEZIER_KNOTS.);
#737 = CARTESIAN_POINT('',(-7.064234626941,17.894151580425,73.0791));
#738 = CARTESIAN_POINT('',(-6.699964530636,17.81755345739,73.0791));
#739 = CARTESIAN_POINT('',(-6.41244856169,17.77434025967,73.0791));
#740 = CARTESIAN_POINT('',(-6.273448709095,17.77434025967,73.0791));
#741 = ORIENTED_EDGE('',*,*,#742,.F.);
#742 = EDGE_CURVE('',#171,#734,#743,.T.);
#743 = LINE('',#744,#745);
#744 = CARTESIAN_POINT('',(-6.273448709095,17.77434025967,74.0791));
#745 = VECTOR('',#746,1.);
#746 = DIRECTION('',(-0.,-0.,-1.));
#747 = ORIENTED_EDGE('',*,*,#179,.F.);
#748 = SURFACE_OF_LINEAR_EXTRUSION('',#749,#754);
#749 = B_SPLINE_CURVE_WITH_KNOTS('',3,(#750,#751,#752,#753),
  .UNSPECIFIED.,.F.,.F.,(4,4),(0.,1.),.PIECEWISE_BEZIER_KNOTS.);
#750 = CARTESIAN_POINT('',(-7.064234626941,17.894151580425,74.0791));
#751 = CARTESIAN_POINT('',(-6.699964530636,17.81755345739,74.0791));
#752 = CARTESIAN_POINT('',(-6.41244856169,17.77434025967,74.0791));
#753 = CARTESIAN_POINT('',(-6.273448709095,17.77434025967,74.0791));
#754 = VECTOR('',#755,1.);
#755 = DIRECTION('',(0.,0.,1.));
#756 = ADVANCED_FACE('',(#757),#776,.F.);
#757 = FACE_BOUND('',#758,.F.);
#758 = EDGE_LOOP('',(#759,#760,#769,#775));
#759 = ORIENTED_EDGE('',*,*,#742,.T.);
#760 = ORIENTED_EDGE('',*,*,#761,.T.);
#761 = EDGE_CURVE('',#734,#762,#764,.T.);
#762 = VERTEX_POINT('',#763);
#763 = CARTESIAN_POINT('',(-6.081719395023,17.9755858375,73.0791));
#764 = B_SPLINE_CURVE_WITH_KNOTS('',3,(#765,#766,#767,#768),
  .UNSPECIFIED.,.F.,.F.,(4,4),(0.,1.),.PIECEWISE_BEZIER_KNOTS.);
#765 = CARTESIAN_POINT('',(-6.273448709095,17.77434025967,73.0791));
#766 = CARTESIAN_POINT('',(-6.167989786139,17.77434025967,73.0791));
#767 = CARTESIAN_POINT('',(-6.081719395023,17.865446784827,73.0791));
#768 = CARTESIAN_POINT('',(-6.081719395023,17.9755858375,73.0791));
#769 = ORIENTED_EDGE('',*,*,#770,.F.);
#770 = EDGE_CURVE('',#162,#762,#771,.T.);
#771 = LINE('',#772,#773);
#772 = CARTESIAN_POINT('',(-6.081719395023,17.9755858375,74.0791));
#773 = VECTOR('',#774,1.);
#774 = DIRECTION('',(-0.,-0.,-1.));
#775 = ORIENTED_EDGE('',*,*,#170,.F.);
#776 = SURFACE_OF_LINEAR_EXTRUSION('',#777,#782);
#777 = B_SPLINE_CURVE_WITH_KNOTS('',3,(#778,#779,#780,#781),
  .UNSPECIFIED.,.F.,.F.,(4,4),(0.,1.),.PIECEWISE_BEZIER_KNOTS.);
#778 = CARTESIAN_POINT('',(-6.273448709095,17.77434025967,74.0791));
#779 = CARTESIAN_POINT('',(-6.167989786139,17.77434025967,74.0791));
#780 = CARTESIAN_POINT('',(-6.081719395023,17.865446784827,74.0791));
#781 = CARTESIAN_POINT('',(-6.081719395023,17.9755858375,74.0791));
#782 = VECTOR('',#783,1.);
#783 = DIRECTION('',(0.,0.,1.));
#784 = ADVANCED_FACE('',(#785),#804,.F.);
#785 = FACE_BOUND('',#786,.F.);
#786 = EDGE_LOOP('',(#787,#788,#797,#803));
#787 = ORIENTED_EDGE('',*,*,#770,.T.);
#788 = ORIENTED_EDGE('',*,*,#789,.T.);
#789 = EDGE_CURVE('',#762,#790,#792,.T.);
#790 = VERTEX_POINT('',#791);
#791 = CARTESIAN_POINT('',(-6.278284843136,18.181667549371,73.0791));
#792 = B_SPLINE_CURVE_WITH_KNOTS('',3,(#793,#794,#795,#796),
  .UNSPECIFIED.,.F.,.F.,(4,4),(0.,1.),.PIECEWISE_BEZIER_KNOTS.);
#793 = CARTESIAN_POINT('',(-6.081719395023,17.9755858375,73.0791));
#794 = CARTESIAN_POINT('',(-6.081719395023,18.090717028538,73.0791));
#795 = CARTESIAN_POINT('',(-6.167989786139,18.181667549371,73.0791));
#796 = CARTESIAN_POINT('',(-6.278284843136,18.181667549371,73.0791));
#797 = ORIENTED_EDGE('',*,*,#798,.F.);
#798 = EDGE_CURVE('',#153,#790,#799,.T.);
#799 = LINE('',#800,#801);
#800 = CARTESIAN_POINT('',(-6.278284843136,18.181667549371,74.0791));
#801 = VECTOR('',#802,1.);
#802 = DIRECTION('',(-0.,-0.,-1.));
#803 = ORIENTED_EDGE('',*,*,#161,.F.);
#804 = SURFACE_OF_LINEAR_EXTRUSION('',#805,#810);
#805 = B_SPLINE_CURVE_WITH_KNOTS('',3,(#806,#807,#808,#809),
  .UNSPECIFIED.,.F.,.F.,(4,4),(0.,1.),.PIECEWISE_BEZIER_KNOTS.);
#806 = CARTESIAN_POINT('',(-6.081719395023,17.9755858375,74.0791));
#807 = CARTESIAN_POINT('',(-6.081719395023,18.090717028538,74.0791));
#808 = CARTESIAN_POINT('',(-6.167989786139,18.181667549371,74.0791));
#809 = CARTESIAN_POINT('',(-6.278284843136,18.181667549371,74.0791));
#810 = VECTOR('',#811,1.);
#811 = DIRECTION('',(0.,0.,1.));
#812 = ADVANCED_FACE('',(#813),#832,.F.);
#813 = FACE_BOUND('',#814,.F.);
#814 = EDGE_LOOP('',(#815,#816,#825,#831));
#815 = ORIENTED_EDGE('',*,*,#798,.T.);
#816 = ORIENTED_EDGE('',*,*,#817,.T.);
#817 = EDGE_CURVE('',#790,#818,#820,.T.);
#818 = VERTEX_POINT('',#819);
#819 = CARTESIAN_POINT('',(-7.255963941014,18.028315298978,73.0791));
#820 = B_SPLINE_CURVE_WITH_KNOTS('',3,(#821,#822,#823,#824),
  .UNSPECIFIED.,.F.,.F.,(4,4),(0.,1.),.PIECEWISE_BEZIER_KNOTS.);
#821 = CARTESIAN_POINT('',(-6.278284843136,18.181667549371,73.0791));
#822 = CARTESIAN_POINT('',(-6.359719100212,18.181667549371,73.0791));
#823 = CARTESIAN_POINT('',(-6.791071055793,18.114585690094,73.0791));
#824 = CARTESIAN_POINT('',(-7.255963941014,18.028315298978,73.0791));
#825 = ORIENTED_EDGE('',*,*,#826,.F.);
#826 = EDGE_CURVE('',#145,#818,#827,.T.);
#827 = LINE('',#828,#829);
#828 = CARTESIAN_POINT('',(-7.255963941014,18.028315298978,74.0791));
#829 = VECTOR('',#830,1.);
#830 = DIRECTION('',(-0.,-0.,-1.));
#831 = ORIENTED_EDGE('',*,*,#152,.F.);
#832 = SURFACE_OF_LINEAR_EXTRUSION('',#833,#838);
#833 = B_SPLINE_CURVE_WITH_KNOTS('',3,(#834,#835,#836,#837),
  .UNSPECIFIED.,.F.,.F.,(4,4),(0.,1.),.PIECEWISE_BEZIER_KNOTS.);
#834 = CARTESIAN_POINT('',(-6.278284843136,18.181667549371,74.0791));
#835 = CARTESIAN_POINT('',(-6.359719100212,18.181667549371,74.0791));
#836 = CARTESIAN_POINT('',(-6.791071055793,18.114585690094,74.0791));
#837 = CARTESIAN_POINT('',(-7.255963941014,18.028315298978,74.0791));
#838 = VECTOR('',#839,1.);
#839 = DIRECTION('',(0.,0.,1.));
#840 = ADVANCED_FACE('',(#841),#852,.F.);
#841 = FACE_BOUND('',#842,.F.);
#842 = EDGE_LOOP('',(#843,#844,#850,#851));
#843 = ORIENTED_EDGE('',*,*,#826,.T.);
#844 = ORIENTED_EDGE('',*,*,#845,.T.);
#845 = EDGE_CURVE('',#818,#698,#846,.T.);
#846 = LINE('',#847,#848);
#847 = CARTESIAN_POINT('',(-7.255963941014,18.028315298978,73.0791));
#848 = VECTOR('',#849,1.);
#849 = DIRECTION('',(-2.22044604925E-16,-1.,0.));
#850 = ORIENTED_EDGE('',*,*,#697,.F.);
#851 = ORIENTED_EDGE('',*,*,#144,.F.);
#852 = PLANE('',#853);
#853 = AXIS2_PLACEMENT_3D('',#854,#855,#856);
#854 = CARTESIAN_POINT('',(-7.255963941014,18.028315298978,74.0791));
#855 = DIRECTION('',(-1.,2.22044604925E-16,0.));
#856 = DIRECTION('',(-2.22044604925E-16,-1.,0.));
#857 = ADVANCED_FACE('',(#858),#884,.F.);
#858 = FACE_BOUND('',#859,.F.);
#859 = EDGE_LOOP('',(#860,#868,#877,#883));
#860 = ORIENTED_EDGE('',*,*,#861,.T.);
#861 = EDGE_CURVE('',#189,#862,#864,.T.);
#862 = VERTEX_POINT('',#863);
#863 = CARTESIAN_POINT('',(-7.255963941014,18.737666959748,73.0791));
#864 = LINE('',#865,#866);
#865 = CARTESIAN_POINT('',(-7.255963941014,18.737666959748,74.0791));
#866 = VECTOR('',#867,1.);
#867 = DIRECTION('',(-0.,-0.,-1.));
#868 = ORIENTED_EDGE('',*,*,#869,.T.);
#869 = EDGE_CURVE('',#862,#870,#872,.T.);
#870 = VERTEX_POINT('',#871);
#871 = CARTESIAN_POINT('',(-7.064234626941,18.70412603011,73.0791));
#872 = B_SPLINE_CURVE_WITH_KNOTS('',3,(#873,#874,#875,#876),
  .UNSPECIFIED.,.F.,.F.,(4,4),(0.,1.),.PIECEWISE_BEZIER_KNOTS.);
#873 = CARTESIAN_POINT('',(-7.255963941014,18.737666959748,73.0791));
#874 = CARTESIAN_POINT('',(-7.169693549897,18.72331456195,73.0791));
#875 = CARTESIAN_POINT('',(-7.107447824661,18.713642293868,73.0791));
#876 = CARTESIAN_POINT('',(-7.064234626941,18.70412603011,73.0791));
#877 = ORIENTED_EDGE('',*,*,#878,.F.);
#878 = EDGE_CURVE('',#191,#870,#879,.T.);
#879 = LINE('',#880,#881);
#880 = CARTESIAN_POINT('',(-7.064234626941,18.70412603011,74.0791));
#881 = VECTOR('',#882,1.);
#882 = DIRECTION('',(-0.,-0.,-1.));
#883 = ORIENTED_EDGE('',*,*,#188,.F.);
#884 = SURFACE_OF_LINEAR_EXTRUSION('',#885,#890);
#885 = B_SPLINE_CURVE_WITH_KNOTS('',3,(#886,#887,#888,#889),
  .UNSPECIFIED.,.F.,.F.,(4,4),(0.,1.),.PIECEWISE_BEZIER_KNOTS.);
#886 = CARTESIAN_POINT('',(-7.255963941014,18.737666959748,74.0791));
#887 = CARTESIAN_POINT('',(-7.169693549897,18.72331456195,74.0791));
#888 = CARTESIAN_POINT('',(-7.107447824661,18.713642293868,74.0791));
#889 = CARTESIAN_POINT('',(-7.064234626941,18.70412603011,74.0791));
#890 = VECTOR('',#891,1.);
#891 = DIRECTION('',(0.,0.,1.));
#892 = ADVANCED_FACE('',(#893),#912,.F.);
#893 = FACE_BOUND('',#894,.F.);
#894 = EDGE_LOOP('',(#895,#896,#905,#911));
#895 = ORIENTED_EDGE('',*,*,#878,.T.);
#896 = ORIENTED_EDGE('',*,*,#897,.T.);
#897 = EDGE_CURVE('',#870,#898,#900,.T.);
#898 = VERTEX_POINT('',#899);
#899 = CARTESIAN_POINT('',(-6.273448709095,18.584314709355,73.0791));
#900 = B_SPLINE_CURVE_WITH_KNOTS('',3,(#901,#902,#903,#904),
  .UNSPECIFIED.,.F.,.F.,(4,4),(0.,1.),.PIECEWISE_BEZIER_KNOTS.);
#901 = CARTESIAN_POINT('',(-7.064234626941,18.70412603011,73.0791));
#902 = CARTESIAN_POINT('',(-6.699964530636,18.627371902752,73.0791));
#903 = CARTESIAN_POINT('',(-6.41244856169,18.584314709355,73.0791));
#904 = CARTESIAN_POINT('',(-6.273448709095,18.584314709355,73.0791));
#905 = ORIENTED_EDGE('',*,*,#906,.F.);
#906 = EDGE_CURVE('',#226,#898,#907,.T.);
#907 = LINE('',#908,#909);
#908 = CARTESIAN_POINT('',(-6.273448709095,18.584314709355,74.0791));
#909 = VECTOR('',#910,1.);
#910 = DIRECTION('',(-0.,-0.,-1.));
#911 = ORIENTED_EDGE('',*,*,#234,.F.);
#912 = SURFACE_OF_LINEAR_EXTRUSION('',#913,#918);
#913 = B_SPLINE_CURVE_WITH_KNOTS('',3,(#914,#915,#916,#917),
  .UNSPECIFIED.,.F.,.F.,(4,4),(0.,1.),.PIECEWISE_BEZIER_KNOTS.);
#914 = CARTESIAN_POINT('',(-7.064234626941,18.70412603011,74.0791));
#915 = CARTESIAN_POINT('',(-6.699964530636,18.627371902752,74.0791));
#916 = CARTESIAN_POINT('',(-6.41244856169,18.584314709355,74.0791));
#917 = CARTESIAN_POINT('',(-6.273448709095,18.584314709355,74.0791));
#918 = VECTOR('',#919,1.);
#919 = DIRECTION('',(0.,0.,1.));
#920 = ADVANCED_FACE('',(#921),#940,.F.);
#921 = FACE_BOUND('',#922,.F.);
#922 = EDGE_LOOP('',(#923,#924,#933,#939));
#923 = ORIENTED_EDGE('',*,*,#906,.T.);
#924 = ORIENTED_EDGE('',*,*,#925,.T.);
#925 = EDGE_CURVE('',#898,#926,#928,.T.);
#926 = VERTEX_POINT('',#927);
#927 = CARTESIAN_POINT('',(-6.081719395023,18.785560287186,73.0791));
#928 = B_SPLINE_CURVE_WITH_KNOTS('',3,(#929,#930,#931,#932),
  .UNSPECIFIED.,.F.,.F.,(4,4),(0.,1.),.PIECEWISE_BEZIER_KNOTS.);
#929 = CARTESIAN_POINT('',(-6.273448709095,18.584314709355,73.0791));
#930 = CARTESIAN_POINT('',(-6.167989786139,18.584314709355,73.0791));
#931 = CARTESIAN_POINT('',(-6.081719395023,18.675421234513,73.0791));
#932 = CARTESIAN_POINT('',(-6.081719395023,18.785560287186,73.0791));
#933 = ORIENTED_EDGE('',*,*,#934,.F.);
#934 = EDGE_CURVE('',#217,#926,#935,.T.);
#935 = LINE('',#936,#937);
#936 = CARTESIAN_POINT('',(-6.081719395023,18.785560287186,74.0791));
#937 = VECTOR('',#938,1.);
#938 = DIRECTION('',(-0.,-0.,-1.));
#939 = ORIENTED_EDGE('',*,*,#225,.F.);
#940 = SURFACE_OF_LINEAR_EXTRUSION('',#941,#946);
#941 = B_SPLINE_CURVE_WITH_KNOTS('',3,(#942,#943,#944,#945),
  .UNSPECIFIED.,.F.,.F.,(4,4),(0.,1.),.PIECEWISE_BEZIER_KNOTS.);
#942 = CARTESIAN_POINT('',(-6.273448709095,18.584314709355,74.0791));
#943 = CARTESIAN_POINT('',(-6.167989786139,18.584314709355,74.0791));
#944 = CARTESIAN_POINT('',(-6.081719395023,18.675421234513,74.0791));
#945 = CARTESIAN_POINT('',(-6.081719395023,18.785560287186,74.0791));
#946 = VECTOR('',#947,1.);
#947 = DIRECTION('',(0.,0.,1.));
#948 = ADVANCED_FACE('',(#949),#968,.F.);
#949 = FACE_BOUND('',#950,.F.);
#950 = EDGE_LOOP('',(#951,#952,#961,#967));
#951 = ORIENTED_EDGE('',*,*,#934,.T.);
#952 = ORIENTED_EDGE('',*,*,#953,.T.);
#953 = EDGE_CURVE('',#926,#954,#956,.T.);
#954 = VERTEX_POINT('',#955);
#955 = CARTESIAN_POINT('',(-6.278284843136,18.991641999057,73.0791));
#956 = B_SPLINE_CURVE_WITH_KNOTS('',3,(#957,#958,#959,#960),
  .UNSPECIFIED.,.F.,.F.,(4,4),(0.,1.),.PIECEWISE_BEZIER_KNOTS.);
#957 = CARTESIAN_POINT('',(-6.081719395023,18.785560287186,73.0791));
#958 = CARTESIAN_POINT('',(-6.081719395023,18.900535473899,73.0791));
#959 = CARTESIAN_POINT('',(-6.167989786139,18.991641999057,73.0791));
#960 = CARTESIAN_POINT('',(-6.278284843136,18.991641999057,73.0791));
#961 = ORIENTED_EDGE('',*,*,#962,.F.);
#962 = EDGE_CURVE('',#208,#954,#963,.T.);
#963 = LINE('',#964,#965);
#964 = CARTESIAN_POINT('',(-6.278284843136,18.991641999057,74.0791));
#965 = VECTOR('',#966,1.);
#966 = DIRECTION('',(-0.,-0.,-1.));
#967 = ORIENTED_EDGE('',*,*,#216,.F.);
#968 = SURFACE_OF_LINEAR_EXTRUSION('',#969,#974);
#969 = B_SPLINE_CURVE_WITH_KNOTS('',3,(#970,#971,#972,#973),
  .UNSPECIFIED.,.F.,.F.,(4,4),(0.,1.),.PIECEWISE_BEZIER_KNOTS.);
#970 = CARTESIAN_POINT('',(-6.081719395023,18.785560287186,74.0791));
#971 = CARTESIAN_POINT('',(-6.081719395023,18.900535473899,74.0791));
#972 = CARTESIAN_POINT('',(-6.167989786139,18.991641999057,74.0791));
#973 = CARTESIAN_POINT('',(-6.278284843136,18.991641999057,74.0791));
#974 = VECTOR('',#975,1.);
#975 = DIRECTION('',(0.,0.,1.));
#976 = ADVANCED_FACE('',(#977),#996,.F.);
#977 = FACE_BOUND('',#978,.F.);
#978 = EDGE_LOOP('',(#979,#980,#989,#995));
#979 = ORIENTED_EDGE('',*,*,#962,.T.);
#980 = ORIENTED_EDGE('',*,*,#981,.T.);
#981 = EDGE_CURVE('',#954,#982,#984,.T.);
#982 = VERTEX_POINT('',#983);
#983 = CARTESIAN_POINT('',(-7.255963941014,18.838289748664,73.0791));
#984 = B_SPLINE_CURVE_WITH_KNOTS('',3,(#985,#986,#987,#988),
  .UNSPECIFIED.,.F.,.F.,(4,4),(0.,1.),.PIECEWISE_BEZIER_KNOTS.);
#985 = CARTESIAN_POINT('',(-6.278284843136,18.991641999057,73.0791));
#986 = CARTESIAN_POINT('',(-6.359719100212,18.991641999057,73.0791));
#987 = CARTESIAN_POINT('',(-6.791071055793,18.92456013978,73.0791));
#988 = CARTESIAN_POINT('',(-7.255963941014,18.838289748664,73.0791));
#989 = ORIENTED_EDGE('',*,*,#990,.F.);
#990 = EDGE_CURVE('',#200,#982,#991,.T.);
#991 = LINE('',#992,#993);
#992 = CARTESIAN_POINT('',(-7.255963941014,18.838289748664,74.0791));
#993 = VECTOR('',#994,1.);
#994 = DIRECTION('',(-0.,-0.,-1.));
#995 = ORIENTED_EDGE('',*,*,#207,.F.);
#996 = SURFACE_OF_LINEAR_EXTRUSION('',#997,#1002);
#997 = B_SPLINE_CURVE_WITH_KNOTS('',3,(#998,#999,#1000,#1001),
  .UNSPECIFIED.,.F.,.F.,(4,4),(0.,1.),.PIECEWISE_BEZIER_KNOTS.);
#998 = CARTESIAN_POINT('',(-6.278284843136,18.991641999057,74.0791));
#999 = CARTESIAN_POINT('',(-6.359719100212,18.991641999057,74.0791));
#1000 = CARTESIAN_POINT('',(-6.791071055793,18.92456013978,74.0791));
#1001 = CARTESIAN_POINT('',(-7.255963941014,18.838289748664,74.0791));
#1002 = VECTOR('',#1003,1.);
#1003 = DIRECTION('',(0.,0.,1.));
#1004 = ADVANCED_FACE('',(#1005),#1016,.F.);
#1005 = FACE_BOUND('',#1006,.F.);
#1006 = EDGE_LOOP('',(#1007,#1008,#1014,#1015));
#1007 = ORIENTED_EDGE('',*,*,#990,.T.);
#1008 = ORIENTED_EDGE('',*,*,#1009,.T.);
#1009 = EDGE_CURVE('',#982,#862,#1010,.T.);
#1010 = LINE('',#1011,#1012);
#1011 = CARTESIAN_POINT('',(-7.255963941014,18.838289748664,73.0791));
#1012 = VECTOR('',#1013,1.);
#1013 = DIRECTION('',(-2.22044604925E-16,-1.,0.));
#1014 = ORIENTED_EDGE('',*,*,#861,.F.);
#1015 = ORIENTED_EDGE('',*,*,#199,.F.);
#1016 = PLANE('',#1017);
#1017 = AXIS2_PLACEMENT_3D('',#1018,#1019,#1020);
#1018 = CARTESIAN_POINT('',(-7.255963941014,18.838289748664,74.0791));
#1019 = DIRECTION('',(-1.,2.22044604925E-16,0.));
#1020 = DIRECTION('',(-2.22044604925E-16,-1.,0.));
#1021 = ADVANCED_FACE('',(#1022),#1047,.F.);
#1022 = FACE_BOUND('',#1023,.F.);
#1023 = EDGE_LOOP('',(#1024,#1032,#1040,#1046));
#1024 = ORIENTED_EDGE('',*,*,#1025,.T.);
#1025 = EDGE_CURVE('',#244,#1026,#1028,.T.);
#1026 = VERTEX_POINT('',#1027);
#1027 = CARTESIAN_POINT('',(-9.3166250554,21.191458970362,73.0791));
#1028 = LINE('',#1029,#1030);
#1029 = CARTESIAN_POINT('',(-9.3166250554,21.191458970362,74.0791));
#1030 = VECTOR('',#1031,1.);
#1031 = DIRECTION('',(-0.,-0.,-1.));
#1032 = ORIENTED_EDGE('',*,*,#1033,.T.);
#1033 = EDGE_CURVE('',#1026,#1034,#1036,.T.);
#1034 = VERTEX_POINT('',#1035);
#1035 = CARTESIAN_POINT('',(-9.3166250554,19.868698308019,73.0791));
#1036 = LINE('',#1037,#1038);
#1037 = CARTESIAN_POINT('',(-9.3166250554,21.191458970362,73.0791));
#1038 = VECTOR('',#1039,1.);
#1039 = DIRECTION('',(-2.22044604925E-16,-1.,0.));
#1040 = ORIENTED_EDGE('',*,*,#1041,.F.);
#1041 = EDGE_CURVE('',#246,#1034,#1042,.T.);
#1042 = LINE('',#1043,#1044);
#1043 = CARTESIAN_POINT('',(-9.3166250554,19.868698308019,74.0791));
#1044 = VECTOR('',#1045,1.);
#1045 = DIRECTION('',(-0.,-0.,-1.));
#1046 = ORIENTED_EDGE('',*,*,#243,.F.);
#1047 = PLANE('',#1048);
#1048 = AXIS2_PLACEMENT_3D('',#1049,#1050,#1051);
#1049 = CARTESIAN_POINT('',(-9.3166250554,21.191458970362,74.0791));
#1050 = DIRECTION('',(-1.,2.22044604925E-16,0.));
#1051 = DIRECTION('',(-2.22044604925E-16,-1.,0.));
#1052 = ADVANCED_FACE('',(#1053),#1071,.F.);
#1053 = FACE_BOUND('',#1054,.F.);
#1054 = EDGE_LOOP('',(#1055,#1056,#1064,#1070));
#1055 = ORIENTED_EDGE('',*,*,#1041,.T.);
#1056 = ORIENTED_EDGE('',*,*,#1057,.T.);
#1057 = EDGE_CURVE('',#1034,#1058,#1060,.T.);
#1058 = VERTEX_POINT('',#1059);
#1059 = CARTESIAN_POINT('',(-9.244863066407,19.868698308019,73.0791));
#1060 = LINE('',#1061,#1062);
#1061 = CARTESIAN_POINT('',(-9.3166250554,19.868698308019,73.0791));
#1062 = VECTOR('',#1063,1.);
#1063 = DIRECTION('',(1.,-2.22044604925E-16,0.));
#1064 = ORIENTED_EDGE('',*,*,#1065,.F.);
#1065 = EDGE_CURVE('',#329,#1058,#1066,.T.);
#1066 = LINE('',#1067,#1068);
#1067 = CARTESIAN_POINT('',(-9.244863066407,19.868698308019,74.0791));
#1068 = VECTOR('',#1069,1.);
#1069 = DIRECTION('',(-0.,-0.,-1.));
#1070 = ORIENTED_EDGE('',*,*,#337,.F.);
#1071 = PLANE('',#1072);
#1072 = AXIS2_PLACEMENT_3D('',#1073,#1074,#1075);
#1073 = CARTESIAN_POINT('',(-9.3166250554,19.868698308019,74.0791));
#1074 = DIRECTION('',(-2.22044604925E-16,-1.,0.));
#1075 = DIRECTION('',(1.,-2.22044604925E-16,0.));
#1076 = ADVANCED_FACE('',(#1077),#1096,.F.);
#1077 = FACE_BOUND('',#1078,.F.);
#1078 = EDGE_LOOP('',(#1079,#1080,#1089,#1095));
#1079 = ORIENTED_EDGE('',*,*,#1065,.T.);
#1080 = ORIENTED_EDGE('',*,*,#1081,.T.);
#1081 = EDGE_CURVE('',#1058,#1082,#1084,.T.);
#1082 = VERTEX_POINT('',#1083);
#1083 = CARTESIAN_POINT('',(-8.962495240149,20.323918925157,73.0791));
#1084 = B_SPLINE_CURVE_WITH_KNOTS('',3,(#1085,#1086,#1087,#1088),
  .UNSPECIFIED.,.F.,.F.,(4,4),(0.,1.),.PIECEWISE_BEZIER_KNOTS.);
#1085 = CARTESIAN_POINT('',(-9.244863066407,19.868698308019,73.0791));
#1086 = CARTESIAN_POINT('',(-9.244863066407,20.237648534041,73.0791));
#1087 = CARTESIAN_POINT('',(-9.192133604929,20.31923879544,73.0791));
#1088 = CARTESIAN_POINT('',(-8.962495240149,20.323918925157,73.0791));
#1089 = ORIENTED_EDGE('',*,*,#1090,.F.);
#1090 = EDGE_CURVE('',#321,#1082,#1091,.T.);
#1091 = LINE('',#1092,#1093);
#1092 = CARTESIAN_POINT('',(-8.962495240149,20.323918925157,74.0791));
#1093 = VECTOR('',#1094,1.);
#1094 = DIRECTION('',(-0.,-0.,-1.));
#1095 = ORIENTED_EDGE('',*,*,#328,.F.);
#1096 = SURFACE_OF_LINEAR_EXTRUSION('',#1097,#1102);
#1097 = B_SPLINE_CURVE_WITH_KNOTS('',3,(#1098,#1099,#1100,#1101),
  .UNSPECIFIED.,.F.,.F.,(4,4),(0.,1.),.PIECEWISE_BEZIER_KNOTS.);
#1098 = CARTESIAN_POINT('',(-9.244863066407,19.868698308019,74.0791));
#1099 = CARTESIAN_POINT('',(-9.244863066407,20.237648534041,74.0791));
#1100 = CARTESIAN_POINT('',(-9.192133604929,20.31923879544,74.0791));
#1101 = CARTESIAN_POINT('',(-8.962495240149,20.323918925157,74.0791));
#1102 = VECTOR('',#1103,1.);
#1103 = DIRECTION('',(0.,0.,1.));
#1104 = ADVANCED_FACE('',(#1105),#1123,.F.);
#1105 = FACE_BOUND('',#1106,.F.);
#1106 = EDGE_LOOP('',(#1107,#1108,#1116,#1122));
#1107 = ORIENTED_EDGE('',*,*,#1090,.T.);
#1108 = ORIENTED_EDGE('',*,*,#1109,.T.);
#1109 = EDGE_CURVE('',#1082,#1110,#1112,.T.);
#1110 = VERTEX_POINT('',#1111);
#1111 = CARTESIAN_POINT('',(-6.091391663105,20.323918925157,73.0791));
#1112 = LINE('',#1113,#1114);
#1113 = CARTESIAN_POINT('',(-8.962495240149,20.323918925157,73.0791));
#1114 = VECTOR('',#1115,1.);
#1115 = DIRECTION('',(1.,-2.22044604925E-16,0.));
#1116 = ORIENTED_EDGE('',*,*,#1117,.F.);
#1117 = EDGE_CURVE('',#313,#1110,#1118,.T.);
#1118 = LINE('',#1119,#1120);
#1119 = CARTESIAN_POINT('',(-6.091391663105,20.323918925157,74.0791));
#1120 = VECTOR('',#1121,1.);
#1121 = DIRECTION('',(-0.,-0.,-1.));
#1122 = ORIENTED_EDGE('',*,*,#320,.F.);
#1123 = PLANE('',#1124);
#1124 = AXIS2_PLACEMENT_3D('',#1125,#1126,#1127);
#1125 = CARTESIAN_POINT('',(-8.962495240149,20.323918925157,74.0791));
#1126 = DIRECTION('',(-2.22044604925E-16,-1.,0.));
#1127 = DIRECTION('',(1.,-2.22044604925E-16,0.));
#1128 = ADVANCED_FACE('',(#1129),#1147,.F.);
#1129 = FACE_BOUND('',#1130,.F.);
#1130 = EDGE_LOOP('',(#1131,#1132,#1140,#1146));
#1131 = ORIENTED_EDGE('',*,*,#1117,.T.);
#1132 = ORIENTED_EDGE('',*,*,#1133,.T.);
#1133 = EDGE_CURVE('',#1110,#1134,#1136,.T.);
#1134 = VERTEX_POINT('',#1135);
#1135 = CARTESIAN_POINT('',(-6.081719395023,20.362295988836,73.0791));
#1136 = LINE('',#1137,#1138);
#1137 = CARTESIAN_POINT('',(-6.091391663105,20.323918925157,73.0791));
#1138 = VECTOR('',#1139,1.);
#1139 = DIRECTION('',(0.244390135281,0.969676988372,0.));
#1140 = ORIENTED_EDGE('',*,*,#1141,.F.);
#1141 = EDGE_CURVE('',#305,#1134,#1142,.T.);
#1142 = LINE('',#1143,#1144);
#1143 = CARTESIAN_POINT('',(-6.081719395023,20.362295988836,74.0791));
#1144 = VECTOR('',#1145,1.);
#1145 = DIRECTION('',(-0.,-0.,-1.));
#1146 = ORIENTED_EDGE('',*,*,#312,.F.);
#1147 = PLANE('',#1148);
#1148 = AXIS2_PLACEMENT_3D('',#1149,#1150,#1151);
#1149 = CARTESIAN_POINT('',(-6.091391663105,20.323918925157,74.0791));
#1150 = DIRECTION('',(0.969676988372,-0.244390135281,0.));
#1151 = DIRECTION('',(0.244390135281,0.969676988372,0.));
#1152 = ADVANCED_FACE('',(#1153),#1171,.F.);
#1153 = FACE_BOUND('',#1154,.F.);
#1154 = EDGE_LOOP('',(#1155,#1156,#1164,#1170));
#1155 = ORIENTED_EDGE('',*,*,#1141,.T.);
#1156 = ORIENTED_EDGE('',*,*,#1157,.T.);
#1157 = EDGE_CURVE('',#1134,#1158,#1160,.T.);
#1158 = VERTEX_POINT('',#1159);
#1159 = CARTESIAN_POINT('',(-6.51728346735,21.2249999,73.0791));
#1160 = LINE('',#1161,#1162);
#1161 = CARTESIAN_POINT('',(-6.081719395023,20.362295988836,73.0791));
#1162 = VECTOR('',#1163,1.);
#1163 = DIRECTION('',(-0.450696964698,0.892677011025,0.));
#1164 = ORIENTED_EDGE('',*,*,#1165,.F.);
#1165 = EDGE_CURVE('',#297,#1158,#1166,.T.);
#1166 = LINE('',#1167,#1168);
#1167 = CARTESIAN_POINT('',(-6.51728346735,21.2249999,74.0791));
#1168 = VECTOR('',#1169,1.);
#1169 = DIRECTION('',(-0.,-0.,-1.));
#1170 = ORIENTED_EDGE('',*,*,#304,.F.);
#1171 = PLANE('',#1172);
#1172 = AXIS2_PLACEMENT_3D('',#1173,#1174,#1175);
#1173 = CARTESIAN_POINT('',(-6.081719395023,20.362295988836,74.0791));
#1174 = DIRECTION('',(0.892677011025,0.450696964698,-0.));
#1175 = DIRECTION('',(-0.450696964698,0.892677011025,0.));
#1176 = ADVANCED_FACE('',(#1177),#1195,.F.);
#1177 = FACE_BOUND('',#1178,.F.);
#1178 = EDGE_LOOP('',(#1179,#1180,#1188,#1194));
#1179 = ORIENTED_EDGE('',*,*,#1165,.T.);
#1180 = ORIENTED_EDGE('',*,*,#1181,.T.);
#1181 = EDGE_CURVE('',#1158,#1182,#1184,.T.);
#1182 = VERTEX_POINT('',#1183);
#1183 = CARTESIAN_POINT('',(-6.584365326627,21.2249999,73.0791));
#1184 = LINE('',#1185,#1186);
#1185 = CARTESIAN_POINT('',(-6.51728346735,21.2249999,73.0791));
#1186 = VECTOR('',#1187,1.);
#1187 = DIRECTION('',(-1.,2.22044604925E-16,0.));
#1188 = ORIENTED_EDGE('',*,*,#1189,.F.);
#1189 = EDGE_CURVE('',#288,#1182,#1190,.T.);
#1190 = LINE('',#1191,#1192);
#1191 = CARTESIAN_POINT('',(-6.584365326627,21.2249999,74.0791));
#1192 = VECTOR('',#1193,1.);
#1193 = DIRECTION('',(-0.,-0.,-1.));
#1194 = ORIENTED_EDGE('',*,*,#296,.F.);
#1195 = PLANE('',#1196);
#1196 = AXIS2_PLACEMENT_3D('',#1197,#1198,#1199);
#1197 = CARTESIAN_POINT('',(-6.51728346735,21.2249999,74.0791));
#1198 = DIRECTION('',(2.22044604925E-16,1.,-0.));
#1199 = DIRECTION('',(-1.,2.22044604925E-16,0.));
#1200 = ADVANCED_FACE('',(#1201),#1220,.F.);
#1201 = FACE_BOUND('',#1202,.F.);
#1202 = EDGE_LOOP('',(#1203,#1204,#1213,#1219));
#1203 = ORIENTED_EDGE('',*,*,#1189,.T.);
#1204 = ORIENTED_EDGE('',*,*,#1205,.T.);
#1205 = EDGE_CURVE('',#1182,#1206,#1208,.T.);
#1206 = VERTEX_POINT('',#1207);
#1207 = CARTESIAN_POINT('',(-6.479062407995,20.879918335535,73.0791));
#1208 = B_SPLINE_CURVE_WITH_KNOTS('',3,(#1209,#1210,#1211,#1212),
  .UNSPECIFIED.,.F.,.F.,(4,4),(0.,1.),.PIECEWISE_BEZIER_KNOTS.);
#1209 = CARTESIAN_POINT('',(-6.584365326627,21.2249999,73.0791));
#1210 = CARTESIAN_POINT('',(-6.512603337633,21.038106719969,73.0791));
#1211 = CARTESIAN_POINT('',(-6.479062407995,20.922975528931,73.0791));
#1212 = CARTESIAN_POINT('',(-6.479062407995,20.879918335535,73.0791));
#1213 = ORIENTED_EDGE('',*,*,#1214,.F.);
#1214 = EDGE_CURVE('',#279,#1206,#1215,.T.);
#1215 = LINE('',#1216,#1217);
#1216 = CARTESIAN_POINT('',(-6.479062407995,20.879918335535,74.0791));
#1217 = VECTOR('',#1218,1.);
#1218 = DIRECTION('',(-0.,-0.,-1.));
#1219 = ORIENTED_EDGE('',*,*,#287,.F.);
#1220 = SURFACE_OF_LINEAR_EXTRUSION('',#1221,#1226);
#1221 = B_SPLINE_CURVE_WITH_KNOTS('',3,(#1222,#1223,#1224,#1225),
  .UNSPECIFIED.,.F.,.F.,(4,4),(0.,1.),.PIECEWISE_BEZIER_KNOTS.);
#1222 = CARTESIAN_POINT('',(-6.584365326627,21.2249999,74.0791));
#1223 = CARTESIAN_POINT('',(-6.512603337633,21.038106719969,74.0791));
#1224 = CARTESIAN_POINT('',(-6.479062407995,20.922975528931,74.0791));
#1225 = CARTESIAN_POINT('',(-6.479062407995,20.879918335535,74.0791));
#1226 = VECTOR('',#1227,1.);
#1227 = DIRECTION('',(0.,0.,1.));
#1228 = ADVANCED_FACE('',(#1229),#1248,.F.);
#1229 = FACE_BOUND('',#1230,.F.);
#1230 = EDGE_LOOP('',(#1231,#1232,#1241,#1247));
#1231 = ORIENTED_EDGE('',*,*,#1214,.T.);
#1232 = ORIENTED_EDGE('',*,*,#1233,.T.);
#1233 = EDGE_CURVE('',#1206,#1234,#1236,.T.);
#1234 = VERTEX_POINT('',#1235);
#1235 = CARTESIAN_POINT('',(-6.704020643058,20.736082348899,73.0791));
#1236 = B_SPLINE_CURVE_WITH_KNOTS('',3,(#1237,#1238,#1239,#1240),
  .UNSPECIFIED.,.F.,.F.,(4,4),(0.,1.),.PIECEWISE_BEZIER_KNOTS.);
#1237 = CARTESIAN_POINT('',(-6.479062407995,20.879918335535,73.0791));
#1238 = CARTESIAN_POINT('',(-6.479062407995,20.77929554662,73.0791));
#1239 = CARTESIAN_POINT('',(-6.550824396988,20.736082348899,73.0791));
#1240 = CARTESIAN_POINT('',(-6.704020643058,20.736082348899,73.0791));
#1241 = ORIENTED_EDGE('',*,*,#1242,.F.);
#1242 = EDGE_CURVE('',#271,#1234,#1243,.T.);
#1243 = LINE('',#1244,#1245);
#1244 = CARTESIAN_POINT('',(-6.704020643058,20.736082348899,74.0791));
#1245 = VECTOR('',#1246,1.);
#1246 = DIRECTION('',(-0.,-0.,-1.));
#1247 = ORIENTED_EDGE('',*,*,#278,.F.);
#1248 = SURFACE_OF_LINEAR_EXTRUSION('',#1249,#1254);
#1249 = B_SPLINE_CURVE_WITH_KNOTS('',3,(#1250,#1251,#1252,#1253),
  .UNSPECIFIED.,.F.,.F.,(4,4),(0.,1.),.PIECEWISE_BEZIER_KNOTS.);
#1250 = CARTESIAN_POINT('',(-6.479062407995,20.879918335535,74.0791));
#1251 = CARTESIAN_POINT('',(-6.479062407995,20.77929554662,74.0791));
#1252 = CARTESIAN_POINT('',(-6.550824396988,20.736082348899,74.0791));
#1253 = CARTESIAN_POINT('',(-6.704020643058,20.736082348899,74.0791));
#1254 = VECTOR('',#1255,1.);
#1255 = DIRECTION('',(0.,0.,1.));
#1256 = ADVANCED_FACE('',(#1257),#1275,.F.);
#1257 = FACE_BOUND('',#1258,.F.);
#1258 = EDGE_LOOP('',(#1259,#1260,#1268,#1274));
#1259 = ORIENTED_EDGE('',*,*,#1242,.T.);
#1260 = ORIENTED_EDGE('',*,*,#1261,.T.);
#1261 = EDGE_CURVE('',#1234,#1262,#1264,.T.);
#1262 = VERTEX_POINT('',#1263);
#1263 = CARTESIAN_POINT('',(-8.871544719315,20.736082348899,73.0791));
#1264 = LINE('',#1265,#1266);
#1265 = CARTESIAN_POINT('',(-6.704020643058,20.736082348899,73.0791));
#1266 = VECTOR('',#1267,1.);
#1267 = DIRECTION('',(-1.,2.22044604925E-16,0.));
#1268 = ORIENTED_EDGE('',*,*,#1269,.F.);
#1269 = EDGE_CURVE('',#262,#1262,#1270,.T.);
#1270 = LINE('',#1271,#1272);
#1271 = CARTESIAN_POINT('',(-8.871544719315,20.736082348899,74.0791));
#1272 = VECTOR('',#1273,1.);
#1273 = DIRECTION('',(-0.,-0.,-1.));
#1274 = ORIENTED_EDGE('',*,*,#270,.F.);
#1275 = PLANE('',#1276);
#1276 = AXIS2_PLACEMENT_3D('',#1277,#1278,#1279);
#1277 = CARTESIAN_POINT('',(-6.704020643058,20.736082348899,74.0791));
#1278 = DIRECTION('',(2.22044604925E-16,1.,-0.));
#1279 = DIRECTION('',(-1.,2.22044604925E-16,0.));
#1280 = ADVANCED_FACE('',(#1281),#1300,.F.);
#1281 = FACE_BOUND('',#1282,.F.);
#1282 = EDGE_LOOP('',(#1283,#1284,#1293,#1299));
#1283 = ORIENTED_EDGE('',*,*,#1269,.T.);
#1284 = ORIENTED_EDGE('',*,*,#1285,.T.);
#1285 = EDGE_CURVE('',#1262,#1286,#1288,.T.);
#1286 = VERTEX_POINT('',#1287);
#1287 = CARTESIAN_POINT('',(-9.244863066407,21.191458970362,73.0791));
#1288 = B_SPLINE_CURVE_WITH_KNOTS('',3,(#1289,#1290,#1291,#1292),
  .UNSPECIFIED.,.F.,.F.,(4,4),(0.,1.),.PIECEWISE_BEZIER_KNOTS.);
#1289 = CARTESIAN_POINT('',(-8.871544719315,20.736082348899,73.0791));
#1290 = CARTESIAN_POINT('',(-9.172945073089,20.745754616981,73.0791));
#1291 = CARTESIAN_POINT('',(-9.240026932366,20.827188874057,73.0791));
#1292 = CARTESIAN_POINT('',(-9.244863066407,21.191458970362,73.0791));
#1293 = ORIENTED_EDGE('',*,*,#1294,.F.);
#1294 = EDGE_CURVE('',#254,#1286,#1295,.T.);
#1295 = LINE('',#1296,#1297);
#1296 = CARTESIAN_POINT('',(-9.244863066407,21.191458970362,74.0791));
#1297 = VECTOR('',#1298,1.);
#1298 = DIRECTION('',(-0.,-0.,-1.));
#1299 = ORIENTED_EDGE('',*,*,#261,.F.);
#1300 = SURFACE_OF_LINEAR_EXTRUSION('',#1301,#1306);
#1301 = B_SPLINE_CURVE_WITH_KNOTS('',3,(#1302,#1303,#1304,#1305),
  .UNSPECIFIED.,.F.,.F.,(4,4),(0.,1.),.PIECEWISE_BEZIER_KNOTS.);
#1302 = CARTESIAN_POINT('',(-8.871544719315,20.736082348899,74.0791));
#1303 = CARTESIAN_POINT('',(-9.172945073089,20.745754616981,74.0791));
#1304 = CARTESIAN_POINT('',(-9.240026932366,20.827188874057,74.0791));
#1305 = CARTESIAN_POINT('',(-9.244863066407,21.191458970362,74.0791));
#1306 = VECTOR('',#1307,1.);
#1307 = DIRECTION('',(0.,0.,1.));
#1308 = ADVANCED_FACE('',(#1309),#1320,.F.);
#1309 = FACE_BOUND('',#1310,.F.);
#1310 = EDGE_LOOP('',(#1311,#1312,#1318,#1319));
#1311 = ORIENTED_EDGE('',*,*,#1294,.T.);
#1312 = ORIENTED_EDGE('',*,*,#1313,.T.);
#1313 = EDGE_CURVE('',#1286,#1026,#1314,.T.);
#1314 = LINE('',#1315,#1316);
#1315 = CARTESIAN_POINT('',(-9.244863066407,21.191458970362,73.0791));
#1316 = VECTOR('',#1317,1.);
#1317 = DIRECTION('',(-1.,2.22044604925E-16,0.));
#1318 = ORIENTED_EDGE('',*,*,#1025,.F.);
#1319 = ORIENTED_EDGE('',*,*,#253,.F.);
#1320 = PLANE('',#1321);
#1321 = AXIS2_PLACEMENT_3D('',#1322,#1323,#1324);
#1322 = CARTESIAN_POINT('',(-9.244863066407,21.191458970362,74.0791));
#1323 = DIRECTION('',(2.22044604925E-16,1.,-0.));
#1324 = DIRECTION('',(-1.,2.22044604925E-16,0.));
#1325 = ADVANCED_FACE('',(#1326),#1377,.T.);
#1326 = FACE_BOUND('',#1327,.F.);
#1327 = EDGE_LOOP('',(#1328,#1338,#1345,#1346,#1355,#1368,#1369,#1370));
#1328 = ORIENTED_EDGE('',*,*,#1329,.T.);
#1329 = EDGE_CURVE('',#1330,#1332,#1334,.T.);
#1330 = VERTEX_POINT('',#1331);
#1331 = CARTESIAN_POINT('',(-13.4916250554,7.9375,67.437));
#1332 = VERTEX_POINT('',#1333);
#1333 = CARTESIAN_POINT('',(-15.3966250554,7.9375,67.437));
#1334 = LINE('',#1335,#1336);
#1335 = CARTESIAN_POINT('',(-10.3166250554,7.9375,67.437));
#1336 = VECTOR('',#1337,1.);
#1337 = DIRECTION('',(-1.,0.,0.));
#1338 = ORIENTED_EDGE('',*,*,#1339,.T.);
#1339 = EDGE_CURVE('',#1332,#1332,#1340,.T.);
#1340 = CIRCLE('',#1341,4.7625);
#1341 = AXIS2_PLACEMENT_3D('',#1342,#1343,#1344);
#1342 = CARTESIAN_POINT('',(-15.3966250554,12.7,67.437));
#1343 = DIRECTION('',(-1.,0.,0.));
#1344 = DIRECTION('',(0.,-1.,0.));
#1345 = ORIENTED_EDGE('',*,*,#1329,.F.);
#1346 = ORIENTED_EDGE('',*,*,#1347,.F.);
#1347 = EDGE_CURVE('',#1348,#1330,#1350,.T.);
#1348 = VERTEX_POINT('',#1349);
#1349 = CARTESIAN_POINT('',(-13.4916250554,10.092489888342,63.45174));
#1350 = CIRCLE('',#1351,4.7625);
#1351 = AXIS2_PLACEMENT_3D('',#1352,#1353,#1354);
#1352 = CARTESIAN_POINT('',(-13.4916250554,12.7,67.437));
#1353 = DIRECTION('',(-1.,0.,0.));
#1354 = DIRECTION('',(0.,-1.,0.));
#1355 = ORIENTED_EDGE('',*,*,#1356,.F.);
#1356 = EDGE_CURVE('',#361,#1348,#1357,.T.);
#1357 = ( BOUNDED_CURVE() B_SPLINE_CURVE(9,(#1358,#1359,#1360,#1361,
    #1362,#1363,#1364,#1365,#1366,#1367),.UNSPECIFIED.,.F.,.F.) 
B_SPLINE_CURVE_WITH_KNOTS((10,10),(19.683435575928,25.202069462236),
.PIECEWISE_BEZIER_KNOTS.) CURVE() GEOMETRIC_REPRESENTATION_ITEM() 
RATIONAL_B_SPLINE_CURVE((1.,1.,1.,1.,1.,1.,1.,1.,1.,1.)) 
REPRESENTATION_ITEM('') );
#1358 = CARTESIAN_POINT('',(-13.4916250554,15.307510111658,63.45174));
#1359 = CARTESIAN_POINT('',(-13.4916250554,14.79440017807,
    63.116018029483));
#1360 = CARTESIAN_POINT('',(-13.33437766774,14.232661241338,
    62.854617252418));
#1361 = CARTESIAN_POINT('',(-13.23193335874,13.63459808314,
    62.675589351136));
#1362 = CARTESIAN_POINT('',(-13.14830918578,13.014068212724,
    62.584606120539));
#1363 = CARTESIAN_POINT('',(-13.14830918578,12.385931787276,
    62.584606120538));
#1364 = CARTESIAN_POINT('',(-13.23193335874,11.76540191686,
    62.675589351137));
#1365 = CARTESIAN_POINT('',(-13.33437766774,11.167338758662,
    62.854617252418));
#1366 = CARTESIAN_POINT('',(-13.4916250554,10.60559982193,
    63.116018029483));
#1367 = CARTESIAN_POINT('',(-13.4916250554,10.092489888342,63.45174));
#1368 = ORIENTED_EDGE('',*,*,#369,.F.);
#1369 = ORIENTED_EDGE('',*,*,#490,.F.);
#1370 = ORIENTED_EDGE('',*,*,#1371,.F.);
#1371 = EDGE_CURVE('',#1330,#480,#1372,.T.);
#1372 = CIRCLE('',#1373,4.7625);
#1373 = AXIS2_PLACEMENT_3D('',#1374,#1375,#1376);
#1374 = CARTESIAN_POINT('',(-13.4916250554,12.7,67.437));
#1375 = DIRECTION('',(-1.,0.,0.));
#1376 = DIRECTION('',(0.,-1.,0.));
#1377 = CYLINDRICAL_SURFACE('',#1378,4.7625);
#1378 = AXIS2_PLACEMENT_3D('',#1379,#1380,#1381);
#1379 = CARTESIAN_POINT('',(-10.3166250554,12.7,67.437));
#1380 = DIRECTION('',(1.,0.,0.));
#1381 = DIRECTION('',(0.,-1.,0.));
#1382 = ADVANCED_FACE('',(#1383),#1394,.T.);
#1383 = FACE_BOUND('',#1384,.T.);
#1384 = EDGE_LOOP('',(#1385,#1386,#1387,#1393));
#1385 = ORIENTED_EDGE('',*,*,#360,.F.);
#1386 = ORIENTED_EDGE('',*,*,#410,.T.);
#1387 = ORIENTED_EDGE('',*,*,#1388,.T.);
#1388 = EDGE_CURVE('',#411,#1348,#1389,.T.);
#1389 = ( BOUNDED_CURVE() B_SPLINE_CURVE(2,(#1390,#1391,#1392),
.UNSPECIFIED.,.F.,.F.) B_SPLINE_CURVE_WITH_KNOTS((3,3),(0.,
5.518633886307),.PIECEWISE_BEZIER_KNOTS.) CURVE() 
GEOMETRIC_REPRESENTATION_ITEM() RATIONAL_B_SPLINE_CURVE((1.,
0.707106781187,1.)) REPRESENTATION_ITEM('') );
#1390 = CARTESIAN_POINT('',(-10.3166250554,8.354149813903,60.7949));
#1391 = CARTESIAN_POINT('',(-10.3166250554,10.092489888342,63.45174));
#1392 = CARTESIAN_POINT('',(-13.4916250554,10.092489888342,63.45174));
#1393 = ORIENTED_EDGE('',*,*,#1356,.F.);
#1394 = ( BOUNDED_SURFACE() B_SPLINE_SURFACE(2,9,(
    (#1395,#1396,#1397,#1398,#1399,#1400,#1401,#1402,#1403,#1404)
    ,(#1405,#1406,#1407,#1408,#1409,#1410,#1411,#1412,#1413,#1414)
    ,(#1415,#1416,#1417,#1418,#1419,#1420,#1421,#1422,#1423,#1424
)),.UNSPECIFIED.,.F.,.F.,.F.) B_SPLINE_SURFACE_WITH_KNOTS((3,3),(10,10),
  (0.,5.518633886307),(19.683435575928,25.202069462236),
.PIECEWISE_BEZIER_KNOTS.) GEOMETRIC_REPRESENTATION_ITEM() 
RATIONAL_B_SPLINE_SURFACE((
    (1.,1.,1.,1.,1.,1.,1.,1.,1.,1.)
    ,(0.707106781187,0.78156593879,0.816769243619,0.840716920674
      ,0.849446816312,0.849446816312,0.840716920674,0.816769243619
      ,0.78156593879,0.707106781187)
,(1.,1.,1.,1.,1.,1.,1.,1.,1.,1.))) REPRESENTATION_ITEM('') SURFACE() );
#1395 = CARTESIAN_POINT('',(-13.4916250554,15.307510111658,63.45174));
#1396 = CARTESIAN_POINT('',(-13.4916250554,14.79440017807,
    63.116018029483));
#1397 = CARTESIAN_POINT('',(-13.33437766774,14.232661241338,
    62.854617252418));
#1398 = CARTESIAN_POINT('',(-13.23193335874,13.63459808314,
    62.675589351136));
#1399 = CARTESIAN_POINT('',(-13.14830918578,13.014068212724,
    62.584606120539));
#1400 = CARTESIAN_POINT('',(-13.14830918578,12.385931787276,
    62.584606120538));
#1401 = CARTESIAN_POINT('',(-13.23193335874,11.76540191686,
    62.675589351137));
#1402 = CARTESIAN_POINT('',(-13.33437766774,11.167338758662,
    62.854617252418));
#1403 = CARTESIAN_POINT('',(-13.4916250554,10.60559982193,
    63.116018029483));
#1404 = CARTESIAN_POINT('',(-13.4916250554,10.092489888342,63.45174));
#1405 = CARTESIAN_POINT('',(-10.3166250554,15.307510111658,63.45174));
#1406 = CARTESIAN_POINT('',(-10.92158444182,14.843283748243,
    63.148001991262));
#1407 = CARTESIAN_POINT('',(-11.09967024947,14.271551703434,
    62.866270536892));
#1408 = CARTESIAN_POINT('',(-11.17170866208,13.670351397549,
    62.682219904855));
#1409 = CARTESIAN_POINT('',(-11.18324954881,13.017011790132,
    62.580453532569));
#1410 = CARTESIAN_POINT('',(-11.18324954881,12.382988209868,
    62.580453532568));
#1411 = CARTESIAN_POINT('',(-11.17170866208,11.729648602451,
    62.682219904855));
#1412 = CARTESIAN_POINT('',(-11.09967024947,11.128448296565,
    62.866270536892));
#1413 = CARTESIAN_POINT('',(-10.92158444182,10.556716251757,
    63.148001991262));
#1414 = CARTESIAN_POINT('',(-10.3166250554,10.092489888342,63.45174));
#1415 = CARTESIAN_POINT('',(-10.3166250554,17.045850186097,60.7949));
#1416 = CARTESIAN_POINT('',(-10.3166250554,15.824568543762,60.7949));
#1417 = CARTESIAN_POINT('',(-10.3166250554,14.834740454397,60.7949));
#1418 = CARTESIAN_POINT('',(-10.3166250554,13.942893625486,60.7949));
#1419 = CARTESIAN_POINT('',(-10.3166250554,13.110712466579,60.7949));
#1420 = CARTESIAN_POINT('',(-10.3166250554,12.289287533421,60.7949));
#1421 = CARTESIAN_POINT('',(-10.3166250554,11.457106374514,60.7949));
#1422 = CARTESIAN_POINT('',(-10.3166250554,10.565259545603,60.7949));
#1423 = CARTESIAN_POINT('',(-10.3166250554,9.575431456238,60.7949));
#1424 = CARTESIAN_POINT('',(-10.3166250554,8.354149813903,60.7949));
#1425 = ADVANCED_FACE('',(#1426),#1459,.T.);
#1426 = FACE_BOUND('',#1427,.T.);
#1427 = EDGE_LOOP('',(#1428,#1437,#1438,#1446));
#1428 = ORIENTED_EDGE('',*,*,#1429,.F.);
#1429 = EDGE_CURVE('',#426,#1430,#1432,.T.);
#1430 = VERTEX_POINT('',#1431);
#1431 = CARTESIAN_POINT('',(-13.4916250554,-10.09248988834,63.45174));
#1432 = CIRCLE('',#1433,3.175);
#1433 = AXIS2_PLACEMENT_3D('',#1434,#1435,#1436);
#1434 = CARTESIAN_POINT('',(-13.4916250554,-8.354149813903,60.7949));
#1435 = DIRECTION('',(0.,-0.8368,-0.547508684863));
#1436 = DIRECTION('',(0.,0.547508684863,-0.8368));
#1437 = ORIENTED_EDGE('',*,*,#433,.T.);
#1438 = ORIENTED_EDGE('',*,*,#1439,.T.);
#1439 = EDGE_CURVE('',#434,#1440,#1442,.T.);
#1440 = VERTEX_POINT('',#1441);
#1441 = CARTESIAN_POINT('',(-13.4916250554,-15.30751011165,63.45174));
#1442 = ( BOUNDED_CURVE() B_SPLINE_CURVE(2,(#1443,#1444,#1445),
.UNSPECIFIED.,.F.,.F.) B_SPLINE_CURVE_WITH_KNOTS((3,3),(0.,
5.518633886307),.PIECEWISE_BEZIER_KNOTS.) CURVE() 
GEOMETRIC_REPRESENTATION_ITEM() RATIONAL_B_SPLINE_CURVE((1.,
0.707106781187,1.)) REPRESENTATION_ITEM('') );
#1443 = CARTESIAN_POINT('',(-10.3166250554,-17.04585018609,60.7949));
#1444 = CARTESIAN_POINT('',(-10.3166250554,-15.30751011165,63.45174));
#1445 = CARTESIAN_POINT('',(-13.4916250554,-15.30751011165,63.45174));
#1446 = ORIENTED_EDGE('',*,*,#1447,.F.);
#1447 = EDGE_CURVE('',#1430,#1440,#1448,.T.);
#1448 = ( BOUNDED_CURVE() B_SPLINE_CURVE(9,(#1449,#1450,#1451,#1452,
    #1453,#1454,#1455,#1456,#1457,#1458),.UNSPECIFIED.,.F.,.F.) 
B_SPLINE_CURVE_WITH_KNOTS((10,10),(19.683435575928,25.202069462236),
.PIECEWISE_BEZIER_KNOTS.) CURVE() GEOMETRIC_REPRESENTATION_ITEM() 
RATIONAL_B_SPLINE_CURVE((1.,1.,1.,1.,1.,1.,1.,1.,1.,1.)) 
REPRESENTATION_ITEM('') );
#1449 = CARTESIAN_POINT('',(-13.4916250554,-10.09248988834,63.45174));
#1450 = CARTESIAN_POINT('',(-13.4916250554,-10.60559982192,
    63.116018029483));
#1451 = CARTESIAN_POINT('',(-13.33437766774,-11.16733875866,
    62.854617252418));
#1452 = CARTESIAN_POINT('',(-13.23193335874,-11.76540191686,
    62.675589351136));
#1453 = CARTESIAN_POINT('',(-13.14830918578,-12.38593178727,
    62.584606120538));
#1454 = CARTESIAN_POINT('',(-13.14830918578,-13.01406821272,
    62.584606120538));
#1455 = CARTESIAN_POINT('',(-13.23193335874,-13.63459808314,
    62.675589351137));
#1456 = CARTESIAN_POINT('',(-13.33437766774,-14.23266124133,
    62.854617252418));
#1457 = CARTESIAN_POINT('',(-13.4916250554,-14.79440017807,
    63.116018029483));
#1458 = CARTESIAN_POINT('',(-13.4916250554,-15.30751011165,63.45174));
#1459 = ( BOUNDED_SURFACE() B_SPLINE_SURFACE(2,9,(
    (#1460,#1461,#1462,#1463,#1464,#1465,#1466,#1467,#1468,#1469)
    ,(#1470,#1471,#1472,#1473,#1474,#1475,#1476,#1477,#1478,#1479)
    ,(#1480,#1481,#1482,#1483,#1484,#1485,#1486,#1487,#1488,#1489
)),.UNSPECIFIED.,.F.,.F.,.F.) B_SPLINE_SURFACE_WITH_KNOTS((3,3),(10,10),
  (0.,5.518633886307),(19.683435575928,25.202069462236),
.PIECEWISE_BEZIER_KNOTS.) GEOMETRIC_REPRESENTATION_ITEM() 
RATIONAL_B_SPLINE_SURFACE((
    (1.,1.,1.,1.,1.,1.,1.,1.,1.,1.)
    ,(0.707106781187,0.78156593879,0.816769243619,0.840716920674
      ,0.849446816312,0.849446816312,0.840716920674,0.816769243619
      ,0.78156593879,0.707106781187)
,(1.,1.,1.,1.,1.,1.,1.,1.,1.,1.))) REPRESENTATION_ITEM('') SURFACE() );
#1460 = CARTESIAN_POINT('',(-13.4916250554,-10.09248988834,63.45174));
#1461 = CARTESIAN_POINT('',(-13.4916250554,-10.60559982192,
    63.116018029483));
#1462 = CARTESIAN_POINT('',(-13.33437766774,-11.16733875866,
    62.854617252418));
#1463 = CARTESIAN_POINT('',(-13.23193335874,-11.76540191686,
    62.675589351136));
#1464 = CARTESIAN_POINT('',(-13.14830918578,-12.38593178727,
    62.584606120538));
#1465 = CARTESIAN_POINT('',(-13.14830918578,-13.01406821272,
    62.584606120538));
#1466 = CARTESIAN_POINT('',(-13.23193335874,-13.63459808314,
    62.675589351137));
#1467 = CARTESIAN_POINT('',(-13.33437766774,-14.23266124133,
    62.854617252418));
#1468 = CARTESIAN_POINT('',(-13.4916250554,-14.79440017807,
    63.116018029483));
#1469 = CARTESIAN_POINT('',(-13.4916250554,-15.30751011165,63.45174));
#1470 = CARTESIAN_POINT('',(-10.3166250554,-10.09248988834,63.45174));
#1471 = CARTESIAN_POINT('',(-10.92158444182,-10.55671625175,
    63.148001991262));
#1472 = CARTESIAN_POINT('',(-11.09967024947,-11.12844829656,
    62.866270536892));
#1473 = CARTESIAN_POINT('',(-11.17170866208,-11.72964860245,
    62.682219904855));
#1474 = CARTESIAN_POINT('',(-11.18324954881,-12.38298820986,
    62.580453532569));
#1475 = CARTESIAN_POINT('',(-11.18324954881,-13.01701179013,
    62.580453532568));
#1476 = CARTESIAN_POINT('',(-11.17170866208,-13.67035139754,
    62.682219904855));
#1477 = CARTESIAN_POINT('',(-11.09967024947,-14.27155170343,
    62.866270536892));
#1478 = CARTESIAN_POINT('',(-10.92158444182,-14.84328374824,
    63.148001991262));
#1479 = CARTESIAN_POINT('',(-10.3166250554,-15.30751011165,63.45174));
#1480 = CARTESIAN_POINT('',(-10.3166250554,-8.354149813903,60.7949));
#1481 = CARTESIAN_POINT('',(-10.3166250554,-9.575431456238,60.7949));
#1482 = CARTESIAN_POINT('',(-10.3166250554,-10.5652595456,60.7949));
#1483 = CARTESIAN_POINT('',(-10.3166250554,-11.45710637451,60.7949));
#1484 = CARTESIAN_POINT('',(-10.3166250554,-12.28928753342,60.7949));
#1485 = CARTESIAN_POINT('',(-10.3166250554,-13.11071246657,60.7949));
#1486 = CARTESIAN_POINT('',(-10.3166250554,-13.94289362548,60.7949));
#1487 = CARTESIAN_POINT('',(-10.3166250554,-14.83474045439,60.7949));
#1488 = CARTESIAN_POINT('',(-10.3166250554,-15.82456854376,60.7949));
#1489 = CARTESIAN_POINT('',(-10.3166250554,-17.04585018609,60.7949));
#1490 = ADVANCED_FACE('',(#1491),#1503,.F.);
#1491 = FACE_BOUND('',#1492,.T.);
#1492 = EDGE_LOOP('',(#1493,#1500,#1501,#1502));
#1493 = ORIENTED_EDGE('',*,*,#1494,.F.);
#1494 = EDGE_CURVE('',#547,#1330,#1495,.T.);
#1495 = CIRCLE('',#1496,3.175);
#1496 = AXIS2_PLACEMENT_3D('',#1497,#1498,#1499);
#1497 = CARTESIAN_POINT('',(-13.4916250554,4.7625,67.437));
#1498 = DIRECTION('',(-0.,0.,1.));
#1499 = DIRECTION('',(0.,-1.,0.));
#1500 = ORIENTED_EDGE('',*,*,#555,.T.);
#1501 = ORIENTED_EDGE('',*,*,#479,.T.);
#1502 = ORIENTED_EDGE('',*,*,#1371,.F.);
#1503 = TOROIDAL_SURFACE('',#1504,7.9375,3.175);
#1504 = AXIS2_PLACEMENT_3D('',#1505,#1506,#1507);
#1505 = CARTESIAN_POINT('',(-13.4916250554,12.7,67.437));
#1506 = DIRECTION('',(1.,0.,0.));
#1507 = DIRECTION('',(0.,-1.,0.));
#1508 = ADVANCED_FACE('',(#1509),#1521,.F.);
#1509 = FACE_BOUND('',#1510,.T.);
#1510 = EDGE_LOOP('',(#1511,#1512,#1513,#1514));
#1511 = ORIENTED_EDGE('',*,*,#598,.F.);
#1512 = ORIENTED_EDGE('',*,*,#538,.T.);
#1513 = ORIENTED_EDGE('',*,*,#1429,.T.);
#1514 = ORIENTED_EDGE('',*,*,#1515,.F.);
#1515 = EDGE_CURVE('',#599,#1430,#1516,.T.);
#1516 = CIRCLE('',#1517,4.7625);
#1517 = AXIS2_PLACEMENT_3D('',#1518,#1519,#1520);
#1518 = CARTESIAN_POINT('',(-13.4916250554,-12.7,67.437));
#1519 = DIRECTION('',(-1.,-0.,0.));
#1520 = DIRECTION('',(0.,-1.,-2.98390650188E-15));
#1521 = TOROIDAL_SURFACE('',#1522,7.9375,3.175);
#1522 = AXIS2_PLACEMENT_3D('',#1523,#1524,#1525);
#1523 = CARTESIAN_POINT('',(-13.4916250554,-12.7,67.437));
#1524 = DIRECTION('',(1.,0.,0.));
#1525 = DIRECTION('',(0.,-1.,-2.98390650188E-15));
#1526 = ADVANCED_FACE('',(#1527),#1533,.F.);
#1527 = FACE_BOUND('',#1528,.T.);
#1528 = EDGE_LOOP('',(#1529,#1530,#1531,#1532));
#1529 = ORIENTED_EDGE('',*,*,#1388,.F.);
#1530 = ORIENTED_EDGE('',*,*,#546,.T.);
#1531 = ORIENTED_EDGE('',*,*,#1494,.T.);
#1532 = ORIENTED_EDGE('',*,*,#1347,.F.);
#1533 = TOROIDAL_SURFACE('',#1534,7.9375,3.175);
#1534 = AXIS2_PLACEMENT_3D('',#1535,#1536,#1537);
#1535 = CARTESIAN_POINT('',(-13.4916250554,12.7,67.437));
#1536 = DIRECTION('',(1.,0.,0.));
#1537 = DIRECTION('',(0.,-1.,0.));
#1538 = ADVANCED_FACE('',(#1539),#1559,.F.);
#1539 = FACE_BOUND('',#1540,.T.);
#1540 = EDGE_LOOP('',(#1541,#1550,#1551,#1552));
#1541 = ORIENTED_EDGE('',*,*,#1542,.F.);
#1542 = EDGE_CURVE('',#674,#1543,#1545,.T.);
#1543 = VERTEX_POINT('',#1544);
#1544 = CARTESIAN_POINT('',(-13.4916250554,-17.4625,67.437));
#1545 = CIRCLE('',#1546,3.175);
#1546 = AXIS2_PLACEMENT_3D('',#1547,#1548,#1549);
#1547 = CARTESIAN_POINT('',(-13.4916250554,-20.6375,67.437));
#1548 = DIRECTION('',(0.,-2.98390650188E-15,1.));
#1549 = DIRECTION('',(0.,-1.,-2.98390650188E-15));
#1550 = ORIENTED_EDGE('',*,*,#682,.T.);
#1551 = ORIENTED_EDGE('',*,*,#588,.T.);
#1552 = ORIENTED_EDGE('',*,*,#1553,.F.);
#1553 = EDGE_CURVE('',#1543,#589,#1554,.T.);
#1554 = CIRCLE('',#1555,4.7625);
#1555 = AXIS2_PLACEMENT_3D('',#1556,#1557,#1558);
#1556 = CARTESIAN_POINT('',(-13.4916250554,-12.7,67.437));
#1557 = DIRECTION('',(-1.,-0.,0.));
#1558 = DIRECTION('',(0.,-1.,-2.98390650188E-15));
#1559 = TOROIDAL_SURFACE('',#1560,7.9375,3.175);
#1560 = AXIS2_PLACEMENT_3D('',#1561,#1562,#1563);
#1561 = CARTESIAN_POINT('',(-13.4916250554,-12.7,67.437));
#1562 = DIRECTION('',(1.,0.,0.));
#1563 = DIRECTION('',(0.,-1.,-2.98390650188E-15));
#1564 = ADVANCED_FACE('',(#1565),#1594,.T.);
#1565 = FACE_BOUND('',#1566,.F.);
#1566 = EDGE_LOOP('',(#1567,#1575,#1582,#1583,#1590,#1591,#1592,#1593));
#1567 = ORIENTED_EDGE('',*,*,#1568,.T.);
#1568 = EDGE_CURVE('',#1543,#1569,#1571,.T.);
#1569 = VERTEX_POINT('',#1570);
#1570 = CARTESIAN_POINT('',(-15.3966250554,-17.4625,67.437));
#1571 = LINE('',#1572,#1573);
#1572 = CARTESIAN_POINT('',(-10.3166250554,-17.4625,67.437));
#1573 = VECTOR('',#1574,1.);
#1574 = DIRECTION('',(-1.,0.,0.));
#1575 = ORIENTED_EDGE('',*,*,#1576,.T.);
#1576 = EDGE_CURVE('',#1569,#1569,#1577,.T.);
#1577 = CIRCLE('',#1578,4.7625);
#1578 = AXIS2_PLACEMENT_3D('',#1579,#1580,#1581);
#1579 = CARTESIAN_POINT('',(-15.3966250554,-12.7,67.437));
#1580 = DIRECTION('',(-1.,0.,0.));
#1581 = DIRECTION('',(0.,-1.,0.));
#1582 = ORIENTED_EDGE('',*,*,#1568,.F.);
#1583 = ORIENTED_EDGE('',*,*,#1584,.F.);
#1584 = EDGE_CURVE('',#1440,#1543,#1585,.T.);
#1585 = CIRCLE('',#1586,4.7625);
#1586 = AXIS2_PLACEMENT_3D('',#1587,#1588,#1589);
#1587 = CARTESIAN_POINT('',(-13.4916250554,-12.7,67.437));
#1588 = DIRECTION('',(-1.,-0.,0.));
#1589 = DIRECTION('',(0.,-1.,-2.98390650188E-15));
#1590 = ORIENTED_EDGE('',*,*,#1447,.F.);
#1591 = ORIENTED_EDGE('',*,*,#1515,.F.);
#1592 = ORIENTED_EDGE('',*,*,#606,.F.);
#1593 = ORIENTED_EDGE('',*,*,#1553,.F.);
#1594 = CYLINDRICAL_SURFACE('',#1595,4.7625);
#1595 = AXIS2_PLACEMENT_3D('',#1596,#1597,#1598);
#1596 = CARTESIAN_POINT('',(-10.3166250554,-12.7,67.437));
#1597 = DIRECTION('',(1.,0.,0.));
#1598 = DIRECTION('',(0.,-1.,0.));
#1599 = ADVANCED_FACE('',(#1600),#1606,.F.);
#1600 = FACE_BOUND('',#1601,.T.);
#1601 = EDGE_LOOP('',(#1602,#1603,#1604,#1605));
#1602 = ORIENTED_EDGE('',*,*,#1439,.F.);
#1603 = ORIENTED_EDGE('',*,*,#673,.T.);
#1604 = ORIENTED_EDGE('',*,*,#1542,.T.);
#1605 = ORIENTED_EDGE('',*,*,#1584,.F.);
#1606 = TOROIDAL_SURFACE('',#1607,7.9375,3.175);
#1607 = AXIS2_PLACEMENT_3D('',#1608,#1609,#1610);
#1608 = CARTESIAN_POINT('',(-13.4916250554,-12.7,67.437));
#1609 = DIRECTION('',(1.,0.,0.));
#1610 = DIRECTION('',(0.,-1.,-2.98390650188E-15));
#1611 = ADVANCED_FACE('',(#1612),#1620,.T.);
#1612 = FACE_BOUND('',#1613,.F.);
#1613 = EDGE_LOOP('',(#1614,#1615,#1616,#1617,#1618,#1619));
#1614 = ORIENTED_EDGE('',*,*,#705,.F.);
#1615 = ORIENTED_EDGE('',*,*,#845,.F.);
#1616 = ORIENTED_EDGE('',*,*,#817,.F.);
#1617 = ORIENTED_EDGE('',*,*,#789,.F.);
#1618 = ORIENTED_EDGE('',*,*,#761,.F.);
#1619 = ORIENTED_EDGE('',*,*,#733,.F.);
#1620 = PLANE('',#1621);
#1621 = AXIS2_PLACEMENT_3D('',#1622,#1623,#1624);
#1622 = CARTESIAN_POINT('',(-6.64502879865,18.381720540899,73.0791));
#1623 = DIRECTION('',(0.,0.,1.));
#1624 = DIRECTION('',(-2.22044604925E-16,-1.,0.));
#1625 = ADVANCED_FACE('',(#1626),#1634,.T.);
#1626 = FACE_BOUND('',#1627,.F.);
#1627 = EDGE_LOOP('',(#1628,#1629,#1630,#1631,#1632,#1633));
#1628 = ORIENTED_EDGE('',*,*,#869,.F.);
#1629 = ORIENTED_EDGE('',*,*,#1009,.F.);
#1630 = ORIENTED_EDGE('',*,*,#981,.F.);
#1631 = ORIENTED_EDGE('',*,*,#953,.F.);
#1632 = ORIENTED_EDGE('',*,*,#925,.F.);
#1633 = ORIENTED_EDGE('',*,*,#897,.F.);
#1634 = PLANE('',#1635);
#1635 = AXIS2_PLACEMENT_3D('',#1636,#1637,#1638);
#1636 = CARTESIAN_POINT('',(-6.64502879865,18.381720540899,73.0791));
#1637 = DIRECTION('',(0.,0.,1.));
#1638 = DIRECTION('',(-2.22044604925E-16,-1.,0.));
#1639 = ADVANCED_FACE('',(#1640),#1654,.T.);
#1640 = FACE_BOUND('',#1641,.F.);
#1641 = EDGE_LOOP('',(#1642,#1643,#1644,#1645,#1646,#1647,#1648,#1649,
    #1650,#1651,#1652,#1653));
#1642 = ORIENTED_EDGE('',*,*,#1033,.F.);
#1643 = ORIENTED_EDGE('',*,*,#1313,.F.);
#1644 = ORIENTED_EDGE('',*,*,#1285,.F.);
#1645 = ORIENTED_EDGE('',*,*,#1261,.F.);
#1646 = ORIENTED_EDGE('',*,*,#1233,.F.);
#1647 = ORIENTED_EDGE('',*,*,#1205,.F.);
#1648 = ORIENTED_EDGE('',*,*,#1181,.F.);
#1649 = ORIENTED_EDGE('',*,*,#1157,.F.);
#1650 = ORIENTED_EDGE('',*,*,#1133,.F.);
#1651 = ORIENTED_EDGE('',*,*,#1109,.F.);
#1652 = ORIENTED_EDGE('',*,*,#1081,.F.);
#1653 = ORIENTED_EDGE('',*,*,#1057,.F.);
#1654 = PLANE('',#1655);
#1655 = AXIS2_PLACEMENT_3D('',#1656,#1657,#1658);
#1656 = CARTESIAN_POINT('',(-7.877572711072,20.575132259535,73.0791));
#1657 = DIRECTION('',(0.,0.,1.));
#1658 = DIRECTION('',(-2.22044604925E-16,-1.,0.));
#1659 = ADVANCED_FACE('',(#1660,#1663),#1674,.F.);
#1660 = FACE_BOUND('',#1661,.T.);
#1661 = EDGE_LOOP('',(#1662));
#1662 = ORIENTED_EDGE('',*,*,#1339,.T.);
#1663 = FACE_BOUND('',#1664,.F.);
#1664 = EDGE_LOOP('',(#1665));
#1665 = ORIENTED_EDGE('',*,*,#1666,.T.);
#1666 = EDGE_CURVE('',#1667,#1667,#1669,.T.);
#1667 = VERTEX_POINT('',#1668);
#1668 = CARTESIAN_POINT('',(-15.3966250554,9.70026,67.437));
#1669 = CIRCLE('',#1670,2.99974);
#1670 = AXIS2_PLACEMENT_3D('',#1671,#1672,#1673);
#1671 = CARTESIAN_POINT('',(-15.3966250554,12.7,67.437));
#1672 = DIRECTION('',(-1.,0.,0.));
#1673 = DIRECTION('',(0.,-1.,0.));
#1674 = PLANE('',#1675);
#1675 = AXIS2_PLACEMENT_3D('',#1676,#1677,#1678);
#1676 = CARTESIAN_POINT('',(-15.3966250554,5.196886969472E-15,67.437));
#1677 = DIRECTION('',(1.,0.,0.));
#1678 = DIRECTION('',(0.,0.,1.));
#1679 = ADVANCED_FACE('',(#1680,#1683),#1694,.F.);
#1680 = FACE_BOUND('',#1681,.T.);
#1681 = EDGE_LOOP('',(#1682));
#1682 = ORIENTED_EDGE('',*,*,#1576,.T.);
#1683 = FACE_BOUND('',#1684,.F.);
#1684 = EDGE_LOOP('',(#1685));
#1685 = ORIENTED_EDGE('',*,*,#1686,.T.);
#1686 = EDGE_CURVE('',#1687,#1687,#1689,.T.);
#1687 = VERTEX_POINT('',#1688);
#1688 = CARTESIAN_POINT('',(-15.3966250554,-15.69974,67.437));
#1689 = CIRCLE('',#1690,2.99974);
#1690 = AXIS2_PLACEMENT_3D('',#1691,#1692,#1693);
#1691 = CARTESIAN_POINT('',(-15.3966250554,-12.7,67.437));
#1692 = DIRECTION('',(-1.,0.,0.));
#1693 = DIRECTION('',(0.,-1.,0.));
#1694 = PLANE('',#1695);
#1695 = AXIS2_PLACEMENT_3D('',#1696,#1697,#1698);
#1696 = CARTESIAN_POINT('',(-15.3966250554,5.196886969472E-15,67.437));
#1697 = DIRECTION('',(1.,0.,0.));
#1698 = DIRECTION('',(0.,0.,1.));
#1699 = ADVANCED_FACE('',(#1700),#1719,.F.);
#1700 = FACE_BOUND('',#1701,.T.);
#1701 = EDGE_LOOP('',(#1702,#1710,#1711,#1712));
#1702 = ORIENTED_EDGE('',*,*,#1703,.T.);
#1703 = EDGE_CURVE('',#1704,#1667,#1706,.T.);
#1704 = VERTEX_POINT('',#1705);
#1705 = CARTESIAN_POINT('',(-10.3166250554,9.70026,67.437));
#1706 = LINE('',#1707,#1708);
#1707 = CARTESIAN_POINT('',(-10.3166250554,9.70026,67.437));
#1708 = VECTOR('',#1709,1.);
#1709 = DIRECTION('',(-1.,0.,0.));
#1710 = ORIENTED_EDGE('',*,*,#1666,.T.);
#1711 = ORIENTED_EDGE('',*,*,#1703,.F.);
#1712 = ORIENTED_EDGE('',*,*,#1713,.F.);
#1713 = EDGE_CURVE('',#1704,#1704,#1714,.T.);
#1714 = CIRCLE('',#1715,2.99974);
#1715 = AXIS2_PLACEMENT_3D('',#1716,#1717,#1718);
#1716 = CARTESIAN_POINT('',(-10.3166250554,12.7,67.437));
#1717 = DIRECTION('',(-1.,0.,0.));
#1718 = DIRECTION('',(0.,-1.,0.));
#1719 = CYLINDRICAL_SURFACE('',#1720,2.99974);
#1720 = AXIS2_PLACEMENT_3D('',#1721,#1722,#1723);
#1721 = CARTESIAN_POINT('',(-10.3166250554,12.7,67.437));
#1722 = DIRECTION('',(1.,0.,0.));
#1723 = DIRECTION('',(0.,-1.,0.));
#1724 = ADVANCED_FACE('',(#1725),#1744,.F.);
#1725 = FACE_BOUND('',#1726,.T.);
#1726 = EDGE_LOOP('',(#1727,#1735,#1736,#1737));
#1727 = ORIENTED_EDGE('',*,*,#1728,.T.);
#1728 = EDGE_CURVE('',#1729,#1687,#1731,.T.);
#1729 = VERTEX_POINT('',#1730);
#1730 = CARTESIAN_POINT('',(-10.3166250554,-15.69974,67.437));
#1731 = LINE('',#1732,#1733);
#1732 = CARTESIAN_POINT('',(-10.3166250554,-15.69974,67.437));
#1733 = VECTOR('',#1734,1.);
#1734 = DIRECTION('',(-1.,0.,0.));
#1735 = ORIENTED_EDGE('',*,*,#1686,.T.);
#1736 = ORIENTED_EDGE('',*,*,#1728,.F.);
#1737 = ORIENTED_EDGE('',*,*,#1738,.F.);
#1738 = EDGE_CURVE('',#1729,#1729,#1739,.T.);
#1739 = CIRCLE('',#1740,2.99974);
#1740 = AXIS2_PLACEMENT_3D('',#1741,#1742,#1743);
#1741 = CARTESIAN_POINT('',(-10.3166250554,-12.7,67.437));
#1742 = DIRECTION('',(-1.,0.,0.));
#1743 = DIRECTION('',(0.,-1.,0.));
#1744 = CYLINDRICAL_SURFACE('',#1745,2.99974);
#1745 = AXIS2_PLACEMENT_3D('',#1746,#1747,#1748);
#1746 = CARTESIAN_POINT('',(-10.3166250554,-12.7,67.437));
#1747 = DIRECTION('',(1.,0.,0.));
#1748 = DIRECTION('',(0.,-1.,0.));
#1749 = ADVANCED_FACE('',(#1750),#1753,.F.);
#1750 = FACE_BOUND('',#1751,.F.);
#1751 = EDGE_LOOP('',(#1752));
#1752 = ORIENTED_EDGE('',*,*,#1713,.F.);
#1753 = PLANE('',#1754);
#1754 = AXIS2_PLACEMENT_3D('',#1755,#1756,#1757);
#1755 = CARTESIAN_POINT('',(-10.3166250554,22.225,74.0791));
#1756 = DIRECTION('',(1.,0.,0.));
#1757 = DIRECTION('',(0.,-2.22044604925E-16,-1.));
#1758 = ADVANCED_FACE('',(#1759),#1762,.F.);
#1759 = FACE_BOUND('',#1760,.F.);
#1760 = EDGE_LOOP('',(#1761));
#1761 = ORIENTED_EDGE('',*,*,#1738,.F.);
#1762 = PLANE('',#1763);
#1763 = AXIS2_PLACEMENT_3D('',#1764,#1765,#1766);
#1764 = CARTESIAN_POINT('',(-10.3166250554,22.225,74.0791));
#1765 = DIRECTION('',(1.,0.,0.));
#1766 = DIRECTION('',(0.,-2.22044604925E-16,-1.));
#1767 = ( GEOMETRIC_REPRESENTATION_CONTEXT(3) 
GLOBAL_UNCERTAINTY_ASSIGNED_CONTEXT((#1771)) 
GLOBAL_UNIT_ASSIGNED_CONTEXT((#1768,#1769,#1770)) REPRESENTATION_CONTEXT
('Context #1','3D Context with UNIT and UNCERTAINTY') );
#1768 = ( LENGTH_UNIT() NAMED_UNIT(*) SI_UNIT(.MILLI.,.METRE.) );
#1769 = ( NAMED_UNIT(*) PLANE_ANGLE_UNIT() SI_UNIT($,.RADIAN.) );
#1770 = ( NAMED_UNIT(*) SI_UNIT($,.STERADIAN.) SOLID_ANGLE_UNIT() );
#1771 = UNCERTAINTY_MEASURE_WITH_UNIT(LENGTH_MEASURE(2.E-05),#1768,
  'distance_accuracy_value','confusion accuracy');
#1772 = PRODUCT_RELATED_PRODUCT_CATEGORY('part',$,(#7));
#1773 = MECHANICAL_DESIGN_GEOMETRIC_PRESENTATION_REPRESENTATION('',(
    #1774),#1767);
#1774 = STYLED_ITEM('color',(#1775),#15);
#1775 = PRESENTATION_STYLE_ASSIGNMENT((#1776,#1782));
#1776 = SURFACE_STYLE_USAGE(.BOTH.,#1777);
#1777 = SURFACE_SIDE_STYLE('',(#1778));
#1778 = SURFACE_STYLE_FILL_AREA(#1779);
#1779 = FILL_AREA_STYLE('',(#1780));
#1780 = FILL_AREA_STYLE_COLOUR('',#1781);
#1781 = COLOUR_RGB('',0.678431390124,0.709803936702,0.741176476869);
#1782 = CURVE_STYLE('',#1783,POSITIVE_LENGTH_MEASURE(0.1),#1784);
#1783 = DRAUGHTING_PRE_DEFINED_CURVE_FONT('continuous');
#1784 = COLOUR_RGB('',9.803921802644E-02,9.803921802644E-02,
  9.803921802644E-02);
ENDSEC;
END-ISO-10303-21;
