ISO-10303-21;
HEADER;
FILE_DESCRIPTION(('FreeCAD Model'),'2;1');
FILE_NAME('Open CASCADE Shape Model','2026-07-13T19:55:08',(''),(''),
  'Open CASCADE STEP processor 7.8','FreeCAD','Unknown');
FILE_SCHEMA(('AUTOMOTIVE_DESIGN { 1 0 10303 214 1 1 1 1 }'));
ENDSEC;
DATA;
#1 = APPLICATION_PROTOCOL_DEFINITION('international standard',
  'automotive_design',2000,#2);
#2 = APPLICATION_CONTEXT(
  'core data for automotive mechanical design processes');
#3 = SHAPE_DEFINITION_REPRESENTATION(#4,#10);
#4 = PRODUCT_DEFINITION_SHAPE('','',#5);
#5 = PRODUCT_DEFINITION('design','',#6,#9);
#6 = PRODUCT_DEFINITION_FORMATION('','',#7);
#7 = PRODUCT('Hole','Hole','',(#8));
#8 = PRODUCT_CONTEXT('',#2,'mechanical');
#9 = PRODUCT_DEFINITION_CONTEXT('part definition',#2,'design');
#10 = ADVANCED_BREP_SHAPE_REPRESENTATION('',(#11,#15),#1372);
#11 = AXIS2_PLACEMENT_3D('',#12,#13,#14);
#12 = CARTESIAN_POINT('',(0.,0.,0.));
#13 = DIRECTION('',(0.,0.,1.));
#14 = DIRECTION('',(1.,0.,-0.));
#15 = MANIFOLD_SOLID_BREP('',#16);
#16 = CLOSED_SHELL('',(#17,#59,#101,#143,#256,#369,#386,#581,#598,#623,
    #649,#666,#687,#704,#721,#744,#806,#996,#1013,#1025,#1232,#1252,
    #1274,#1291,#1308,#1325,#1342,#1354));
#17 = ADVANCED_FACE('',(#18),#54,.F.);
#18 = FACE_BOUND('',#19,.T.);
#19 = EDGE_LOOP('',(#20,#30,#39,#47));
#20 = ORIENTED_EDGE('',*,*,#21,.T.);
#21 = EDGE_CURVE('',#22,#24,#26,.T.);
#22 = VERTEX_POINT('',#23);
#23 = CARTESIAN_POINT('',(0.5,-9.637037926666,0.));
#24 = VERTEX_POINT('',#25);
#25 = CARTESIAN_POINT('',(0.5,-9.637037926666,12.));
#26 = LINE('',#27,#28);
#27 = CARTESIAN_POINT('',(0.5,-9.637037926666,0.));
#28 = VECTOR('',#29,1.);
#29 = DIRECTION('',(0.,0.,1.));
#30 = ORIENTED_EDGE('',*,*,#31,.T.);
#31 = EDGE_CURVE('',#24,#32,#34,.T.);
#32 = VERTEX_POINT('',#33);
#33 = CARTESIAN_POINT('',(-0.5,-9.637037926666,12.));
#34 = CIRCLE('',#35,9.65);
#35 = AXIS2_PLACEMENT_3D('',#36,#37,#38);
#36 = CARTESIAN_POINT('',(0.,0.,12.));
#37 = DIRECTION('',(0.,0.,1.));
#38 = DIRECTION('',(1.,0.,0.));
#39 = ORIENTED_EDGE('',*,*,#40,.F.);
#40 = EDGE_CURVE('',#41,#32,#43,.T.);
#41 = VERTEX_POINT('',#42);
#42 = CARTESIAN_POINT('',(-0.5,-9.637037926666,0.));
#43 = LINE('',#44,#45);
#44 = CARTESIAN_POINT('',(-0.5,-9.637037926666,0.));
#45 = VECTOR('',#46,1.);
#46 = DIRECTION('',(0.,0.,1.));
#47 = ORIENTED_EDGE('',*,*,#48,.F.);
#48 = EDGE_CURVE('',#22,#41,#49,.T.);
#49 = CIRCLE('',#50,9.65);
#50 = AXIS2_PLACEMENT_3D('',#51,#52,#53);
#51 = CARTESIAN_POINT('',(0.,0.,0.));
#52 = DIRECTION('',(0.,0.,1.));
#53 = DIRECTION('',(1.,0.,0.));
#54 = CYLINDRICAL_SURFACE('',#55,9.65);
#55 = AXIS2_PLACEMENT_3D('',#56,#57,#58);
#56 = CARTESIAN_POINT('',(0.,0.,0.));
#57 = DIRECTION('',(-0.,-0.,-1.));
#58 = DIRECTION('',(1.,0.,0.));
#59 = ADVANCED_FACE('',(#60,#85),#96,.T.);
#60 = FACE_BOUND('',#61,.T.);
#61 = EDGE_LOOP('',(#62,#72,#78,#79));
#62 = ORIENTED_EDGE('',*,*,#63,.T.);
#63 = EDGE_CURVE('',#64,#66,#68,.T.);
#64 = VERTEX_POINT('',#65);
#65 = CARTESIAN_POINT('',(0.5,-21.65,0.));
#66 = VERTEX_POINT('',#67);
#67 = CARTESIAN_POINT('',(0.5,-21.65,12.));
#68 = LINE('',#69,#70);
#69 = CARTESIAN_POINT('',(0.5,-21.65,0.));
#70 = VECTOR('',#71,1.);
#71 = DIRECTION('',(0.,0.,1.));
#72 = ORIENTED_EDGE('',*,*,#73,.T.);
#73 = EDGE_CURVE('',#66,#24,#74,.T.);
#74 = LINE('',#75,#76);
#75 = CARTESIAN_POINT('',(0.5,-21.65,12.));
#76 = VECTOR('',#77,1.);
#77 = DIRECTION('',(3.19E-15,1.,0.));
#78 = ORIENTED_EDGE('',*,*,#21,.F.);
#79 = ORIENTED_EDGE('',*,*,#80,.F.);
#80 = EDGE_CURVE('',#64,#22,#81,.T.);
#81 = LINE('',#82,#83);
#82 = CARTESIAN_POINT('',(0.5,-21.65,0.));
#83 = VECTOR('',#84,1.);
#84 = DIRECTION('',(3.19E-15,1.,0.));
#85 = FACE_BOUND('',#86,.T.);
#86 = EDGE_LOOP('',(#87));
#87 = ORIENTED_EDGE('',*,*,#88,.T.);
#88 = EDGE_CURVE('',#89,#89,#91,.T.);
#89 = VERTEX_POINT('',#90);
#90 = CARTESIAN_POINT('',(0.5,-15.64351896333,8.75));
#91 = CIRCLE('',#92,2.75);
#92 = AXIS2_PLACEMENT_3D('',#93,#94,#95);
#93 = CARTESIAN_POINT('',(0.5,-15.64351896333,6.));
#94 = DIRECTION('',(1.,0.,-0.));
#95 = DIRECTION('',(0.,0.,1.));
#96 = PLANE('',#97);
#97 = AXIS2_PLACEMENT_3D('',#98,#99,#100);
#98 = CARTESIAN_POINT('',(0.5,-15.64351896333,6.));
#99 = DIRECTION('',(-1.,3.19E-15,0.));
#100 = DIRECTION('',(-3.19E-15,-1.,0.));
#101 = ADVANCED_FACE('',(#102,#127),#138,.T.);
#102 = FACE_BOUND('',#103,.T.);
#103 = EDGE_LOOP('',(#104,#105,#113,#121));
#104 = ORIENTED_EDGE('',*,*,#40,.T.);
#105 = ORIENTED_EDGE('',*,*,#106,.T.);
#106 = EDGE_CURVE('',#32,#107,#109,.T.);
#107 = VERTEX_POINT('',#108);
#108 = CARTESIAN_POINT('',(-0.5,-21.65,12.));
#109 = LINE('',#110,#111);
#110 = CARTESIAN_POINT('',(-0.5,-9.637037926666,12.));
#111 = VECTOR('',#112,1.);
#112 = DIRECTION('',(0.,-1.,0.));
#113 = ORIENTED_EDGE('',*,*,#114,.F.);
#114 = EDGE_CURVE('',#115,#107,#117,.T.);
#115 = VERTEX_POINT('',#116);
#116 = CARTESIAN_POINT('',(-0.5,-21.65,0.));
#117 = LINE('',#118,#119);
#118 = CARTESIAN_POINT('',(-0.5,-21.65,0.));
#119 = VECTOR('',#120,1.);
#120 = DIRECTION('',(0.,0.,1.));
#121 = ORIENTED_EDGE('',*,*,#122,.F.);
#122 = EDGE_CURVE('',#41,#115,#123,.T.);
#123 = LINE('',#124,#125);
#124 = CARTESIAN_POINT('',(-0.5,-9.637037926666,0.));
#125 = VECTOR('',#126,1.);
#126 = DIRECTION('',(0.,-1.,0.));
#127 = FACE_BOUND('',#128,.T.);
#128 = EDGE_LOOP('',(#129));
#129 = ORIENTED_EDGE('',*,*,#130,.F.);
#130 = EDGE_CURVE('',#131,#131,#133,.T.);
#131 = VERTEX_POINT('',#132);
#132 = CARTESIAN_POINT('',(-0.5,-15.64351896333,8.75));
#133 = CIRCLE('',#134,2.75);
#134 = AXIS2_PLACEMENT_3D('',#135,#136,#137);
#135 = CARTESIAN_POINT('',(-0.5,-15.64351896333,6.));
#136 = DIRECTION('',(1.,0.,-0.));
#137 = DIRECTION('',(0.,0.,1.));
#138 = PLANE('',#139);
#139 = AXIS2_PLACEMENT_3D('',#140,#141,#142);
#140 = CARTESIAN_POINT('',(-0.5,-9.637037926666,0.));
#141 = DIRECTION('',(1.,0.,0.));
#142 = DIRECTION('',(0.,-1.,0.));
#143 = ADVANCED_FACE('',(#144),#251,.T.);
#144 = FACE_BOUND('',#145,.T.);
#145 = EDGE_LOOP('',(#146,#158,#166,#176,#184,#192,#202,#210,#216,#217,
    #218,#219,#227,#237,#245));
#146 = ORIENTED_EDGE('',*,*,#147,.T.);
#147 = EDGE_CURVE('',#148,#150,#152,.T.);
#148 = VERTEX_POINT('',#149);
#149 = CARTESIAN_POINT('',(-18.,1.E-15,0.));
#150 = VERTEX_POINT('',#151);
#151 = CARTESIAN_POINT('',(-25.,17.7,0.));
#152 = B_SPLINE_CURVE_WITH_KNOTS('',3,(#153,#154,#155,#156,#157),
  .UNSPECIFIED.,.F.,.F.,(4,1,4),(0.,1.,2.),.QUASI_UNIFORM_KNOTS.);
#153 = CARTESIAN_POINT('',(-18.,5.7E-16,0.));
#154 = CARTESIAN_POINT('',(-17.9351,5.3382,0.));
#155 = CARTESIAN_POINT('',(-18.321858,11.269348,0.));
#156 = CARTESIAN_POINT('',(-25.011651,13.767385,0.));
#157 = CARTESIAN_POINT('',(-25.,17.7,0.));
#158 = ORIENTED_EDGE('',*,*,#159,.T.);
#159 = EDGE_CURVE('',#150,#160,#162,.T.);
#160 = VERTEX_POINT('',#161);
#161 = CARTESIAN_POINT('',(25.,17.7,0.));
#162 = LINE('',#163,#164);
#163 = CARTESIAN_POINT('',(-25.,17.7,0.));
#164 = VECTOR('',#165,1.);
#165 = DIRECTION('',(1.,0.,0.));
#166 = ORIENTED_EDGE('',*,*,#167,.F.);
#167 = EDGE_CURVE('',#168,#160,#170,.T.);
#168 = VERTEX_POINT('',#169);
#169 = CARTESIAN_POINT('',(18.,1.E-15,0.));
#170 = B_SPLINE_CURVE_WITH_KNOTS('',3,(#171,#172,#173,#174,#175),
  .UNSPECIFIED.,.F.,.F.,(4,1,4),(0.,1.,2.),.QUASI_UNIFORM_KNOTS.);
#171 = CARTESIAN_POINT('',(18.,5.7E-16,0.));
#172 = CARTESIAN_POINT('',(17.9351,5.3382,0.));
#173 = CARTESIAN_POINT('',(18.321858,11.269348,0.));
#174 = CARTESIAN_POINT('',(25.011651,13.767385,0.));
#175 = CARTESIAN_POINT('',(25.,17.7,0.));
#176 = ORIENTED_EDGE('',*,*,#177,.T.);
#177 = EDGE_CURVE('',#168,#178,#180,.T.);
#178 = VERTEX_POINT('',#179);
#179 = CARTESIAN_POINT('',(38.,0.,0.));
#180 = LINE('',#181,#182);
#181 = CARTESIAN_POINT('',(18.,4.4E-16,0.));
#182 = VECTOR('',#183,1.);
#183 = DIRECTION('',(1.,0.,0.));
#184 = ORIENTED_EDGE('',*,*,#185,.T.);
#185 = EDGE_CURVE('',#178,#186,#188,.T.);
#186 = VERTEX_POINT('',#187);
#187 = CARTESIAN_POINT('',(38.,-4.,0.));
#188 = LINE('',#189,#190);
#189 = CARTESIAN_POINT('',(38.,4.4E-16,0.));
#190 = VECTOR('',#191,1.);
#191 = DIRECTION('',(0.,-1.,0.));
#192 = ORIENTED_EDGE('',*,*,#193,.F.);
#193 = EDGE_CURVE('',#194,#186,#196,.T.);
#194 = VERTEX_POINT('',#195);
#195 = CARTESIAN_POINT('',(9.,-9.661087791028,0.));
#196 = B_SPLINE_CURVE_WITH_KNOTS('',3,(#197,#198,#199,#200,#201),
  .UNSPECIFIED.,.F.,.F.,(4,1,4),(0.,1.,2.),.QUASI_UNIFORM_KNOTS.);
#197 = CARTESIAN_POINT('',(4.5,-21.65,0.));
#198 = CARTESIAN_POINT('',(5.309079,-9.7913,0.));
#199 = CARTESIAN_POINT('',(16.23324,-5.278914,0.));
#200 = CARTESIAN_POINT('',(28.9581,-4.23366,0.));
#201 = CARTESIAN_POINT('',(38.,-4.,0.));
#202 = ORIENTED_EDGE('',*,*,#203,.F.);
#203 = EDGE_CURVE('',#204,#194,#206,.T.);
#204 = VERTEX_POINT('',#205);
#205 = CARTESIAN_POINT('',(9.,-21.65,0.));
#206 = LINE('',#207,#208);
#207 = CARTESIAN_POINT('',(9.,-21.65,0.));
#208 = VECTOR('',#209,1.);
#209 = DIRECTION('',(3.E-15,1.,0.));
#210 = ORIENTED_EDGE('',*,*,#211,.F.);
#211 = EDGE_CURVE('',#64,#204,#212,.T.);
#212 = LINE('',#213,#214);
#213 = CARTESIAN_POINT('',(0.5,-21.65,0.));
#214 = VECTOR('',#215,1.);
#215 = DIRECTION('',(1.,-3.11E-15,0.));
#216 = ORIENTED_EDGE('',*,*,#80,.T.);
#217 = ORIENTED_EDGE('',*,*,#48,.T.);
#218 = ORIENTED_EDGE('',*,*,#122,.T.);
#219 = ORIENTED_EDGE('',*,*,#220,.T.);
#220 = EDGE_CURVE('',#115,#221,#223,.T.);
#221 = VERTEX_POINT('',#222);
#222 = CARTESIAN_POINT('',(-4.5,-21.65,0.));
#223 = LINE('',#224,#225);
#224 = CARTESIAN_POINT('',(-0.5,-21.65,0.));
#225 = VECTOR('',#226,1.);
#226 = DIRECTION('',(-1.,0.,0.));
#227 = ORIENTED_EDGE('',*,*,#228,.T.);
#228 = EDGE_CURVE('',#221,#229,#231,.T.);
#229 = VERTEX_POINT('',#230);
#230 = CARTESIAN_POINT('',(-38.,-4.,0.));
#231 = B_SPLINE_CURVE_WITH_KNOTS('',3,(#232,#233,#234,#235,#236),
  .UNSPECIFIED.,.F.,.F.,(4,1,4),(0.,1.,2.),.QUASI_UNIFORM_KNOTS.);
#232 = CARTESIAN_POINT('',(-4.5,-21.65,0.));
#233 = CARTESIAN_POINT('',(-5.309079,-9.7913,0.));
#234 = CARTESIAN_POINT('',(-16.23324,-5.278914,0.));
#235 = CARTESIAN_POINT('',(-28.9581,-4.23366,0.));
#236 = CARTESIAN_POINT('',(-38.,-4.,0.));
#237 = ORIENTED_EDGE('',*,*,#238,.F.);
#238 = EDGE_CURVE('',#239,#229,#241,.T.);
#239 = VERTEX_POINT('',#240);
#240 = CARTESIAN_POINT('',(-38.,0.,0.));
#241 = LINE('',#242,#243);
#242 = CARTESIAN_POINT('',(-38.,4.4E-16,0.));
#243 = VECTOR('',#244,1.);
#244 = DIRECTION('',(0.,-1.,0.));
#245 = ORIENTED_EDGE('',*,*,#246,.F.);
#246 = EDGE_CURVE('',#148,#239,#247,.T.);
#247 = LINE('',#248,#249);
#248 = CARTESIAN_POINT('',(-18.,5.7E-16,0.));
#249 = VECTOR('',#250,1.);
#250 = DIRECTION('',(-1.,-1.E-17,0.));
#251 = PLANE('',#252);
#252 = AXIS2_PLACEMENT_3D('',#253,#254,#255);
#253 = CARTESIAN_POINT('',(0.182364733482,-0.417610040192,0.));
#254 = DIRECTION('',(-0.,-0.,-1.));
#255 = DIRECTION('',(-1.,0.,0.));
#256 = ADVANCED_FACE('',(#257),#364,.T.);
#257 = FACE_BOUND('',#258,.T.);
#258 = EDGE_LOOP('',(#259,#271,#279,#287,#297,#303,#304,#305,#306,#314,
    #322,#332,#340,#348,#358));
#259 = ORIENTED_EDGE('',*,*,#260,.F.);
#260 = EDGE_CURVE('',#261,#263,#265,.T.);
#261 = VERTEX_POINT('',#262);
#262 = CARTESIAN_POINT('',(-18.,1.E-15,12.));
#263 = VERTEX_POINT('',#264);
#264 = CARTESIAN_POINT('',(-25.,17.7,12.));
#265 = B_SPLINE_CURVE_WITH_KNOTS('',3,(#266,#267,#268,#269,#270),
  .UNSPECIFIED.,.F.,.F.,(4,1,4),(0.,1.,2.),.QUASI_UNIFORM_KNOTS.);
#266 = CARTESIAN_POINT('',(-18.,5.7E-16,12.));
#267 = CARTESIAN_POINT('',(-17.9351,5.3382,12.));
#268 = CARTESIAN_POINT('',(-18.321858,11.269348,12.));
#269 = CARTESIAN_POINT('',(-25.011651,13.767385,12.));
#270 = CARTESIAN_POINT('',(-25.,17.7,12.));
#271 = ORIENTED_EDGE('',*,*,#272,.T.);
#272 = EDGE_CURVE('',#261,#273,#275,.T.);
#273 = VERTEX_POINT('',#274);
#274 = CARTESIAN_POINT('',(-38.,0.,12.));
#275 = LINE('',#276,#277);
#276 = CARTESIAN_POINT('',(-18.,5.7E-16,12.));
#277 = VECTOR('',#278,1.);
#278 = DIRECTION('',(-1.,-1.E-17,0.));
#279 = ORIENTED_EDGE('',*,*,#280,.T.);
#280 = EDGE_CURVE('',#273,#281,#283,.T.);
#281 = VERTEX_POINT('',#282);
#282 = CARTESIAN_POINT('',(-38.,-4.,12.));
#283 = LINE('',#284,#285);
#284 = CARTESIAN_POINT('',(-38.,4.4E-16,12.));
#285 = VECTOR('',#286,1.);
#286 = DIRECTION('',(0.,-1.,0.));
#287 = ORIENTED_EDGE('',*,*,#288,.F.);
#288 = EDGE_CURVE('',#289,#281,#291,.T.);
#289 = VERTEX_POINT('',#290);
#290 = CARTESIAN_POINT('',(-4.5,-21.65,12.));
#291 = B_SPLINE_CURVE_WITH_KNOTS('',3,(#292,#293,#294,#295,#296),
  .UNSPECIFIED.,.F.,.F.,(4,1,4),(0.,1.,2.),.QUASI_UNIFORM_KNOTS.);
#292 = CARTESIAN_POINT('',(-4.5,-21.65,12.));
#293 = CARTESIAN_POINT('',(-5.309079,-9.7913,12.));
#294 = CARTESIAN_POINT('',(-16.23324,-5.278914,12.));
#295 = CARTESIAN_POINT('',(-28.9581,-4.23366,12.));
#296 = CARTESIAN_POINT('',(-38.,-4.,12.));
#297 = ORIENTED_EDGE('',*,*,#298,.F.);
#298 = EDGE_CURVE('',#107,#289,#299,.T.);
#299 = LINE('',#300,#301);
#300 = CARTESIAN_POINT('',(-0.5,-21.65,12.));
#301 = VECTOR('',#302,1.);
#302 = DIRECTION('',(-1.,0.,0.));
#303 = ORIENTED_EDGE('',*,*,#106,.F.);
#304 = ORIENTED_EDGE('',*,*,#31,.F.);
#305 = ORIENTED_EDGE('',*,*,#73,.F.);
#306 = ORIENTED_EDGE('',*,*,#307,.T.);
#307 = EDGE_CURVE('',#66,#308,#310,.T.);
#308 = VERTEX_POINT('',#309);
#309 = CARTESIAN_POINT('',(9.,-21.65,12.));
#310 = LINE('',#311,#312);
#311 = CARTESIAN_POINT('',(0.5,-21.65,12.));
#312 = VECTOR('',#313,1.);
#313 = DIRECTION('',(1.,0.,0.));
#314 = ORIENTED_EDGE('',*,*,#315,.T.);
#315 = EDGE_CURVE('',#308,#316,#318,.T.);
#316 = VERTEX_POINT('',#317);
#317 = CARTESIAN_POINT('',(9.,-9.661087791028,12.));
#318 = LINE('',#319,#320);
#319 = CARTESIAN_POINT('',(9.,-21.65,12.));
#320 = VECTOR('',#321,1.);
#321 = DIRECTION('',(3.E-15,1.,0.));
#322 = ORIENTED_EDGE('',*,*,#323,.T.);
#323 = EDGE_CURVE('',#316,#324,#326,.T.);
#324 = VERTEX_POINT('',#325);
#325 = CARTESIAN_POINT('',(38.,-4.,12.));
#326 = B_SPLINE_CURVE_WITH_KNOTS('',3,(#327,#328,#329,#330,#331),
  .UNSPECIFIED.,.F.,.F.,(4,1,4),(0.,1.,2.),.QUASI_UNIFORM_KNOTS.);
#327 = CARTESIAN_POINT('',(4.5,-21.65,12.));
#328 = CARTESIAN_POINT('',(5.309079,-9.7913,12.));
#329 = CARTESIAN_POINT('',(16.23324,-5.278914,12.));
#330 = CARTESIAN_POINT('',(28.9581,-4.23366,12.));
#331 = CARTESIAN_POINT('',(38.,-4.,12.));
#332 = ORIENTED_EDGE('',*,*,#333,.F.);
#333 = EDGE_CURVE('',#334,#324,#336,.T.);
#334 = VERTEX_POINT('',#335);
#335 = CARTESIAN_POINT('',(38.,0.,12.));
#336 = LINE('',#337,#338);
#337 = CARTESIAN_POINT('',(38.,4.4E-16,12.));
#338 = VECTOR('',#339,1.);
#339 = DIRECTION('',(0.,-1.,0.));
#340 = ORIENTED_EDGE('',*,*,#341,.F.);
#341 = EDGE_CURVE('',#342,#334,#344,.T.);
#342 = VERTEX_POINT('',#343);
#343 = CARTESIAN_POINT('',(18.,1.E-15,12.));
#344 = LINE('',#345,#346);
#345 = CARTESIAN_POINT('',(18.,4.4E-16,12.));
#346 = VECTOR('',#347,1.);
#347 = DIRECTION('',(1.,0.,0.));
#348 = ORIENTED_EDGE('',*,*,#349,.T.);
#349 = EDGE_CURVE('',#342,#350,#352,.T.);
#350 = VERTEX_POINT('',#351);
#351 = CARTESIAN_POINT('',(25.,17.7,12.));
#352 = B_SPLINE_CURVE_WITH_KNOTS('',3,(#353,#354,#355,#356,#357),
  .UNSPECIFIED.,.F.,.F.,(4,1,4),(0.,1.,2.),.QUASI_UNIFORM_KNOTS.);
#353 = CARTESIAN_POINT('',(18.,5.7E-16,12.));
#354 = CARTESIAN_POINT('',(17.9351,5.3382,12.));
#355 = CARTESIAN_POINT('',(18.321858,11.269348,12.));
#356 = CARTESIAN_POINT('',(25.011651,13.767385,12.));
#357 = CARTESIAN_POINT('',(25.,17.7,12.));
#358 = ORIENTED_EDGE('',*,*,#359,.F.);
#359 = EDGE_CURVE('',#263,#350,#360,.T.);
#360 = LINE('',#361,#362);
#361 = CARTESIAN_POINT('',(-25.,17.7,12.));
#362 = VECTOR('',#363,1.);
#363 = DIRECTION('',(1.,0.,0.));
#364 = PLANE('',#365);
#365 = AXIS2_PLACEMENT_3D('',#366,#367,#368);
#366 = CARTESIAN_POINT('',(0.182364733482,-0.417610040192,12.));
#367 = DIRECTION('',(0.,0.,1.));
#368 = DIRECTION('',(1.,0.,0.));
#369 = ADVANCED_FACE('',(#370),#381,.T.);
#370 = FACE_BOUND('',#371,.T.);
#371 = EDGE_LOOP('',(#372,#373,#374,#380));
#372 = ORIENTED_EDGE('',*,*,#63,.F.);
#373 = ORIENTED_EDGE('',*,*,#211,.T.);
#374 = ORIENTED_EDGE('',*,*,#375,.T.);
#375 = EDGE_CURVE('',#204,#308,#376,.T.);
#376 = LINE('',#377,#378);
#377 = CARTESIAN_POINT('',(9.,-21.65,0.));
#378 = VECTOR('',#379,1.);
#379 = DIRECTION('',(0.,0.,1.));
#380 = ORIENTED_EDGE('',*,*,#307,.F.);
#381 = PLANE('',#382);
#382 = AXIS2_PLACEMENT_3D('',#383,#384,#385);
#383 = CARTESIAN_POINT('',(4.75,-21.65,6.));
#384 = DIRECTION('',(-3.26E-15,-1.,-0.));
#385 = DIRECTION('',(-1.,3.26E-15,0.));
#386 = ADVANCED_FACE('',(#387),#576,.F.);
#387 = FACE_BOUND('',#388,.T.);
#388 = EDGE_LOOP('',(#389,#390,#398,#415,#575));
#389 = ORIENTED_EDGE('',*,*,#88,.F.);
#390 = ORIENTED_EDGE('',*,*,#391,.T.);
#391 = EDGE_CURVE('',#89,#392,#394,.T.);
#392 = VERTEX_POINT('',#393);
#393 = CARTESIAN_POINT('',(5.502333167033,-15.64351896333,8.75));
#394 = LINE('',#395,#396);
#395 = CARTESIAN_POINT('',(-4.1,-15.64351896333,8.75));
#396 = VECTOR('',#397,1.);
#397 = DIRECTION('',(1.,0.,-5.E-17));
#398 = ORIENTED_EDGE('',*,*,#399,.T.);
#399 = EDGE_CURVE('',#392,#400,#402,.T.);
#400 = VERTEX_POINT('',#401);
#401 = CARTESIAN_POINT('',(5.159328720808,-16.95252722468,8.418470047719
    ));
#402 = B_SPLINE_CURVE_WITH_KNOTS('',6,(#403,#404,#405,#406,#407,#408,
    #409,#410,#411,#412,#413,#414),.UNSPECIFIED.,.F.,.F.,(7,5,7),(0.,
    0.18335304067,1.),.UNSPECIFIED.);
#403 = CARTESIAN_POINT('',(5.502333167033,-15.64351896333,8.75));
#404 = CARTESIAN_POINT('',(5.489796500882,-15.68565810702,8.75));
#405 = CARTESIAN_POINT('',(5.477367363251,-15.72785408821,8.74922516369)
  );
#406 = CARTESIAN_POINT('',(5.465053959671,-15.77007665045,8.747671520104
    ));
#407 = CARTESIAN_POINT('',(5.452864042841,-15.81229516781,8.745337240989
    ));
#408 = CARTESIAN_POINT('',(5.440804912634,-15.85447864485,8.742222640813
    ));
#409 = CARTESIAN_POINT('',(5.375785557086,-16.08418343532,8.720993300726
    ));
#410 = CARTESIAN_POINT('',(5.32538929659,-16.27055558103,8.688215760797)
  );
#411 = CARTESIAN_POINT('',(5.278388232544,-16.45264896867,8.64021962573)
  );
#412 = CARTESIAN_POINT('',(5.235039531056,-16.62810340234,8.578175722493
    ));
#413 = CARTESIAN_POINT('',(5.195382410545,-16.79514300454,8.503654995354
    ));
#414 = CARTESIAN_POINT('',(5.159328720808,-16.95252722468,8.418470047719
    ));
#415 = ORIENTED_EDGE('',*,*,#416,.T.);
#416 = EDGE_CURVE('',#400,#392,#417,.T.);
#417 = B_SPLINE_CURVE_WITH_KNOTS('',6,(#418,#419,#420,#421,#422,#423,
    #424,#425,#426,#427,#428,#429,#430,#431,#432,#433,#434,#435,#436,
    #437,#438,#439,#440,#441,#442,#443,#444,#445,#446,#447,#448,#449,
    #450,#451,#452,#453,#454,#455,#456,#457,#458,#459,#460,#461,#462,
    #463,#464,#465,#466,#467,#468,#469,#470,#471,#472,#473,#474,#475,
    #476,#477,#478,#479,#480,#481,#482,#483,#484,#485,#486,#487,#488,
    #489,#490,#491,#492,#493,#494,#495,#496,#497,#498,#499,#500,#501,
    #502,#503,#504,#505,#506,#507,#508,#509,#510,#511,#512,#513,#514,
    #515,#516,#517,#518,#519,#520,#521,#522,#523,#524,#525,#526,#527,
    #528,#529,#530,#531,#532,#533,#534,#535,#536,#537,#538,#539,#540,
    #541,#542,#543,#544,#545,#546,#547,#548,#549,#550,#551,#552,#553,
    #554,#555,#556,#557,#558,#559,#560,#561,#562,#563,#564,#565,#566,
    #567,#568,#569,#570,#571,#572,#573,#574),.UNSPECIFIED.,.F.,.F.,(7,5,
    5,5,5,5,5,5,5,5,5,5,5,5,5,5,5,5,5,5,5,5,5,5,5,5,5,5,5,5,5,7),(0.,
    5.261299860526E-02,8.939350744937E-02,0.117710707188,0.190755564022,
    0.276108147172,0.308266896166,0.35068459128,0.3850287896,
    0.403824554653,0.441532651364,0.476768888593,0.494101882087,
    0.525983558653,0.565356482273,0.595817779329,0.62084588236,
    0.641994293028,0.659416520539,0.727821496766,0.785402330961,
    0.801073591741,0.819404275604,0.841653929865,0.868463076312,
    0.901374642675,0.944577490602,0.972412581777,0.986032639451,
    0.992866747742,0.996294807015,1.),.UNSPECIFIED.);
#418 = CARTESIAN_POINT('',(5.159328720808,-16.95252722468,8.418470047719
    ));
#419 = CARTESIAN_POINT('',(5.128282519383,-17.08805238827,8.345116417009
    ));
#420 = CARTESIAN_POINT('',(5.099887177446,-17.21651040734,8.263804491997
    ));
#421 = CARTESIAN_POINT('',(5.07404673809,-17.33729265352,8.175560948403)
  );
#422 = CARTESIAN_POINT('',(5.05059699212,-17.45012207654,8.081397372992)
  );
#423 = CARTESIAN_POINT('',(5.029366008749,-17.55492766107,7.982198777817
    ));
#424 = CARTESIAN_POINT('',(4.996776537135,-17.71947034377,7.806307435419
    ));
#425 = CARTESIAN_POINT('',(4.984370597102,-17.78327483384,7.731829381348
    ));
#426 = CARTESIAN_POINT('',(4.972910189375,-17.84320307284,7.655488147377
    ));
#427 = CARTESIAN_POINT('',(4.96234238565,-17.8992901933,7.577504276033)
  );
#428 = CARTESIAN_POINT('',(4.952619013503,-17.95158148037,7.498071780257
    ));
#429 = CARTESIAN_POINT('',(4.936828038156,-18.03750188497,7.355213768592
    ));
#430 = CARTESIAN_POINT('',(4.930434197738,-18.07265551576,7.292312292231
    ));
#431 = CARTESIAN_POINT('',(4.924496040873,-18.10561037051,7.228728570135
    ));
#432 = CARTESIAN_POINT('',(4.91899607905,-18.13638822845,7.164533162905)
  );
#433 = CARTESIAN_POINT('',(4.913918811938,-18.16501007949,7.09979053016)
  );
#434 = CARTESIAN_POINT('',(4.897209297753,-18.25981747525,6.866292902723
    ));
#435 = CARTESIAN_POINT('',(4.887892609917,-18.31391385625,6.69480577951)
  );
#436 = CARTESIAN_POINT('',(4.881062173762,-18.35415706142,6.521049291758
    ));
#437 = CARTESIAN_POINT('',(4.876579305156,-18.38076560815,6.345865330357
    ));
#438 = CARTESIAN_POINT('',(4.874368103735,-18.39388769042,6.170007003014
    ));
#439 = CARTESIAN_POINT('',(4.87450512434,-18.39307455283,5.78863297676)
  );
#440 = CARTESIAN_POINT('',(4.877684372473,-18.37420787207,5.583214980611
    ));
#441 = CARTESIAN_POINT('',(4.883967004243,-18.33693131894,5.378898635043
    ));
#442 = CARTESIAN_POINT('',(4.893502057106,-18.2809432741,5.176909905865)
  );
#443 = CARTESIAN_POINT('',(4.906547952264,-18.20585476318,4.978671074726
    ));
#444 = CARTESIAN_POINT('',(4.929980624214,-18.07523327541,4.713212974049
    ));
#445 = CARTESIAN_POINT('',(4.936956578772,-18.03668297423,4.641347321506
    ));
#446 = CARTESIAN_POINT('',(4.944519767445,-17.99529665057,4.570358448451
    ));
#447 = CARTESIAN_POINT('',(4.952697267034,-17.95104174994,4.500355067668
    ));
#448 = CARTESIAN_POINT('',(4.961519397992,-17.90388692549,4.431458526941
    ));
#449 = CARTESIAN_POINT('',(4.983551094461,-17.78774307469,4.274563671921
    ));
#450 = CARTESIAN_POINT('',(4.9972617875,-17.71659154294,4.187488663534)
  );
#451 = CARTESIAN_POINT('',(5.012229466929,-17.64028087801,4.102879065981
    ));
#452 = CARTESIAN_POINT('',(5.028539716468,-17.55876698076,4.021100416562
    ));
#453 = CARTESIAN_POINT('',(5.04628203966,-17.47204977384,3.94257198119)
  );
#454 = CARTESIAN_POINT('',(5.081142861487,-17.30582008891,3.807180868889
    ));
#455 = CARTESIAN_POINT('',(5.09773654092,-17.2280817566,3.749042647348)
  );
#456 = CARTESIAN_POINT('',(5.115372288438,-17.14701850389,3.693590361514
    ));
#457 = CARTESIAN_POINT('',(5.134093205823,-17.06271064987,3.641100502109
    ));
#458 = CARTESIAN_POINT('',(5.153933500791,-16.97529309863,3.591862935331
    ));
#459 = CARTESIAN_POINT('',(5.186393085372,-16.83553807583,3.521157655449
    ));
#460 = CARTESIAN_POINT('',(5.198214934916,-16.78523644607,3.497209713822
    ));
#461 = CARTESIAN_POINT('',(5.210380401043,-16.73409926491,3.474370031023
    ));
#462 = CARTESIAN_POINT('',(5.222890883676,-16.68216690915,3.452685647709
    ));
#463 = CARTESIAN_POINT('',(5.23574585733,-16.62948650872,3.432201921751)
  );
#464 = CARTESIAN_POINT('',(5.275417223638,-16.46903385789,3.374360835798
    ));
#465 = CARTESIAN_POINT('',(5.303271250035,-16.35914571665,3.340757486266
    ));
#466 = CARTESIAN_POINT('',(5.332473292359,-16.24691867203,3.312507213929
    ));
#467 = CARTESIAN_POINT('',(5.362964250329,-16.13289316678,3.289892115087
    ));
#468 = CARTESIAN_POINT('',(5.39464517578,-16.01768014912,3.273094517325)
  );
#469 = CARTESIAN_POINT('',(5.45794067921,-15.79382869385,3.251963627952)
  );
#470 = CARTESIAN_POINT('',(5.489430105163,-15.6852305762,3.24688318342)
  );
#471 = CARTESIAN_POINT('',(5.521712547635,-15.57671978465,3.246977300488
    ));
#472 = CARTESIAN_POINT('',(5.55465336997,-15.46880813484,3.252190057085)
  );
#473 = CARTESIAN_POINT('',(5.588106044858,-15.3619653445,3.262382457556)
  );
#474 = CARTESIAN_POINT('',(5.638544107716,-15.20479626466,3.284716942984
    ));
#475 = CARTESIAN_POINT('',(5.655261391054,-15.15333352848,3.293237740725
    ));
#476 = CARTESIAN_POINT('',(5.672047875137,-15.10227728365,3.302891269741
    ));
#477 = CARTESIAN_POINT('',(5.688886115243,-15.05167090225,3.313651352088
    ));
#478 = CARTESIAN_POINT('',(5.705758994297,-15.00155329149,3.325489628428
    ));
#479 = CARTESIAN_POINT('',(5.753717913458,-14.86073676581,3.362077467329
    ));
#480 = CARTESIAN_POINT('',(5.784846372427,-14.77128562037,3.3893243945)
  );
#481 = CARTESIAN_POINT('',(5.815932090592,-14.68381738917,3.419929567809
    ));
#482 = CARTESIAN_POINT('',(5.846878463317,-14.59849321579,3.453694188859
    ));
#483 = CARTESIAN_POINT('',(5.877596378211,-14.51543201328,3.490419438511
    ));
#484 = CARTESIAN_POINT('',(5.945559421495,-14.33504087481,3.57869862934)
  );
#485 = CARTESIAN_POINT('',(5.98264061025,-14.23894860549,3.631706950527)
  );
#486 = CARTESIAN_POINT('',(6.019100290438,-14.14659289391,3.688593747201
    ));
#487 = CARTESIAN_POINT('',(6.054802570457,-14.05806703852,3.749028536122
    ));
#488 = CARTESIAN_POINT('',(6.089625164631,-13.97342058866,3.812710317611
    ));
#489 = CARTESIAN_POINT('',(6.149637247484,-13.83020169567,3.930955910377
    ));
#490 = CARTESIAN_POINT('',(6.175222229694,-13.77006652768,3.984319231865
    ));
#491 = CARTESIAN_POINT('',(6.20016462223,-13.71227669344,4.039345272914)
  );
#492 = CARTESIAN_POINT('',(6.224416630939,-13.65683734325,4.09592030665)
  );
#493 = CARTESIAN_POINT('',(6.247933304005,-13.60374955735,4.153939414053
    ));
#494 = CARTESIAN_POINT('',(6.289355903796,-13.51132117515,4.262084615092
    ));
#495 = CARTESIAN_POINT('',(6.307514285579,-13.47121812741,4.311772198665
    ));
#496 = CARTESIAN_POINT('',(6.325124176018,-13.43270016878,4.362315705344
    ));
#497 = CARTESIAN_POINT('',(6.342163088409,-13.39576612994,4.413664126705
    ));
#498 = CARTESIAN_POINT('',(6.358609550627,-13.36041470613,4.465768975233
    ));
#499 = CARTESIAN_POINT('',(6.387822245858,-13.29810905067,4.563212510632
    ));
#500 = CARTESIAN_POINT('',(6.400763756734,-13.27070271095,4.60834781092)
  );
#501 = CARTESIAN_POINT('',(6.41325526582,-13.24442468135,4.653962336301)
  );
#502 = CARTESIAN_POINT('',(6.425284952828,-13.21927437249,4.700028962893
    ));
#503 = CARTESIAN_POINT('',(6.436841549113,-13.19525136223,4.746521291811
    ));
#504 = CARTESIAN_POINT('',(6.457036188215,-13.15349351788,4.832043943017
    ));
#505 = CARTESIAN_POINT('',(6.465829705196,-13.13539653023,4.870945660596
    ));
#506 = CARTESIAN_POINT('',(6.474288895723,-13.11806430745,4.910104405412
    ));
#507 = CARTESIAN_POINT('',(6.482408069064,-13.10149680424,4.94950595338)
  );
#508 = CARTESIAN_POINT('',(6.490181836644,-13.08569405529,4.989136252817
    ));
#509 = CARTESIAN_POINT('',(6.526751154198,-13.01161287435,5.185425714757
    ));
#510 = CARTESIAN_POINT('',(6.550493993147,-12.96436089219,5.345181509008
    ));
#511 = CARTESIAN_POINT('',(6.56852775222,-12.92890511628,5.50741134885)
  );
#512 = CARTESIAN_POINT('',(6.580620786999,-12.90527293743,5.671290061169
    ));
#513 = CARTESIAN_POINT('',(6.586656641123,-12.89347730176,5.835993530165
    ));
#514 = CARTESIAN_POINT('',(6.586617294383,-12.89355419525,6.139338577608
    ));
#515 = CARTESIAN_POINT('',(6.582307583365,-12.90197670404,6.277978018999
    ));
#516 = CARTESIAN_POINT('',(6.573705294926,-12.91878732376,6.416121939229
    ));
#517 = CARTESIAN_POINT('',(6.560871323555,-12.94397722833,6.553278709603
    ));
#518 = CARTESIAN_POINT('',(6.543920432161,-12.97753454891,6.688956024315
    ));
#519 = CARTESIAN_POINT('',(6.517323290053,-13.03085890226,6.859046958077
    ));
#520 = CARTESIAN_POINT('',(6.51134014371,-13.04288608819,6.895289242789)
  );
#521 = CARTESIAN_POINT('',(6.505067170139,-13.055532301,6.93137524317));
#522 = CARTESIAN_POINT('',(6.498507824477,-13.06879742054,6.967294898958
    ));
#523 = CARTESIAN_POINT('',(6.491665784298,-13.08268136623,7.003038083297
    ));
#524 = CARTESIAN_POINT('',(6.476215704668,-13.1141479507,7.080185086513)
  );
#525 = CARTESIAN_POINT('',(6.467505004041,-13.13195842633,7.121520141264
    ));
#526 = CARTESIAN_POINT('',(6.458419091318,-13.15061546453,7.162583482796
    ));
#527 = CARTESIAN_POINT('',(6.448964561077,-13.17011910959,7.203358566976
    ));
#528 = CARTESIAN_POINT('',(6.439148358879,-13.19046950947,7.243828589732
    ));
#529 = CARTESIAN_POINT('',(6.416632806202,-13.23739617766,7.332707720506
    ));
#530 = CARTESIAN_POINT('',(6.403765724307,-13.26437329367,7.380964244912
    ));
#531 = CARTESIAN_POINT('',(6.390389575088,-13.2925987684,7.428715649335)
  );
#532 = CARTESIAN_POINT('',(6.376518047767,-13.32207326915,7.475930461331
    ));
#533 = CARTESIAN_POINT('',(6.36216548129,-13.35279762605,7.522576146949)
  );
#534 = CARTESIAN_POINT('',(6.32949155441,-13.42330053102,7.624097391171)
  );
#535 = CARTESIAN_POINT('',(6.310959662225,-13.46364399114,7.678700206949
    ));
#536 = CARTESIAN_POINT('',(6.291777320899,-13.50580528958,7.732369066476
    ));
#537 = CARTESIAN_POINT('',(6.271972045383,-13.5497858955,7.785041605944)
  );
#538 = CARTESIAN_POINT('',(6.251572732457,-13.59558667012,7.836651589319
    ));
#539 = CARTESIAN_POINT('',(6.204874879211,-13.70166881675,7.949096104431
    ));
#540 = CARTESIAN_POINT('',(6.178290984604,-13.76287194418,8.00935493353)
  );
#541 = CARTESIAN_POINT('',(6.150913323994,-13.82681839254,8.067776714533
    ));
#542 = CARTESIAN_POINT('',(6.122802112479,-13.89350296614,8.124218264121
    ));
#543 = CARTESIAN_POINT('',(6.094022084452,-13.96291162744,8.178522972371
    ));
#544 = CARTESIAN_POINT('',(6.026075245726,-14.12967397292,8.2987805812)
  );
#545 = CARTESIAN_POINT('',(5.986476865728,-14.22897398671,8.363061807497
    ));
#546 = CARTESIAN_POINT('',(5.946001427002,-14.3328629472,8.422987460672)
  );
#547 = CARTESIAN_POINT('',(5.904828508231,-14.44122348496,8.478116699616
    ));
#548 = CARTESIAN_POINT('',(5.863160573378,-14.55384813442,8.527973311584
    ));
#549 = CARTESIAN_POINT('',(5.794199329269,-14.74551030375,8.600486054932
    ));
#550 = CARTESIAN_POINT('',(5.767066076538,-14.8222417688,8.626508306445)
  );
#551 = CARTESIAN_POINT('',(5.739882422904,-14.9005118762,8.650009410644)
  );
#552 = CARTESIAN_POINT('',(5.712714327648,-14.9802033338,8.670857698268)
  );
#553 = CARTESIAN_POINT('',(5.685631424604,-15.06117031752,8.688928233423
    ));
#554 = CARTESIAN_POINT('',(5.645531378386,-15.18338907357,8.711539800397
    ));
#555 = CARTESIAN_POINT('',(5.632394263085,-15.22380664226,8.718277436182
    ));
#556 = CARTESIAN_POINT('',(5.619303399286,-15.26446595997,8.724310654758
    ));
#557 = CARTESIAN_POINT('',(5.6062673345,-15.30534447322,8.729627635322)
  );
#558 = CARTESIAN_POINT('',(5.593294636684,-15.34641801524,8.734217776095
    ));
#559 = CARTESIAN_POINT('',(5.573920715269,-15.40835511606,8.740005466945
    ));
#560 = CARTESIAN_POINT('',(5.567465646738,-15.42909204825,8.741753896174
    ));
#561 = CARTESIAN_POINT('',(5.56102976935,-15.44986834963,8.743315813063)
  );
#562 = CARTESIAN_POINT('',(5.554614155404,-15.47068068333,8.744690152303
    ));
#563 = CARTESIAN_POINT('',(5.548219868793,-15.49152562845,8.745875952224
    ));
#564 = CARTESIAN_POINT('',(5.538651752286,-15.52287031987,8.747372160618
    ));
#565 = CARTESIAN_POINT('',(5.535459478534,-15.53335381382,8.747824604188
    ));
#566 = CARTESIAN_POINT('',(5.532271553836,-15.5438489082,8.748229359393)
  );
#567 = CARTESIAN_POINT('',(5.529089109016,-15.55435189246,8.748586155799
    ));
#568 = CARTESIAN_POINT('',(5.525913995632,-15.56485659921,8.748894778658
    ));
#569 = CARTESIAN_POINT('',(5.519327692098,-15.58670088056,8.749436401728
    ));
#570 = CARTESIAN_POINT('',(5.515913741054,-15.59805395888,8.749661667376
    ));
#571 = CARTESIAN_POINT('',(5.512507148165,-15.60941289732,8.74983075286)
  );
#572 = CARTESIAN_POINT('',(5.50910809511,-15.62077705459,8.749943558627)
  );
#573 = CARTESIAN_POINT('',(5.505716729931,-15.63214588998,8.749999998565
    ));
#574 = CARTESIAN_POINT('',(5.502333167033,-15.64351896333,8.75));
#575 = ORIENTED_EDGE('',*,*,#391,.F.);
#576 = CYLINDRICAL_SURFACE('',#577,2.75);
#577 = AXIS2_PLACEMENT_3D('',#578,#579,#580);
#578 = CARTESIAN_POINT('',(-4.1,-15.64351896333,6.));
#579 = DIRECTION('',(1.,0.,0.));
#580 = DIRECTION('',(0.,0.,1.));
#581 = ADVANCED_FACE('',(#582),#593,.T.);
#582 = FACE_BOUND('',#583,.T.);
#583 = EDGE_LOOP('',(#584,#585,#586,#592));
#584 = ORIENTED_EDGE('',*,*,#114,.T.);
#585 = ORIENTED_EDGE('',*,*,#298,.T.);
#586 = ORIENTED_EDGE('',*,*,#587,.F.);
#587 = EDGE_CURVE('',#221,#289,#588,.T.);
#588 = LINE('',#589,#590);
#589 = CARTESIAN_POINT('',(-4.5,-21.65,0.));
#590 = VECTOR('',#591,1.);
#591 = DIRECTION('',(0.,0.,1.));
#592 = ORIENTED_EDGE('',*,*,#220,.F.);
#593 = PLANE('',#594);
#594 = AXIS2_PLACEMENT_3D('',#595,#596,#597);
#595 = CARTESIAN_POINT('',(-0.5,-21.65,0.));
#596 = DIRECTION('',(0.,-1.,0.));
#597 = DIRECTION('',(-1.,0.,0.));
#598 = ADVANCED_FACE('',(#599),#618,.F.);
#599 = FACE_BOUND('',#600,.T.);
#600 = EDGE_LOOP('',(#601,#609,#616,#617));
#601 = ORIENTED_EDGE('',*,*,#602,.F.);
#602 = EDGE_CURVE('',#603,#131,#605,.T.);
#603 = VERTEX_POINT('',#604);
#604 = CARTESIAN_POINT('',(-4.1,-15.64351896333,8.75));
#605 = LINE('',#606,#607);
#606 = CARTESIAN_POINT('',(-4.1,-15.64351896333,8.75));
#607 = VECTOR('',#608,1.);
#608 = DIRECTION('',(1.,0.,-5.E-17));
#609 = ORIENTED_EDGE('',*,*,#610,.T.);
#610 = EDGE_CURVE('',#603,#603,#611,.T.);
#611 = CIRCLE('',#612,2.75);
#612 = AXIS2_PLACEMENT_3D('',#613,#614,#615);
#613 = CARTESIAN_POINT('',(-4.1,-15.64351896333,6.));
#614 = DIRECTION('',(-1.,0.,0.));
#615 = DIRECTION('',(0.,0.,1.));
#616 = ORIENTED_EDGE('',*,*,#602,.T.);
#617 = ORIENTED_EDGE('',*,*,#130,.T.);
#618 = CYLINDRICAL_SURFACE('',#619,2.75);
#619 = AXIS2_PLACEMENT_3D('',#620,#621,#622);
#620 = CARTESIAN_POINT('',(-4.1,-15.64351896333,6.));
#621 = DIRECTION('',(1.,0.,0.));
#622 = DIRECTION('',(0.,0.,1.));
#623 = ADVANCED_FACE('',(#624),#640,.T.);
#624 = FACE_BOUND('',#625,.T.);
#625 = EDGE_LOOP('',(#626,#632,#633,#639));
#626 = ORIENTED_EDGE('',*,*,#627,.T.);
#627 = EDGE_CURVE('',#148,#261,#628,.T.);
#628 = LINE('',#629,#630);
#629 = CARTESIAN_POINT('',(-18.,5.7E-16,0.));
#630 = VECTOR('',#631,1.);
#631 = DIRECTION('',(0.,0.,1.));
#632 = ORIENTED_EDGE('',*,*,#260,.T.);
#633 = ORIENTED_EDGE('',*,*,#634,.F.);
#634 = EDGE_CURVE('',#150,#263,#635,.T.);
#635 = LINE('',#636,#637);
#636 = CARTESIAN_POINT('',(-25.,17.7,0.));
#637 = VECTOR('',#638,1.);
#638 = DIRECTION('',(0.,0.,1.));
#639 = ORIENTED_EDGE('',*,*,#147,.F.);
#640 = SURFACE_OF_LINEAR_EXTRUSION('',#641,#647);
#641 = B_SPLINE_CURVE_WITH_KNOTS('',3,(#642,#643,#644,#645,#646),
  .UNSPECIFIED.,.F.,.F.,(4,1,4),(0.,1.,2.),.QUASI_UNIFORM_KNOTS.);
#642 = CARTESIAN_POINT('',(-18.,5.7E-16,0.));
#643 = CARTESIAN_POINT('',(-17.9351,5.3382,0.));
#644 = CARTESIAN_POINT('',(-18.321858,11.269348,0.));
#645 = CARTESIAN_POINT('',(-25.011651,13.767385,0.));
#646 = CARTESIAN_POINT('',(-25.,17.7,0.));
#647 = VECTOR('',#648,1.);
#648 = DIRECTION('',(-0.,-0.,-1.));
#649 = ADVANCED_FACE('',(#650),#661,.T.);
#650 = FACE_BOUND('',#651,.T.);
#651 = EDGE_LOOP('',(#652,#653,#654,#660));
#652 = ORIENTED_EDGE('',*,*,#634,.T.);
#653 = ORIENTED_EDGE('',*,*,#359,.T.);
#654 = ORIENTED_EDGE('',*,*,#655,.F.);
#655 = EDGE_CURVE('',#160,#350,#656,.T.);
#656 = LINE('',#657,#658);
#657 = CARTESIAN_POINT('',(25.,17.7,0.));
#658 = VECTOR('',#659,1.);
#659 = DIRECTION('',(0.,0.,1.));
#660 = ORIENTED_EDGE('',*,*,#159,.F.);
#661 = PLANE('',#662);
#662 = AXIS2_PLACEMENT_3D('',#663,#664,#665);
#663 = CARTESIAN_POINT('',(-25.,17.7,0.));
#664 = DIRECTION('',(0.,1.,0.));
#665 = DIRECTION('',(1.,0.,0.));
#666 = ADVANCED_FACE('',(#667),#678,.F.);
#667 = FACE_BOUND('',#668,.F.);
#668 = EDGE_LOOP('',(#669,#675,#676,#677));
#669 = ORIENTED_EDGE('',*,*,#670,.T.);
#670 = EDGE_CURVE('',#168,#342,#671,.T.);
#671 = LINE('',#672,#673);
#672 = CARTESIAN_POINT('',(18.,5.1E-16,0.));
#673 = VECTOR('',#674,1.);
#674 = DIRECTION('',(0.,0.,1.));
#675 = ORIENTED_EDGE('',*,*,#349,.T.);
#676 = ORIENTED_EDGE('',*,*,#655,.F.);
#677 = ORIENTED_EDGE('',*,*,#167,.F.);
#678 = SURFACE_OF_LINEAR_EXTRUSION('',#679,#685);
#679 = B_SPLINE_CURVE_WITH_KNOTS('',3,(#680,#681,#682,#683,#684),
  .UNSPECIFIED.,.F.,.F.,(4,1,4),(0.,1.,2.),.QUASI_UNIFORM_KNOTS.);
#680 = CARTESIAN_POINT('',(18.,5.7E-16,0.));
#681 = CARTESIAN_POINT('',(17.9351,5.3382,0.));
#682 = CARTESIAN_POINT('',(18.321858,11.269348,0.));
#683 = CARTESIAN_POINT('',(25.011651,13.767385,0.));
#684 = CARTESIAN_POINT('',(25.,17.7,0.));
#685 = VECTOR('',#686,1.);
#686 = DIRECTION('',(-0.,-0.,-1.));
#687 = ADVANCED_FACE('',(#688),#699,.T.);
#688 = FACE_BOUND('',#689,.T.);
#689 = EDGE_LOOP('',(#690,#691,#692,#698));
#690 = ORIENTED_EDGE('',*,*,#670,.T.);
#691 = ORIENTED_EDGE('',*,*,#341,.T.);
#692 = ORIENTED_EDGE('',*,*,#693,.F.);
#693 = EDGE_CURVE('',#178,#334,#694,.T.);
#694 = LINE('',#695,#696);
#695 = CARTESIAN_POINT('',(38.,4.4E-16,0.));
#696 = VECTOR('',#697,1.);
#697 = DIRECTION('',(0.,0.,1.));
#698 = ORIENTED_EDGE('',*,*,#177,.F.);
#699 = PLANE('',#700);
#700 = AXIS2_PLACEMENT_3D('',#701,#702,#703);
#701 = CARTESIAN_POINT('',(18.,4.4E-16,0.));
#702 = DIRECTION('',(0.,1.,0.));
#703 = DIRECTION('',(1.,0.,0.));
#704 = ADVANCED_FACE('',(#705),#716,.T.);
#705 = FACE_BOUND('',#706,.T.);
#706 = EDGE_LOOP('',(#707,#708,#709,#715));
#707 = ORIENTED_EDGE('',*,*,#693,.T.);
#708 = ORIENTED_EDGE('',*,*,#333,.T.);
#709 = ORIENTED_EDGE('',*,*,#710,.F.);
#710 = EDGE_CURVE('',#186,#324,#711,.T.);
#711 = LINE('',#712,#713);
#712 = CARTESIAN_POINT('',(38.,-4.,0.));
#713 = VECTOR('',#714,1.);
#714 = DIRECTION('',(0.,0.,1.));
#715 = ORIENTED_EDGE('',*,*,#185,.F.);
#716 = PLANE('',#717);
#717 = AXIS2_PLACEMENT_3D('',#718,#719,#720);
#718 = CARTESIAN_POINT('',(38.,4.4E-16,0.));
#719 = DIRECTION('',(1.,0.,0.));
#720 = DIRECTION('',(0.,-1.,0.));
#721 = ADVANCED_FACE('',(#722),#735,.F.);
#722 = FACE_BOUND('',#723,.F.);
#723 = EDGE_LOOP('',(#724,#725,#733,#734));
#724 = ORIENTED_EDGE('',*,*,#193,.F.);
#725 = ORIENTED_EDGE('',*,*,#726,.F.);
#726 = EDGE_CURVE('',#316,#194,#727,.T.);
#727 = B_SPLINE_CURVE_WITH_KNOTS('',4,(#728,#729,#730,#731,#732),
  .UNSPECIFIED.,.F.,.F.,(5,5),(0.,1.),.PIECEWISE_BEZIER_KNOTS.);
#728 = CARTESIAN_POINT('',(9.,-9.661087791028,12.));
#729 = CARTESIAN_POINT('',(9.,-9.661087791028,9.000000000296));
#730 = CARTESIAN_POINT('',(9.,-9.661087791028,6.000000000002));
#731 = CARTESIAN_POINT('',(9.,-9.661087791028,2.999999999704));
#732 = CARTESIAN_POINT('',(9.,-9.661087791028,0.));
#733 = ORIENTED_EDGE('',*,*,#323,.T.);
#734 = ORIENTED_EDGE('',*,*,#710,.F.);
#735 = SURFACE_OF_LINEAR_EXTRUSION('',#736,#742);
#736 = B_SPLINE_CURVE_WITH_KNOTS('',3,(#737,#738,#739,#740,#741),
  .UNSPECIFIED.,.F.,.F.,(4,1,4),(0.,1.,2.),.QUASI_UNIFORM_KNOTS.);
#737 = CARTESIAN_POINT('',(4.5,-21.65,0.));
#738 = CARTESIAN_POINT('',(5.309079,-9.7913,0.));
#739 = CARTESIAN_POINT('',(16.23324,-5.278914,0.));
#740 = CARTESIAN_POINT('',(28.9581,-4.23366,0.));
#741 = CARTESIAN_POINT('',(38.,-4.,0.));
#742 = VECTOR('',#743,1.);
#743 = DIRECTION('',(-0.,-0.,-1.));
#744 = ADVANCED_FACE('',(#745,#751),#801,.T.);
#745 = FACE_BOUND('',#746,.T.);
#746 = EDGE_LOOP('',(#747,#748,#749,#750));
#747 = ORIENTED_EDGE('',*,*,#375,.F.);
#748 = ORIENTED_EDGE('',*,*,#203,.T.);
#749 = ORIENTED_EDGE('',*,*,#726,.F.);
#750 = ORIENTED_EDGE('',*,*,#315,.F.);
#751 = FACE_BOUND('',#752,.T.);
#752 = EDGE_LOOP('',(#753,#763,#771,#779,#787,#795));
#753 = ORIENTED_EDGE('',*,*,#754,.T.);
#754 = EDGE_CURVE('',#755,#757,#759,.T.);
#755 = VERTEX_POINT('',#756);
#756 = CARTESIAN_POINT('',(9.,-15.64351896333,10.907477288112));
#757 = VERTEX_POINT('',#758);
#758 = CARTESIAN_POINT('',(9.,-11.39351896333,8.453738644056));
#759 = LINE('',#760,#761);
#760 = CARTESIAN_POINT('',(9.,-15.64351896333,10.907477288112));
#761 = VECTOR('',#762,1.);
#762 = DIRECTION('',(2.598076211353E-15,0.866025403784,-0.5));
#763 = ORIENTED_EDGE('',*,*,#764,.T.);
#764 = EDGE_CURVE('',#757,#765,#767,.T.);
#765 = VERTEX_POINT('',#766);
#766 = CARTESIAN_POINT('',(9.,-11.39351896333,3.546261355944));
#767 = LINE('',#768,#769);
#768 = CARTESIAN_POINT('',(9.,-11.39351896333,8.453738644056));
#769 = VECTOR('',#770,1.);
#770 = DIRECTION('',(-0.,0.,-1.));
#771 = ORIENTED_EDGE('',*,*,#772,.T.);
#772 = EDGE_CURVE('',#765,#773,#775,.T.);
#773 = VERTEX_POINT('',#774);
#774 = CARTESIAN_POINT('',(9.,-15.64351896333,1.092522711888));
#775 = LINE('',#776,#777);
#776 = CARTESIAN_POINT('',(9.,-11.39351896333,3.546261355944));
#777 = VECTOR('',#778,1.);
#778 = DIRECTION('',(-2.598076211353E-15,-0.866025403784,-0.5));
#779 = ORIENTED_EDGE('',*,*,#780,.T.);
#780 = EDGE_CURVE('',#773,#781,#783,.T.);
#781 = VERTEX_POINT('',#782);
#782 = CARTESIAN_POINT('',(9.,-19.89351896333,3.546261355944));
#783 = LINE('',#784,#785);
#784 = CARTESIAN_POINT('',(9.,-15.64351896333,1.092522711888));
#785 = VECTOR('',#786,1.);
#786 = DIRECTION('',(-2.598076211353E-15,-0.866025403784,0.5));
#787 = ORIENTED_EDGE('',*,*,#788,.T.);
#788 = EDGE_CURVE('',#781,#789,#791,.T.);
#789 = VERTEX_POINT('',#790);
#790 = CARTESIAN_POINT('',(9.,-19.89351896333,8.453738644056));
#791 = LINE('',#792,#793);
#792 = CARTESIAN_POINT('',(9.,-19.89351896333,3.546261355944));
#793 = VECTOR('',#794,1.);
#794 = DIRECTION('',(2.16E-30,7.2E-16,1.));
#795 = ORIENTED_EDGE('',*,*,#796,.T.);
#796 = EDGE_CURVE('',#789,#755,#797,.T.);
#797 = LINE('',#798,#799);
#798 = CARTESIAN_POINT('',(9.,-19.89351896333,8.453738644056));
#799 = VECTOR('',#800,1.);
#800 = DIRECTION('',(2.598076211353E-15,0.866025403784,0.5));
#801 = PLANE('',#802);
#802 = AXIS2_PLACEMENT_3D('',#803,#804,#805);
#803 = CARTESIAN_POINT('',(9.,-15.64351896333,6.));
#804 = DIRECTION('',(1.,-3.11E-15,0.));
#805 = DIRECTION('',(3.11E-15,1.,0.));
#806 = ADVANCED_FACE('',(#807,#818),#987,.T.);
#807 = FACE_BOUND('',#808,.T.);
#808 = EDGE_LOOP('',(#809,#810,#811,#817));
#809 = ORIENTED_EDGE('',*,*,#587,.T.);
#810 = ORIENTED_EDGE('',*,*,#288,.T.);
#811 = ORIENTED_EDGE('',*,*,#812,.F.);
#812 = EDGE_CURVE('',#229,#281,#813,.T.);
#813 = LINE('',#814,#815);
#814 = CARTESIAN_POINT('',(-38.,-4.,0.));
#815 = VECTOR('',#816,1.);
#816 = DIRECTION('',(0.,0.,1.));
#817 = ORIENTED_EDGE('',*,*,#228,.F.);
#818 = FACE_BOUND('',#819,.T.);
#819 = EDGE_LOOP('',(#820,#979));
#820 = ORIENTED_EDGE('',*,*,#821,.T.);
#821 = EDGE_CURVE('',#822,#824,#826,.T.);
#822 = VERTEX_POINT('',#823);
#823 = CARTESIAN_POINT('',(-5.502333167033,-15.64351896333,11.));
#824 = VERTEX_POINT('',#825);
#825 = CARTESIAN_POINT('',(-5.520381344888,-15.58321236296,
    10.999636298167));
#826 = B_SPLINE_CURVE_WITH_KNOTS('',7,(#827,#828,#829,#830,#831,#832,
    #833,#834,#835,#836,#837,#838,#839,#840,#841,#842,#843,#844,#845,
    #846,#847,#848,#849,#850,#851,#852,#853,#854,#855,#856,#857,#858,
    #859,#860,#861,#862,#863,#864,#865,#866,#867,#868,#869,#870,#871,
    #872,#873,#874,#875,#876,#877,#878,#879,#880,#881,#882,#883,#884,
    #885,#886,#887,#888,#889,#890,#891,#892,#893,#894,#895,#896,#897,
    #898,#899,#900,#901,#902,#903,#904,#905,#906,#907,#908,#909,#910,
    #911,#912,#913,#914,#915,#916,#917,#918,#919,#920,#921,#922,#923,
    #924,#925,#926,#927,#928,#929,#930,#931,#932,#933,#934,#935,#936,
    #937,#938,#939,#940,#941,#942,#943,#944,#945,#946,#947,#948,#949,
    #950,#951,#952,#953,#954,#955,#956,#957,#958,#959,#960,#961,#962,
    #963,#964,#965,#966,#967,#968,#969,#970,#971,#972,#973,#974,#975,
    #976,#977,#978),.UNSPECIFIED.,.F.,.F.,(8,6,6,6,6,6,6,6,6,6,6,6,6,6,6
    ,6,6,6,6,6,6,6,6,6,6,8),(0.,6.319525103831E-02,9.300641659801E-02,
    0.131129588935,0.160508533755,0.183144913192,0.243039955941,
    0.325268505634,0.354645558884,0.392763453834,0.422563846569,
    0.438604984544,0.469690085815,0.498124909087,0.53598675931,
    0.563691287629,0.583194362685,0.63205392138,0.689437165639,
    0.743763673479,0.779910641016,0.798392630681,0.855304801291,
    0.922113752722,0.949185588159,1.),.UNSPECIFIED.);
#827 = CARTESIAN_POINT('',(-5.502333167029,-15.64351896333,11.));
#828 = CARTESIAN_POINT('',(-5.403804025206,-15.97470219933,11.));
#829 = CARTESIAN_POINT('',(-5.311488934622,-16.3101153911,
    10.974407394702));
#830 = CARTESIAN_POINT('',(-5.226777317506,-16.64415123498,
    10.922045846114));
#831 = CARTESIAN_POINT('',(-5.150113130871,-16.97193843608,
    10.843489441816));
#832 = CARTESIAN_POINT('',(-5.081396280336,-17.28930323463,
    10.740453300514));
#833 = CARTESIAN_POINT('',(-5.02024223068,-17.59279620194,
    10.615540636964));
#834 = CARTESIAN_POINT('',(-4.940589706242,-18.01504599102,
    10.404402034125));
#835 = CARTESIAN_POINT('',(-4.916598563649,-18.14683237042,
    10.332530788851));
#836 = CARTESIAN_POINT('',(-4.894077650008,-18.27486434025,
    10.256749546534));
#837 = CARTESIAN_POINT('',(-4.872950918475,-18.39899935353,
    10.17734317455));
#838 = CARTESIAN_POINT('',(-4.853139093603,-18.51914205374,
    10.094588341608));
#839 = CARTESIAN_POINT('',(-4.834562992614,-18.63523612573,
    10.008745854797));
#840 = CARTESIAN_POINT('',(-4.794874697263,-18.89050980633,
    9.806630624446));
#841 = CARTESIAN_POINT('',(-4.774501117171,-19.02708980243,
    9.688555795006));
#842 = CARTESIAN_POINT('',(-4.755863662875,-19.15695854646,9.56631777411
    ));
#843 = CARTESIAN_POINT('',(-4.738812654248,-19.28012938067,
    9.440366417297));
#844 = CARTESIAN_POINT('',(-4.723211426122,-19.39665549147,
    9.311106675379));
#845 = CARTESIAN_POINT('',(-4.708936579852,-19.50661882269,
    9.178893099962));
#846 = CARTESIAN_POINT('',(-4.685815053549,-19.68987955148,8.94009014434
    ));
#847 = CARTESIAN_POINT('',(-4.676474780459,-19.76579777004,8.83458449051
    ));
#848 = CARTESIAN_POINT('',(-4.667807204066,-19.8379175873,8.727647406004
    ));
#849 = CARTESIAN_POINT('',(-4.659767274531,-19.90628380855,8.61940801532
    ));
#850 = CARTESIAN_POINT('',(-4.652314631792,-19.97094148719,
    8.509984439777));
#851 = CARTESIAN_POINT('',(-4.645413133642,-20.03193531038,
    8.399483688394));
#852 = CARTESIAN_POINT('',(-4.634112496242,-20.13351521002,
    8.202104930314));
#853 = CARTESIAN_POINT('',(-4.629502585825,-20.17557169878,
    8.115626792383));
#854 = CARTESIAN_POINT('',(-4.625186010271,-20.21549815382,
    8.028611549885));
#855 = CARTESIAN_POINT('',(-4.62114937513,-20.2533131957,7.94110120794)
  );
#856 = CARTESIAN_POINT('',(-4.61738053378,-20.28903436258,7.853135361866
    ));
#857 = CARTESIAN_POINT('',(-4.613868587428,-20.32267811021,
    7.764751197178));
#858 = CARTESIAN_POINT('',(-4.601965600657,-20.43782385446,7.44110734011
    ));
#859 = CARTESIAN_POINT('',(-4.595058784578,-20.50694288745,
    7.203569533022));
#860 = CARTESIAN_POINT('',(-4.589700952644,-20.5619166302,6.963984301818
    ));
#861 = CARTESIAN_POINT('',(-4.585767602054,-20.60295180163,
    6.722920414437));
#862 = CARTESIAN_POINT('',(-4.58317865313,-20.63019088002,6.480905539139
    ));
#863 = CARTESIAN_POINT('',(-4.581893095326,-20.64371447483,
    6.238427817613));
#864 = CARTESIAN_POINT('',(-4.581937568348,-20.64324662832,
    5.663021252896));
#865 = CARTESIAN_POINT('',(-4.58442149242,-20.61711565206,5.330232532036
    ));
#866 = CARTESIAN_POINT('',(-4.58936225133,-20.56515223351,4.998628871234
    ));
#867 = CARTESIAN_POINT('',(-4.596907644304,-20.4870450881,4.669481205075
    ));
#868 = CARTESIAN_POINT('',(-4.607349097143,-20.38227743635,
    4.344268267543));
#869 = CARTESIAN_POINT('',(-4.6211365175,-20.2501687442,4.024672566893)
  );
#870 = CARTESIAN_POINT('',(-4.645373969458,-20.03228229195,
    3.601151618739));
#871 = CARTESIAN_POINT('',(-4.652272354467,-19.97131024666,
    3.490652443915));
#872 = CARTESIAN_POINT('',(-4.659721670657,-19.90667497967,
    3.381229880974));
#873 = CARTESIAN_POINT('',(-4.667758039687,-19.8383318169,3.272990886964
    ));
#874 = CARTESIAN_POINT('',(-4.676421799218,-19.7662357139,3.166053523799
    ));
#875 = CARTESIAN_POINT('',(-4.685757974705,-19.6903418692,3.060546849505
    ));
#876 = CARTESIAN_POINT('',(-4.708868413727,-19.50714631412,
    2.821749663851));
#877 = CARTESIAN_POINT('',(-4.723135880691,-19.39722518359,
    2.689541923578));
#878 = CARTESIAN_POINT('',(-4.738728951074,-19.28074334975,
    2.560286025006));
#879 = CARTESIAN_POINT('',(-4.75577093207,-19.15761885042,2.434336245255
    ));
#880 = CARTESIAN_POINT('',(-4.774398391911,-19.02779842525,
    2.312097220222));
#881 = CARTESIAN_POINT('',(-4.794760912721,-18.89126858343,
    2.194018462606));
#882 = CARTESIAN_POINT('',(-4.834423553445,-18.63611208361,
    1.991910160504));
#883 = CARTESIAN_POINT('',(-4.852984993216,-18.52008623185,
    1.906078534691));
#884 = CARTESIAN_POINT('',(-4.872780840272,-18.40001439032,
    1.823330949052));
#885 = CARTESIAN_POINT('',(-4.893890185191,-18.27595265375,
    1.743927847165));
#886 = CARTESIAN_POINT('',(-4.916392221572,-18.14799606824,
    1.668145529871));
#887 = CARTESIAN_POINT('',(-4.940362936081,-18.01628676191,
    1.596268515537));
#888 = CARTESIAN_POINT('',(-4.979602865243,-17.80821097163,
    1.492147134362));
#889 = CARTESIAN_POINT('',(-4.99377942383,-17.73437050627,1.456926885461
    ));
#890 = CARTESIAN_POINT('',(-5.008411989839,-17.65953253605,
    1.422965896509));
#891 = CARTESIAN_POINT('',(-5.023510438777,-17.58373360524,
    1.390308715642));
#892 = CARTESIAN_POINT('',(-5.039083686641,-17.50701532807,
    1.358999079359));
#893 = CARTESIAN_POINT('',(-5.055139370484,-17.42942477083,
    1.329079295669));
#894 = CARTESIAN_POINT('',(-5.103743401727,-17.19906920331,
    1.245381310363));
#895 = CARTESIAN_POINT('',(-5.13764193655,-17.04402672732,1.195536363539
    ));
#896 = CARTESIAN_POINT('',(-5.173417257522,-16.88629887299,
    1.151359238972));
#897 = CARTESIAN_POINT('',(-5.211091591264,-16.72634564958,
    1.113107332509));
#898 = CARTESIAN_POINT('',(-5.250662631098,-16.56467628373,
    1.080979201032));
#899 = CARTESIAN_POINT('',(-5.292094901208,-16.40184989442,
    1.055102779862));
#900 = CARTESIAN_POINT('',(-5.374842777957,-16.08903148708,
    1.017613717533));
#901 = CARTESIAN_POINT('',(-5.415874333019,-15.93910089643,
    1.004969674005));
#902 = CARTESIAN_POINT('',(-5.458348409268,-15.78914690249,
    0.997627756086));
#903 = CARTESIAN_POINT('',(-5.502193679047,-15.63960486092,
    0.995559902927));
#904 = CARTESIAN_POINT('',(-5.547324876587,-15.49088219873,
    0.998682697882));
#905 = CARTESIAN_POINT('',(-5.593642810845,-15.34335763666,
    1.006866360085));
#906 = CARTESIAN_POINT('',(-5.704137722179,-15.00300720251,
    1.037356668189));
#907 = CARTESIAN_POINT('',(-5.769150773733,-14.81135867942,
    1.063447531215));
#908 = CARTESIAN_POINT('',(-5.835821709984,-14.623217576,1.097826253101)
  );
#909 = CARTESIAN_POINT('',(-5.90389049461,-14.43918109216,1.140003185644
    ));
#910 = CARTESIAN_POINT('',(-5.973096390934,-14.25969108798,
    1.189451115306));
#911 = CARTESIAN_POINT('',(-6.043186384126,-14.08505841074,
    1.245648540994));
#912 = CARTESIAN_POINT('',(-6.165685492984,-13.79139728736,
    1.353804708381));
#913 = CARTESIAN_POINT('',(-6.217794742726,-13.67001721594,
    1.402857223202));
#914 = CARTESIAN_POINT('',(-6.270163086075,-13.55141095033,
    1.455072553067));
#915 = CARTESIAN_POINT('',(-6.322703695218,-13.43562405054,
    1.510270147539));
#916 = CARTESIAN_POINT('',(-6.375332894192,-13.32268116725,
    1.568280942734));
#917 = CARTESIAN_POINT('',(-6.427970962738,-13.21258938256,
    1.628950188153));
#918 = CARTESIAN_POINT('',(-6.517551879996,-13.02984261128,1.73662401147
    ));
#919 = CARTESIAN_POINT('',(-6.554527485881,-12.95575437344,
    1.782356308846));
#920 = CARTESIAN_POINT('',(-6.591443245711,-12.88307448085,1.82928858258
    ));
#921 = CARTESIAN_POINT('',(-6.628273006295,-12.81179907392,
    1.877375431725));
#922 = CARTESIAN_POINT('',(-6.66499097335,-12.74192278999,1.926574637456
    ));
#923 = CARTESIAN_POINT('',(-6.701571711509,-12.67343876333,
    1.976847163068));
#924 = CARTESIAN_POINT('',(-6.82922645194,-12.43823779339,2.15670014042)
  );
#925 = CARTESIAN_POINT('',(-6.919431556105,-12.27884650573,
    2.291736805111));
#926 = CARTESIAN_POINT('',(-7.008229729156,-12.12800199452,
    2.432726665466));
#927 = CARTESIAN_POINT('',(-7.095222855048,-11.98557517961,
    2.579214422623));
#928 = CARTESIAN_POINT('',(-7.179997203615,-11.85145762183,
    2.730817946138));
#929 = CARTESIAN_POINT('',(-7.262126811583,-11.72556003092,
    2.887224472204));
#930 = CARTESIAN_POINT('',(-7.434010037986,-11.46954495599,
    3.237247316499));
#931 = CARTESIAN_POINT('',(-7.522572004585,-11.34255562951,
    3.432549470371));
#932 = CARTESIAN_POINT('',(-7.606146833742,-11.22675704133,
    3.633697607043));
#933 = CARTESIAN_POINT('',(-7.683938388061,-11.12219320649,
    3.840291108575));
#934 = CARTESIAN_POINT('',(-7.755094223754,-11.02900075132,
    4.051907686899));
#935 = CARTESIAN_POINT('',(-7.818755917786,-10.9473730175,4.26807529096)
  );
#936 = CARTESIAN_POINT('',(-7.926559097248,-10.81142102703,
    4.696678441165));
#937 = CARTESIAN_POINT('',(-7.97156201786,-10.75587062074,4.908708888662
    ));
#938 = CARTESIAN_POINT('',(-8.008445318132,-10.71111079169,
    5.123764061234));
#939 = CARTESIAN_POINT('',(-8.036587615365,-10.67735526412,
    5.341208462678));
#940 = CARTESIAN_POINT('',(-8.055516712317,-10.65478358055,
    5.560328444684));
#941 = CARTESIAN_POINT('',(-8.064973148593,-10.64350640006,5.78032151884
    ));
#942 = CARTESIAN_POINT('',(-8.064955592231,-10.64352733609,
    6.146642312021));
#943 = CARTESIAN_POINT('',(-8.060757513606,-10.64853383889,
    6.293004183927));
#944 = CARTESIAN_POINT('',(-8.052367197124,-10.65853883282,
    6.439114218718));
#945 = CARTESIAN_POINT('',(-8.039834706678,-10.67352219772,
    6.584729603865));
#946 = CARTESIAN_POINT('',(-8.023254760435,-10.69344701015,
    6.729621095663));
#947 = CARTESIAN_POINT('',(-8.002760147676,-10.71826321328,
    6.873572242623));
#948 = CARTESIAN_POINT('',(-7.966118645784,-10.76307038369,
    7.089395682364));
#949 = CARTESIAN_POINT('',(-7.952741343939,-10.7794930237,7.162115259765
    ));
#950 = CARTESIAN_POINT('',(-7.938404830484,-10.79717158615,
    7.234511272322));
#951 = CARTESIAN_POINT('',(-7.923132520907,-10.81609807798,
    7.306559259277));
#952 = CARTESIAN_POINT('',(-7.906949298528,-10.83626434503,7.37823626589
    ));
#953 = CARTESIAN_POINT('',(-7.889881157243,-10.85766228331,
    7.449520741462));
#954 = CARTESIAN_POINT('',(-7.816753786302,-10.94994396723,
    7.738629873991));
#955 = CARTESIAN_POINT('',(-7.753424000709,-11.03119776003,
    7.952918534056));
#956 = CARTESIAN_POINT('',(-7.682738838025,-11.12382460799,
    8.162720778918));
#957 = CARTESIAN_POINT('',(-7.605535579898,-11.2276367746,8.36757682519)
  );
#958 = CARTESIAN_POINT('',(-7.522645331862,-11.34250177502,
    8.567074771967));
#959 = CARTESIAN_POINT('',(-7.434844818039,-11.46837681921,
    8.760823640717));
#960 = CARTESIAN_POINT('',(-7.234814371316,-11.76615424873,
    9.168659051538));
#961 = CARTESIAN_POINT('',(-7.121050889006,-11.94216618189,
    9.380301557297));
#962 = CARTESIAN_POINT('',(-7.002625861307,-12.13358733105,
    9.582837587265));
#963 = CARTESIAN_POINT('',(-6.88059814172,-12.34070827411,9.77541362872)
  );
#964 = CARTESIAN_POINT('',(-6.756013292739,-12.56383511189,
    9.956890750301));
#965 = CARTESIAN_POINT('',(-6.62988913784,-12.80327555893,
    10.125835514059));
#966 = CARTESIAN_POINT('',(-6.451825702086,-13.16317107546,
    10.343106057563));
#967 = CARTESIAN_POINT('',(-6.400393044766,-13.26966643679,
    10.403392276915));
#968 = CARTESIAN_POINT('',(-6.348944263257,-13.37888519522,
    10.461186382764));
#969 = CARTESIAN_POINT('',(-6.297552941778,-13.49082419445,
    10.516347585534));
#970 = CARTESIAN_POINT('',(-6.246296125697,-13.60546539032,
    10.568721921463));
#971 = CARTESIAN_POINT('',(-6.195253654186,-13.72277305117,
    10.618144529401));
#972 = CARTESIAN_POINT('',(-6.049255867036,-14.06777942429,
    10.751343130286));
#973 = CARTESIAN_POINT('',(-5.955019211621,-14.3021326171,
    10.827260054586));
#974 = CARTESIAN_POINT('',(-5.862381311721,-14.54529114896,
    10.890997574112));
#975 = CARTESIAN_POINT('',(-5.771974652381,-14.79645437312,
    10.941258819417));
#976 = CARTESIAN_POINT('',(-5.684441736885,-15.05440725552,
    10.976772396335));
#977 = CARTESIAN_POINT('',(-5.600391870035,-15.3174384647,
    10.996430480921));
#978 = CARTESIAN_POINT('',(-5.520381344888,-15.58321236296,
    10.999636298167));
#979 = ORIENTED_EDGE('',*,*,#980,.T.);
#980 = EDGE_CURVE('',#824,#822,#981,.T.);
#981 = B_SPLINE_CURVE_WITH_KNOTS('',3,(#982,#983,#984,#985,#986),
  .UNSPECIFIED.,.F.,.F.,(4,1,4),(0.,0.837334410341,1.),.UNSPECIFIED.);
#982 = CARTESIAN_POINT('',(-5.520381344888,-15.58321236296,
    10.999636298167));
#983 = CARTESIAN_POINT('',(-5.515317081954,-15.60003451104,
    10.99983921024));
#984 = CARTESIAN_POINT('',(-5.509298044461,-15.62012748761,
    10.999980250207));
#985 = CARTESIAN_POINT('',(-5.50330681318,-15.64024628317,
    10.999999995276));
#986 = CARTESIAN_POINT('',(-5.502333167033,-15.64351896333,11.));
#987 = SURFACE_OF_LINEAR_EXTRUSION('',#988,#994);
#988 = B_SPLINE_CURVE_WITH_KNOTS('',3,(#989,#990,#991,#992,#993),
  .UNSPECIFIED.,.F.,.F.,(4,1,4),(0.,1.,2.),.QUASI_UNIFORM_KNOTS.);
#989 = CARTESIAN_POINT('',(-4.5,-21.65,0.));
#990 = CARTESIAN_POINT('',(-5.309079,-9.7913,0.));
#991 = CARTESIAN_POINT('',(-16.23324,-5.278914,0.));
#992 = CARTESIAN_POINT('',(-28.9581,-4.23366,0.));
#993 = CARTESIAN_POINT('',(-38.,-4.,0.));
#994 = VECTOR('',#995,1.);
#995 = DIRECTION('',(-0.,-0.,-1.));
#996 = ADVANCED_FACE('',(#997),#1008,.F.);
#997 = FACE_BOUND('',#998,.F.);
#998 = EDGE_LOOP('',(#999,#1005,#1006,#1007));
#999 = ORIENTED_EDGE('',*,*,#1000,.T.);
#1000 = EDGE_CURVE('',#239,#273,#1001,.T.);
#1001 = LINE('',#1002,#1003);
#1002 = CARTESIAN_POINT('',(-38.,4.4E-16,0.));
#1003 = VECTOR('',#1004,1.);
#1004 = DIRECTION('',(0.,0.,1.));
#1005 = ORIENTED_EDGE('',*,*,#280,.T.);
#1006 = ORIENTED_EDGE('',*,*,#812,.F.);
#1007 = ORIENTED_EDGE('',*,*,#238,.F.);
#1008 = PLANE('',#1009);
#1009 = AXIS2_PLACEMENT_3D('',#1010,#1011,#1012);
#1010 = CARTESIAN_POINT('',(-38.,4.4E-16,0.));
#1011 = DIRECTION('',(1.,0.,0.));
#1012 = DIRECTION('',(0.,-1.,0.));
#1013 = ADVANCED_FACE('',(#1014),#1020,.F.);
#1014 = FACE_BOUND('',#1015,.F.);
#1015 = EDGE_LOOP('',(#1016,#1017,#1018,#1019));
#1016 = ORIENTED_EDGE('',*,*,#627,.T.);
#1017 = ORIENTED_EDGE('',*,*,#272,.T.);
#1018 = ORIENTED_EDGE('',*,*,#1000,.F.);
#1019 = ORIENTED_EDGE('',*,*,#246,.F.);
#1020 = PLANE('',#1021);
#1021 = AXIS2_PLACEMENT_3D('',#1022,#1023,#1024);
#1022 = CARTESIAN_POINT('',(-18.,5.7E-16,0.));
#1023 = DIRECTION('',(1.E-17,-1.,0.));
#1024 = DIRECTION('',(-1.,-1.E-17,0.));
#1025 = ADVANCED_FACE('',(#1026,#1219),#1223,.F.);
#1026 = FACE_BOUND('',#1027,.F.);
#1027 = EDGE_LOOP('',(#1028,#1072,#1103,#1113,#1169,#1211));
#1028 = ORIENTED_EDGE('',*,*,#1029,.F.);
#1029 = EDGE_CURVE('',#1030,#1032,#1034,.T.);
#1030 = VERTEX_POINT('',#1031);
#1031 = CARTESIAN_POINT('',(5.502333167033,-15.64351896333,
    10.907477288112));
#1032 = VERTEX_POINT('',#1033);
#1033 = CARTESIAN_POINT('',(4.661395530817,-19.89351896333,
    8.453738644056));
#1034 = B_SPLINE_CURVE_WITH_KNOTS('',8,(#1035,#1036,#1037,#1038,#1039,
    #1040,#1041,#1042,#1043,#1044,#1045,#1046,#1047,#1048,#1049,#1050,
    #1051,#1052,#1053,#1054,#1055,#1056,#1057,#1058,#1059,#1060,#1061,
    #1062,#1063,#1064,#1065,#1066,#1067,#1068,#1069,#1070,#1071),
  .UNSPECIFIED.,.F.,.F.,(9,7,7,7,7,9),(0.,0.501206544943,0.749758059177,
    0.87611794907,0.939227147484,1.),.UNSPECIFIED.);
#1035 = CARTESIAN_POINT('',(5.502333167033,-15.64351896333,
    10.907477288112));
#1036 = CARTESIAN_POINT('',(5.424186918515,-15.90618970968,
    10.755824261995));
#1037 = CARTESIAN_POINT('',(5.350412422271,-16.16964340167,
    10.603719202011));
#1038 = CARTESIAN_POINT('',(5.280794284532,-16.43379109382,
    10.451213460841));
#1039 = CARTESIAN_POINT('',(5.215132486213,-16.69855325447,
    10.298352956119));
#1040 = CARTESIAN_POINT('',(5.1532411123,-16.96385957415,10.145178281032
    ));
#1041 = CARTESIAN_POINT('',(5.094947081247,-17.22964877405,
    9.991724814925));
#1042 = CARTESIAN_POINT('',(5.040088874372,-17.4958684144,9.838022833903
    ));
#1043 = CARTESIAN_POINT('',(4.962939584382,-17.89468645755,9.60776512933
    ));
#1044 = CARTESIAN_POINT('',(4.938171750892,-18.02699274157,
    9.531378060637));
#1045 = CARTESIAN_POINT('',(4.914193457848,-18.15938792554,
    9.454939665535));
#1046 = CARTESIAN_POINT('',(4.890986999214,-18.29186669766,
    9.378453010789));
#1047 = CARTESIAN_POINT('',(4.868535269848,-18.42442406382,
    9.301920979755));
#1048 = CARTESIAN_POINT('',(4.846821765499,-18.55705534756,
    9.225346272379));
#1049 = CARTESIAN_POINT('',(4.825830582814,-18.68975619014,
    9.148731405199));
#1050 = CARTESIAN_POINT('',(4.795234252564,-18.89001899165,
    9.033109622834));
#1051 = CARTESIAN_POINT('',(4.78510481124,-18.95753235456,8.994130764588
    ));
#1052 = CARTESIAN_POINT('',(4.775156079189,-19.02506210194,
    8.955142446756));
#1053 = CARTESIAN_POINT('',(4.765386074932,-19.09260771286,8.91614497011
    ));
#1054 = CARTESIAN_POINT('',(4.755792851683,-19.16016868261,8.87713862604
    ));
#1055 = CARTESIAN_POINT('',(4.746374497343,-19.22774452274,8.83812369655
    ));
#1056 = CARTESIAN_POINT('',(4.737129134507,-19.29533476106,
    8.799100454263));
#1057 = CARTESIAN_POINT('',(4.723522893913,-19.39670318159,
    8.740575369381));
#1058 = CARTESIAN_POINT('',(4.719033558568,-19.43047089903,
    8.721079568628));
#1059 = CARTESIAN_POINT('',(4.714586684694,-19.46424203699,
    8.701581793036));
#1060 = CARTESIAN_POINT('',(4.710182044563,-19.4980165394,8.682082074975
    ));
#1061 = CARTESIAN_POINT('',(4.705819412447,-19.5317943511,8.662580446301
    ));
#1062 = CARTESIAN_POINT('',(4.701498564622,-19.56557541777,
    8.643076938361));
#1063 = CARTESIAN_POINT('',(4.697219279363,-19.59935968603,
    8.623571581988));
#1064 = CARTESIAN_POINT('',(4.68890028607,-19.66568368725,8.585279402029
    ));
#1065 = CARTESIAN_POINT('',(4.684857572157,-19.69822318828,
    8.566492712351));
#1066 = CARTESIAN_POINT('',(4.680853008971,-19.73076558139,
    8.547704352932));
#1067 = CARTESIAN_POINT('',(4.676886369704,-19.76331075048,
    8.528914390797));
#1068 = CARTESIAN_POINT('',(4.672957524073,-19.79585878187,
    8.510122776111));
#1069 = CARTESIAN_POINT('',(4.669066199972,-19.82840947008,
    8.491329627508));
#1070 = CARTESIAN_POINT('',(4.665212279062,-19.86096289897,
    8.472534896576));
#1071 = CARTESIAN_POINT('',(4.661395530817,-19.89351896333,
    8.453738644056));
#1072 = ORIENTED_EDGE('',*,*,#1073,.T.);
#1073 = EDGE_CURVE('',#1030,#1074,#1076,.T.);
#1074 = VERTEX_POINT('',#1075);
#1075 = CARTESIAN_POINT('',(7.488528499752,-11.39351896333,
    8.453738644056));
#1076 = B_SPLINE_CURVE_WITH_KNOTS('',5,(#1077,#1078,#1079,#1080,#1081,
    #1082,#1083,#1084,#1085,#1086,#1087,#1088,#1089,#1090,#1091,#1092,
    #1093,#1094,#1095,#1096,#1097,#1098,#1099,#1100,#1101,#1102),
  .UNSPECIFIED.,.F.,.F.,(6,4,4,4,4,4,6),(0.,0.486373026138,
    0.737399146568,0.868590176605,0.935251193753,0.966202987854,1.),
  .UNSPECIFIED.);
#1077 = CARTESIAN_POINT('',(5.502333167033,-15.64351896333,
    10.907477288112));
#1078 = CARTESIAN_POINT('',(5.630175980072,-15.2138045794,
    10.659381572875));
#1079 = CARTESIAN_POINT('',(5.77081030212,-14.78640128604,
    10.412620166401));
#1080 = CARTESIAN_POINT('',(5.925528348862,-14.36182474289,
    10.167490784921));
#1081 = CARTESIAN_POINT('',(6.095830391114,-13.94086589957,
    9.924450083414));
#1082 = CARTESIAN_POINT('',(6.380273953191,-13.30974908676,
    9.560074621647));
#1083 = CARTESIAN_POINT('',(6.481713782876,-13.09615666404,
    9.436756978891));
#1084 = CARTESIAN_POINT('',(6.587997929718,-12.88396783235,
    9.314249699798));
#1085 = CARTESIAN_POINT('',(6.699371766886,-12.67336452691,
    9.192657824709));
#1086 = CARTESIAN_POINT('',(6.877077544691,-12.35543070248,
    9.009098645591));
#1087 = CARTESIAN_POINT('',(6.939530192498,-12.24679485701,
    8.946377710967));
#1088 = CARTESIAN_POINT('',(7.003475556765,-12.13868010396,
    8.883957629191));
#1089 = CARTESIAN_POINT('',(7.068948300725,-12.03111926817,
    8.821857351689));
#1090 = CARTESIAN_POINT('',(7.170044038091,-11.8697930911,8.728715639933
    ));
#1091 = CARTESIAN_POINT('',(7.204508706861,-11.81559064151,
    8.697421841069));
#1092 = CARTESIAN_POINT('',(7.239380959934,-11.76154497202,
    8.666218559243));
#1093 = CARTESIAN_POINT('',(7.27466515664,-11.70766088935,8.635108569606
    ));
#1094 = CARTESIAN_POINT('',(7.326941843348,-11.62900144939,
    8.589694520771));
#1095 = CARTESIAN_POINT('',(7.343631715169,-11.60405953519,
    8.575294299893));
#1096 = CARTESIAN_POINT('',(7.360436589857,-11.57911762547,
    8.560894081606));
#1097 = CARTESIAN_POINT('',(7.377357920037,-11.55417572038,
    8.546493865985));
#1098 = CARTESIAN_POINT('',(7.413002802515,-11.50199915617,
    8.516369712595));
#1099 = CARTESIAN_POINT('',(7.431718208921,-11.474809651,8.500671844467)
  );
#1100 = CARTESIAN_POINT('',(7.450543915917,-11.44766598514,
    8.485000441674));
#1101 = CARTESIAN_POINT('',(7.469480476376,-11.4205688531,8.469355905197
    ));
#1102 = CARTESIAN_POINT('',(7.488528499752,-11.39351896333,
    8.453738644056));
#1103 = ORIENTED_EDGE('',*,*,#1104,.T.);
#1104 = EDGE_CURVE('',#1074,#1105,#1107,.T.);
#1105 = VERTEX_POINT('',#1106);
#1106 = CARTESIAN_POINT('',(7.488528499752,-11.39351896333,
    3.546261355944));
#1107 = B_SPLINE_CURVE_WITH_KNOTS('',4,(#1108,#1109,#1110,#1111,#1112),
  .UNSPECIFIED.,.F.,.F.,(5,5),(0.,1.),.PIECEWISE_BEZIER_KNOTS.);
#1108 = CARTESIAN_POINT('',(7.488528499752,-11.39351896333,
    8.453738644056));
#1109 = CARTESIAN_POINT('',(7.488528499752,-11.39351896333,
    7.226869322028));
#1110 = CARTESIAN_POINT('',(7.488528499752,-11.39351896333,6.));
#1111 = CARTESIAN_POINT('',(7.488528499752,-11.39351896333,
    4.773130677972));
#1112 = CARTESIAN_POINT('',(7.488528499752,-11.39351896333,
    3.546261355944));
#1113 = ORIENTED_EDGE('',*,*,#1114,.T.);
#1114 = EDGE_CURVE('',#1105,#1115,#1117,.T.);
#1115 = VERTEX_POINT('',#1116);
#1116 = CARTESIAN_POINT('',(5.502333167033,-15.64351896333,
    1.092522711888));
#1117 = B_SPLINE_CURVE_WITH_KNOTS('',8,(#1118,#1119,#1120,#1121,#1122,
    #1123,#1124,#1125,#1126,#1127,#1128,#1129,#1130,#1131,#1132,#1133,
    #1134,#1135,#1136,#1137,#1138,#1139,#1140,#1141,#1142,#1143,#1144,
    #1145,#1146,#1147,#1148,#1149,#1150,#1151,#1152,#1153,#1154,#1155,
    #1156,#1157,#1158,#1159,#1160,#1161,#1162,#1163,#1164,#1165,#1166,
    #1167,#1168),.UNSPECIFIED.,.F.,.F.,(9,7,7,7,7,7,7,9),(0.,
    6.410230325834E-02,0.540554440834,0.770174223763,0.883671262267,
    0.940239969596,0.968524323275,1.),.UNSPECIFIED.);
#1118 = CARTESIAN_POINT('',(7.488528499752,-11.39351896333,
    3.546261355944));
#1119 = CARTESIAN_POINT('',(7.470795461585,-11.41870147042,
    3.531722228693));
#1120 = CARTESIAN_POINT('',(7.449243657651,-11.44946988726,
    3.513958074953));
#1121 = CARTESIAN_POINT('',(7.42642034169,-11.48233121967,3.494985575838
    ));
#1122 = CARTESIAN_POINT('',(7.403976994933,-11.51497483581,
    3.476138775274));
#1123 = CARTESIAN_POINT('',(7.382642319317,-11.54625649512,
    3.458078300846));
#1124 = CARTESIAN_POINT('',(7.362342441908,-11.57623697763,
    3.440769061202));
#1125 = CARTESIAN_POINT('',(7.34220066183,-11.60617767786,3.423482789864
    ));
#1126 = CARTESIAN_POINT('',(7.160105777212,-11.87924588991,3.26582678413
    ));
#1127 = CARTESIAN_POINT('',(7.007273250807,-12.12300244362,
    3.125093872227));
#1128 = CARTESIAN_POINT('',(6.861822194335,-12.36950899466,
    2.982773248626));
#1129 = CARTESIAN_POINT('',(6.723451010934,-12.61846974831,
    2.839035690494));
#1130 = CARTESIAN_POINT('',(6.591853010951,-12.86961680049,
    2.694035872308));
#1131 = CARTESIAN_POINT('',(6.466723448889,-13.12271249805,
    2.547911003192));
#1132 = CARTESIAN_POINT('',(6.347764039047,-13.37755094279,
    2.400779958519));
#1133 = CARTESIAN_POINT('',(6.180187983853,-13.75753092521,
    2.181398413385));
#1134 = CARTESIAN_POINT('',(6.127057421562,-13.88146632835,
    2.109844275021));
#1135 = CARTESIAN_POINT('',(6.075261088142,-14.00574467743,
    2.038092136721));
#1136 = CARTESIAN_POINT('',(6.02476754553,-14.13034693901,1.966152987461
    ));
#1137 = CARTESIAN_POINT('',(5.975546092401,-14.25525521764,1.89403715917
    ));
#1138 = CARTESIAN_POINT('',(5.927566764168,-14.38045275594,
    1.821754326729));
#1139 = CARTESIAN_POINT('',(5.880800332979,-14.50592393456,
    1.749313507978));
#1140 = CARTESIAN_POINT('',(5.812687910693,-14.69380057677,
    1.640842878024));
#1141 = CARTESIAN_POINT('',(5.790446895663,-14.7560101645,1.604926155799
    ));
#1142 = CARTESIAN_POINT('',(5.76849183051,-14.81828126991,1.568973916328
    ));
#1143 = CARTESIAN_POINT('',(5.746819331339,-14.88061218141,
    1.532987147798));
#1144 = CARTESIAN_POINT('',(5.725426062483,-14.94300124127,1.49696680729
    ));
#1145 = CARTESIAN_POINT('',(5.704308736503,-15.00544684567,
    1.460913820779));
#1146 = CARTESIAN_POINT('',(5.683464114188,-15.06794744465,
    1.424829083135));
#1147 = CARTESIAN_POINT('',(5.652634046625,-15.16167948719,1.37071286314
    ));
#1148 = CARTESIAN_POINT('',(5.642450411927,-15.19285743105,
    1.352712268865));
#1149 = CARTESIAN_POINT('',(5.632337538277,-15.22403537369,
    1.334711675288));
#1150 = CARTESIAN_POINT('',(5.622294871411,-15.25521331513,
    1.316711082404));
#1151 = CARTESIAN_POINT('',(5.612321864988,-15.28639125538,
    1.298710490206));
#1152 = CARTESIAN_POINT('',(5.602417980587,-15.31756919446,
    1.280709898687));
#1153 = CARTESIAN_POINT('',(5.592582687712,-15.34874713237,
    1.262709307839));
#1154 = CARTESIAN_POINT('',(5.577931851818,-15.39551403754,
    1.235708422554));
#1155 = CARTESIAN_POINT('',(5.573065257034,-15.41110300565,
    1.226708127619));
#1156 = CARTESIAN_POINT('',(5.568215614073,-15.42669197348,
    1.217707832846));
#1157 = CARTESIAN_POINT('',(5.563382858036,-15.44228094103,
    1.208707538234));
#1158 = CARTESIAN_POINT('',(5.558566924485,-15.4578699083,1.199707243782
    ));
#1159 = CARTESIAN_POINT('',(5.55376774944,-15.4734588753,1.190706949489)
  );
#1160 = CARTESIAN_POINT('',(5.548985269382,-15.48904784203,
    1.181706655353));
#1161 = CARTESIAN_POINT('',(5.538915842579,-15.5219846777,1.16269056441)
  );
#1162 = CARTESIAN_POINT('',(5.533631759705,-15.5393361438,1.152672690786
    ));
#1163 = CARTESIAN_POINT('',(5.528367110541,-15.55669118034,1.14265275577
    ));
#1164 = CARTESIAN_POINT('',(5.523121832566,-15.57404976043,
    1.132630774884));
#1165 = CARTESIAN_POINT('',(5.517895862827,-15.59141185674,
    1.122606763902));
#1166 = CARTESIAN_POINT('',(5.51268913794,-15.60877744153,1.112580738848
    ));
#1167 = CARTESIAN_POINT('',(5.507501594091,-15.62614648661,1.102552716)
  );
#1168 = CARTESIAN_POINT('',(5.502333167033,-15.64351896333,
    1.092522711888));
#1169 = ORIENTED_EDGE('',*,*,#1170,.T.);
#1170 = EDGE_CURVE('',#1115,#1171,#1173,.T.);
#1171 = VERTEX_POINT('',#1172);
#1172 = CARTESIAN_POINT('',(4.661395530817,-19.89351896333,
    3.546261355944));
#1173 = B_SPLINE_CURVE_WITH_KNOTS('',8,(#1174,#1175,#1176,#1177,#1178,
    #1179,#1180,#1181,#1182,#1183,#1184,#1185,#1186,#1187,#1188,#1189,
    #1190,#1191,#1192,#1193,#1194,#1195,#1196,#1197,#1198,#1199,#1200,
    #1201,#1202,#1203,#1204,#1205,#1206,#1207,#1208,#1209,#1210),
  .UNSPECIFIED.,.F.,.F.,(9,7,7,7,7,9),(0.,0.501206544942,0.749758059176,
    0.876117949069,0.939227147483,1.),.UNSPECIFIED.);
#1174 = CARTESIAN_POINT('',(5.502333167033,-15.64351896333,
    1.092522711888));
#1175 = CARTESIAN_POINT('',(5.424186918515,-15.90618970968,
    1.244175738005));
#1176 = CARTESIAN_POINT('',(5.350412422271,-16.16964340167,
    1.396280797989));
#1177 = CARTESIAN_POINT('',(5.280794284532,-16.43379109382,
    1.548786539159));
#1178 = CARTESIAN_POINT('',(5.215132486213,-16.69855325447,
    1.701647043881));
#1179 = CARTESIAN_POINT('',(5.1532411123,-16.96385957415,1.854821718968)
  );
#1180 = CARTESIAN_POINT('',(5.094947081247,-17.22964877405,
    2.008275185075));
#1181 = CARTESIAN_POINT('',(5.040088874372,-17.4958684144,2.161977166097
    ));
#1182 = CARTESIAN_POINT('',(4.962939584382,-17.89468645755,2.39223487067
    ));
#1183 = CARTESIAN_POINT('',(4.938171750892,-18.02699274157,
    2.468621939363));
#1184 = CARTESIAN_POINT('',(4.914193457848,-18.15938792554,
    2.545060334465));
#1185 = CARTESIAN_POINT('',(4.890986999214,-18.29186669766,
    2.621546989211));
#1186 = CARTESIAN_POINT('',(4.868535269848,-18.42442406382,
    2.698079020245));
#1187 = CARTESIAN_POINT('',(4.846821765499,-18.55705534756,2.77465372762
    ));
#1188 = CARTESIAN_POINT('',(4.825830582814,-18.68975619014,
    2.851268594801));
#1189 = CARTESIAN_POINT('',(4.795234252564,-18.89001899165,
    2.966890377166));
#1190 = CARTESIAN_POINT('',(4.78510481124,-18.95753235456,3.005869235412
    ));
#1191 = CARTESIAN_POINT('',(4.775156079189,-19.02506210194,
    3.044857553244));
#1192 = CARTESIAN_POINT('',(4.765386074932,-19.09260771286,3.08385502989
    ));
#1193 = CARTESIAN_POINT('',(4.755792851683,-19.16016868261,3.12286137396
    ));
#1194 = CARTESIAN_POINT('',(4.746374497343,-19.22774452274,3.16187630345
    ));
#1195 = CARTESIAN_POINT('',(4.737129134507,-19.29533476106,
    3.200899545737));
#1196 = CARTESIAN_POINT('',(4.723522893913,-19.39670318159,
    3.259424630619));
#1197 = CARTESIAN_POINT('',(4.719033558568,-19.43047089903,
    3.278920431372));
#1198 = CARTESIAN_POINT('',(4.714586684694,-19.46424203699,
    3.298418206964));
#1199 = CARTESIAN_POINT('',(4.710182044563,-19.4980165394,3.317917925025
    ));
#1200 = CARTESIAN_POINT('',(4.705819412447,-19.5317943511,3.337419553699
    ));
#1201 = CARTESIAN_POINT('',(4.701498564622,-19.56557541777,
    3.356923061639));
#1202 = CARTESIAN_POINT('',(4.697219279363,-19.59935968603,
    3.376428418012));
#1203 = CARTESIAN_POINT('',(4.68890028607,-19.66568368725,3.414720597971
    ));
#1204 = CARTESIAN_POINT('',(4.684857572158,-19.69822318828,
    3.433507287648));
#1205 = CARTESIAN_POINT('',(4.68085300897,-19.73076558139,3.452295647071
    ));
#1206 = CARTESIAN_POINT('',(4.676886369705,-19.76331075047,3.4710856092)
  );
#1207 = CARTESIAN_POINT('',(4.672957524072,-19.79585878187,
    3.489877223891));
#1208 = CARTESIAN_POINT('',(4.669066199973,-19.82840947008,
    3.508670372491));
#1209 = CARTESIAN_POINT('',(4.665212279062,-19.86096289897,
    3.527465103424));
#1210 = CARTESIAN_POINT('',(4.661395530817,-19.89351896333,
    3.546261355944));
#1211 = ORIENTED_EDGE('',*,*,#1212,.F.);
#1212 = EDGE_CURVE('',#1032,#1171,#1213,.T.);
#1213 = B_SPLINE_CURVE_WITH_KNOTS('',4,(#1214,#1215,#1216,#1217,#1218),
  .UNSPECIFIED.,.F.,.F.,(5,5),(0.,1.),.PIECEWISE_BEZIER_KNOTS.);
#1214 = CARTESIAN_POINT('',(4.661395530817,-19.89351896333,
    8.453738644056));
#1215 = CARTESIAN_POINT('',(4.661395530817,-19.89351896333,
    7.226869322028));
#1216 = CARTESIAN_POINT('',(4.661395530817,-19.89351896333,6.));
#1217 = CARTESIAN_POINT('',(4.661395530817,-19.89351896333,
    4.773130677972));
#1218 = CARTESIAN_POINT('',(4.661395530817,-19.89351896333,
    3.546261355944));
#1219 = FACE_BOUND('',#1220,.F.);
#1220 = EDGE_LOOP('',(#1221,#1222));
#1221 = ORIENTED_EDGE('',*,*,#399,.T.);
#1222 = ORIENTED_EDGE('',*,*,#416,.T.);
#1223 = SURFACE_OF_LINEAR_EXTRUSION('',#1224,#1230);
#1224 = B_SPLINE_CURVE_WITH_KNOTS('',3,(#1225,#1226,#1227,#1228,#1229),
  .UNSPECIFIED.,.F.,.F.,(4,1,4),(0.,1.,2.),.QUASI_UNIFORM_KNOTS.);
#1225 = CARTESIAN_POINT('',(4.5,-21.65,0.));
#1226 = CARTESIAN_POINT('',(5.309079,-9.7913,0.));
#1227 = CARTESIAN_POINT('',(16.23324,-5.278914,0.));
#1228 = CARTESIAN_POINT('',(28.9581,-4.23366,0.));
#1229 = CARTESIAN_POINT('',(38.,-4.,0.));
#1230 = VECTOR('',#1231,1.);
#1231 = DIRECTION('',(-0.,-0.,-1.));
#1232 = ADVANCED_FACE('',(#1233,#1244),#1247,.T.);
#1233 = FACE_BOUND('',#1234,.T.);
#1234 = EDGE_LOOP('',(#1235));
#1235 = ORIENTED_EDGE('',*,*,#1236,.T.);
#1236 = EDGE_CURVE('',#1237,#1237,#1239,.T.);
#1237 = VERTEX_POINT('',#1238);
#1238 = CARTESIAN_POINT('',(-4.1,-15.64351896333,11.));
#1239 = CIRCLE('',#1240,5.);
#1240 = AXIS2_PLACEMENT_3D('',#1241,#1242,#1243);
#1241 = CARTESIAN_POINT('',(-4.1,-15.64351896333,6.));
#1242 = DIRECTION('',(-1.,0.,0.));
#1243 = DIRECTION('',(0.,0.,1.));
#1244 = FACE_BOUND('',#1245,.T.);
#1245 = EDGE_LOOP('',(#1246));
#1246 = ORIENTED_EDGE('',*,*,#610,.F.);
#1247 = PLANE('',#1248);
#1248 = AXIS2_PLACEMENT_3D('',#1249,#1250,#1251);
#1249 = CARTESIAN_POINT('',(-4.1,-15.64351896333,6.));
#1250 = DIRECTION('',(-1.,-0.,-0.));
#1251 = DIRECTION('',(0.,0.,1.));
#1252 = ADVANCED_FACE('',(#1253),#1269,.F.);
#1253 = FACE_BOUND('',#1254,.F.);
#1254 = EDGE_LOOP('',(#1255,#1256,#1262,#1263));
#1255 = ORIENTED_EDGE('',*,*,#1073,.F.);
#1256 = ORIENTED_EDGE('',*,*,#1257,.T.);
#1257 = EDGE_CURVE('',#1030,#755,#1258,.T.);
#1258 = LINE('',#1259,#1260);
#1259 = CARTESIAN_POINT('',(0.5,-15.64351896333,10.907477288112));
#1260 = VECTOR('',#1261,1.);
#1261 = DIRECTION('',(1.,-3.11E-15,0.));
#1262 = ORIENTED_EDGE('',*,*,#754,.T.);
#1263 = ORIENTED_EDGE('',*,*,#1264,.F.);
#1264 = EDGE_CURVE('',#1074,#757,#1265,.T.);
#1265 = LINE('',#1266,#1267);
#1266 = CARTESIAN_POINT('',(0.5,-11.39351896333,8.453738644056));
#1267 = VECTOR('',#1268,1.);
#1268 = DIRECTION('',(1.,-3.11E-15,0.));
#1269 = PLANE('',#1270);
#1270 = AXIS2_PLACEMENT_3D('',#1271,#1272,#1273);
#1271 = CARTESIAN_POINT('',(0.5,-15.64351896333,10.907477288112));
#1272 = DIRECTION('',(1.55E-15,0.5,0.866025403784));
#1273 = DIRECTION('',(2.69E-15,0.866025403784,-0.5));
#1274 = ADVANCED_FACE('',(#1275),#1286,.F.);
#1275 = FACE_BOUND('',#1276,.F.);
#1276 = EDGE_LOOP('',(#1277,#1278,#1284,#1285));
#1277 = ORIENTED_EDGE('',*,*,#1029,.T.);
#1278 = ORIENTED_EDGE('',*,*,#1279,.T.);
#1279 = EDGE_CURVE('',#1032,#789,#1280,.T.);
#1280 = LINE('',#1281,#1282);
#1281 = CARTESIAN_POINT('',(0.5,-19.89351896333,8.453738644056));
#1282 = VECTOR('',#1283,1.);
#1283 = DIRECTION('',(1.,-3.11E-15,0.));
#1284 = ORIENTED_EDGE('',*,*,#796,.T.);
#1285 = ORIENTED_EDGE('',*,*,#1257,.F.);
#1286 = PLANE('',#1287);
#1287 = AXIS2_PLACEMENT_3D('',#1288,#1289,#1290);
#1288 = CARTESIAN_POINT('',(0.5,-19.89351896333,8.453738644056));
#1289 = DIRECTION('',(-1.55E-15,-0.5,0.866025403784));
#1290 = DIRECTION('',(2.69E-15,0.866025403784,0.5));
#1291 = ADVANCED_FACE('',(#1292),#1303,.F.);
#1292 = FACE_BOUND('',#1293,.F.);
#1293 = EDGE_LOOP('',(#1294,#1295,#1296,#1297));
#1294 = ORIENTED_EDGE('',*,*,#1104,.F.);
#1295 = ORIENTED_EDGE('',*,*,#1264,.T.);
#1296 = ORIENTED_EDGE('',*,*,#764,.T.);
#1297 = ORIENTED_EDGE('',*,*,#1298,.F.);
#1298 = EDGE_CURVE('',#1105,#765,#1299,.T.);
#1299 = LINE('',#1300,#1301);
#1300 = CARTESIAN_POINT('',(0.5,-11.39351896333,3.546261355944));
#1301 = VECTOR('',#1302,1.);
#1302 = DIRECTION('',(1.,-3.11E-15,0.));
#1303 = PLANE('',#1304);
#1304 = AXIS2_PLACEMENT_3D('',#1305,#1306,#1307);
#1305 = CARTESIAN_POINT('',(0.5,-11.39351896333,8.453738644056));
#1306 = DIRECTION('',(3.11E-15,1.,0.));
#1307 = DIRECTION('',(0.,0.,-1.));
#1308 = ADVANCED_FACE('',(#1309),#1320,.F.);
#1309 = FACE_BOUND('',#1310,.F.);
#1310 = EDGE_LOOP('',(#1311,#1312,#1318,#1319));
#1311 = ORIENTED_EDGE('',*,*,#1212,.T.);
#1312 = ORIENTED_EDGE('',*,*,#1313,.T.);
#1313 = EDGE_CURVE('',#1171,#781,#1314,.T.);
#1314 = LINE('',#1315,#1316);
#1315 = CARTESIAN_POINT('',(0.5,-19.89351896333,3.546261355944));
#1316 = VECTOR('',#1317,1.);
#1317 = DIRECTION('',(1.,-3.11E-15,0.));
#1318 = ORIENTED_EDGE('',*,*,#788,.T.);
#1319 = ORIENTED_EDGE('',*,*,#1279,.F.);
#1320 = PLANE('',#1321);
#1321 = AXIS2_PLACEMENT_3D('',#1322,#1323,#1324);
#1322 = CARTESIAN_POINT('',(0.5,-19.89351896333,3.546261355944));
#1323 = DIRECTION('',(-3.11E-15,-1.,7.2E-16));
#1324 = DIRECTION('',(0.,7.2E-16,1.));
#1325 = ADVANCED_FACE('',(#1326),#1337,.F.);
#1326 = FACE_BOUND('',#1327,.F.);
#1327 = EDGE_LOOP('',(#1328,#1329,#1330,#1331));
#1328 = ORIENTED_EDGE('',*,*,#1114,.F.);
#1329 = ORIENTED_EDGE('',*,*,#1298,.T.);
#1330 = ORIENTED_EDGE('',*,*,#772,.T.);
#1331 = ORIENTED_EDGE('',*,*,#1332,.F.);
#1332 = EDGE_CURVE('',#1115,#773,#1333,.T.);
#1333 = LINE('',#1334,#1335);
#1334 = CARTESIAN_POINT('',(0.5,-15.64351896333,1.092522711888));
#1335 = VECTOR('',#1336,1.);
#1336 = DIRECTION('',(1.,-3.11E-15,0.));
#1337 = PLANE('',#1338);
#1338 = AXIS2_PLACEMENT_3D('',#1339,#1340,#1341);
#1339 = CARTESIAN_POINT('',(0.5,-11.39351896333,3.546261355944));
#1340 = DIRECTION('',(1.55E-15,0.5,-0.866025403784));
#1341 = DIRECTION('',(-2.69E-15,-0.866025403784,-0.5));
#1342 = ADVANCED_FACE('',(#1343),#1349,.F.);
#1343 = FACE_BOUND('',#1344,.F.);
#1344 = EDGE_LOOP('',(#1345,#1346,#1347,#1348));
#1345 = ORIENTED_EDGE('',*,*,#1170,.F.);
#1346 = ORIENTED_EDGE('',*,*,#1332,.T.);
#1347 = ORIENTED_EDGE('',*,*,#780,.T.);
#1348 = ORIENTED_EDGE('',*,*,#1313,.F.);
#1349 = PLANE('',#1350);
#1350 = AXIS2_PLACEMENT_3D('',#1351,#1352,#1353);
#1351 = CARTESIAN_POINT('',(0.5,-15.64351896333,1.092522711888));
#1352 = DIRECTION('',(-1.55E-15,-0.5,-0.866025403784));
#1353 = DIRECTION('',(-2.69E-15,-0.866025403784,0.5));
#1354 = ADVANCED_FACE('',(#1355),#1367,.F.);
#1355 = FACE_BOUND('',#1356,.T.);
#1356 = EDGE_LOOP('',(#1357,#1358,#1364,#1365,#1366));
#1357 = ORIENTED_EDGE('',*,*,#821,.F.);
#1358 = ORIENTED_EDGE('',*,*,#1359,.T.);
#1359 = EDGE_CURVE('',#822,#1237,#1360,.T.);
#1360 = LINE('',#1361,#1362);
#1361 = CARTESIAN_POINT('',(-9.5,-15.64351896333,11.));
#1362 = VECTOR('',#1363,1.);
#1363 = DIRECTION('',(1.,0.,0.));
#1364 = ORIENTED_EDGE('',*,*,#1236,.F.);
#1365 = ORIENTED_EDGE('',*,*,#1359,.F.);
#1366 = ORIENTED_EDGE('',*,*,#980,.F.);
#1367 = CYLINDRICAL_SURFACE('',#1368,5.);
#1368 = AXIS2_PLACEMENT_3D('',#1369,#1370,#1371);
#1369 = CARTESIAN_POINT('',(-9.5,-15.64351896333,6.));
#1370 = DIRECTION('',(1.,0.,0.));
#1371 = DIRECTION('',(0.,0.,1.));
#1372 = ( GEOMETRIC_REPRESENTATION_CONTEXT(3) 
GLOBAL_UNCERTAINTY_ASSIGNED_CONTEXT((#1376)) 
GLOBAL_UNIT_ASSIGNED_CONTEXT((#1373,#1374,#1375)) REPRESENTATION_CONTEXT
('Context #1','3D Context with UNIT and UNCERTAINTY') );
#1373 = ( LENGTH_UNIT() NAMED_UNIT(*) SI_UNIT(.MILLI.,.METRE.) );
#1374 = ( NAMED_UNIT(*) PLANE_ANGLE_UNIT() SI_UNIT($,.RADIAN.) );
#1375 = ( NAMED_UNIT(*) SI_UNIT($,.STERADIAN.) SOLID_ANGLE_UNIT() );
#1376 = UNCERTAINTY_MEASURE_WITH_UNIT(LENGTH_MEASURE(2.E-06),#1373,
  'distance_accuracy_value','confusion accuracy');
#1377 = PRODUCT_RELATED_PRODUCT_CATEGORY('part',$,(#7));
#1378 = MECHANICAL_DESIGN_GEOMETRIC_PRESENTATION_REPRESENTATION('',(
    #1379),#1372);
#1379 = STYLED_ITEM('color',(#1380),#15);
#1380 = PRESENTATION_STYLE_ASSIGNMENT((#1381,#1387));
#1381 = SURFACE_STYLE_USAGE(.BOTH.,#1382);
#1382 = SURFACE_SIDE_STYLE('',(#1383));
#1383 = SURFACE_STYLE_FILL_AREA(#1384);
#1384 = FILL_AREA_STYLE('',(#1385));
#1385 = FILL_AREA_STYLE_COLOUR('',#1386);
#1386 = COLOUR_RGB('',0.678431390124,0.709803936702,0.741176476869);
#1387 = CURVE_STYLE('',#1388,POSITIVE_LENGTH_MEASURE(0.1),#1389);
#1388 = DRAUGHTING_PRE_DEFINED_CURVE_FONT('continuous');
#1389 = COLOUR_RGB('',9.803921802644E-02,9.803921802644E-02,
  9.803921802644E-02);
ENDSEC;
END-ISO-10303-21;
