ISO-10303-21;
HEADER;
FILE_DESCRIPTION(('FreeCAD Model'),'2;1');
FILE_NAME('Open CASCADE Shape Model','2026-07-13T19:55:15',(''),(''),
  'Open CASCADE STEP processor 7.8','FreeCAD','Unknown');
FILE_SCHEMA(('AUTOMOTIVE_DESIGN { 1 0 10303 214 1 1 1 1 }'));
ENDSEC;
DATA;
#1 = APPLICATION_PROTOCOL_DEFINITION('international standard',
  'automotive_design',2000,#2);
#2 = APPLICATION_CONTEXT(
  'core data for automotive mechanical design processes');
#3 = SHAPE_DEFINITION_REPRESENTATION(#4,#10);
#4 = PRODUCT_DEFINITION_SHAPE('','',#5);
#5 = PRODUCT_DEFINITION('design','',#6,#9);
#6 = PRODUCT_DEFINITION_FORMATION('','',#7);
#7 = PRODUCT('Pad005','Pad005','',(#8));
#8 = PRODUCT_CONTEXT('',#2,'mechanical');
#9 = PRODUCT_DEFINITION_CONTEXT('part definition',#2,'design');
#10 = ADVANCED_BREP_SHAPE_REPRESENTATION('',(#11,#15),#863);
#11 = AXIS2_PLACEMENT_3D('',#12,#13,#14);
#12 = CARTESIAN_POINT('',(0.,0.,0.));
#13 = DIRECTION('',(0.,0.,1.));
#14 = DIRECTION('',(1.,0.,-0.));
#15 = MANIFOLD_SOLID_BREP('',#16);
#16 = CLOSED_SHELL('',(#17,#106,#148,#190,#214,#273,#297,#321,#345,#419,
    #436,#466,#491,#516,#547,#571,#596,#627,#651,#675,#699,#723,#740,
    #757,#769,#793,#830,#848));
#17 = ADVANCED_FACE('',(#18),#101,.T.);
#18 = FACE_BOUND('',#19,.T.);
#19 = EDGE_LOOP('',(#20,#30,#39,#47,#55,#63,#71,#79,#87,#95));
#20 = ORIENTED_EDGE('',*,*,#21,.T.);
#21 = EDGE_CURVE('',#22,#24,#26,.T.);
#22 = VERTEX_POINT('',#23);
#23 = CARTESIAN_POINT('',(0.5,-21.65,0.));
#24 = VERTEX_POINT('',#25);
#25 = CARTESIAN_POINT('',(0.5,-9.637037926666,0.));
#26 = LINE('',#27,#28);
#27 = CARTESIAN_POINT('',(0.5,-21.65,0.));
#28 = VECTOR('',#29,1.);
#29 = DIRECTION('',(-4.9E-16,1.,0.));
#30 = ORIENTED_EDGE('',*,*,#31,.T.);
#31 = EDGE_CURVE('',#24,#32,#34,.T.);
#32 = VERTEX_POINT('',#33);
#33 = CARTESIAN_POINT('',(-0.5,-9.637037926666,0.));
#34 = CIRCLE('',#35,9.65);
#35 = AXIS2_PLACEMENT_3D('',#36,#37,#38);
#36 = CARTESIAN_POINT('',(0.,0.,0.));
#37 = DIRECTION('',(0.,0.,1.));
#38 = DIRECTION('',(1.,0.,0.));
#39 = ORIENTED_EDGE('',*,*,#40,.T.);
#40 = EDGE_CURVE('',#32,#41,#43,.T.);
#41 = VERTEX_POINT('',#42);
#42 = CARTESIAN_POINT('',(-0.5,-21.65,0.));
#43 = LINE('',#44,#45);
#44 = CARTESIAN_POINT('',(-0.5,-9.637037926666,0.));
#45 = VECTOR('',#46,1.);
#46 = DIRECTION('',(0.,-1.,0.));
#47 = ORIENTED_EDGE('',*,*,#48,.T.);
#48 = EDGE_CURVE('',#41,#49,#51,.T.);
#49 = VERTEX_POINT('',#50);
#50 = CARTESIAN_POINT('',(-4.5,-21.65,0.));
#51 = LINE('',#52,#53);
#52 = CARTESIAN_POINT('',(-0.5,-21.65,0.));
#53 = VECTOR('',#54,1.);
#54 = DIRECTION('',(-1.,0.,0.));
#55 = ORIENTED_EDGE('',*,*,#56,.T.);
#56 = EDGE_CURVE('',#49,#57,#59,.T.);
#57 = VERTEX_POINT('',#58);
#58 = CARTESIAN_POINT('',(-16.5,1.939473684211,0.));
#59 = LINE('',#60,#61);
#60 = CARTESIAN_POINT('',(-4.5,-21.65,0.));
#61 = VECTOR('',#62,1.);
#62 = DIRECTION('',(-0.453407357115,0.891303409908,0.));
#63 = ORIENTED_EDGE('',*,*,#64,.T.);
#64 = EDGE_CURVE('',#57,#65,#67,.T.);
#65 = VERTEX_POINT('',#66);
#66 = CARTESIAN_POINT('',(-16.5,15.7,0.));
#67 = LINE('',#68,#69);
#68 = CARTESIAN_POINT('',(-16.5,1.939473684211,0.));
#69 = VECTOR('',#70,1.);
#70 = DIRECTION('',(0.,1.,0.));
#71 = ORIENTED_EDGE('',*,*,#72,.F.);
#72 = EDGE_CURVE('',#73,#65,#75,.T.);
#73 = VERTEX_POINT('',#74);
#74 = CARTESIAN_POINT('',(23.5,15.7,0.));
#75 = LINE('',#76,#77);
#76 = CARTESIAN_POINT('',(23.5,15.7,0.));
#77 = VECTOR('',#78,1.);
#78 = DIRECTION('',(-1.,0.,0.));
#79 = ORIENTED_EDGE('',*,*,#80,.T.);
#80 = EDGE_CURVE('',#73,#81,#83,.T.);
#81 = VERTEX_POINT('',#82);
#82 = CARTESIAN_POINT('',(10.,-10.83815789473,0.));
#83 = LINE('',#84,#85);
#84 = CARTESIAN_POINT('',(23.5,15.7,0.));
#85 = VECTOR('',#86,1.);
#86 = DIRECTION('',(-0.453407357115,-0.891303409908,0.));
#87 = ORIENTED_EDGE('',*,*,#88,.F.);
#88 = EDGE_CURVE('',#89,#81,#91,.T.);
#89 = VERTEX_POINT('',#90);
#90 = CARTESIAN_POINT('',(10.,-21.65,0.));
#91 = LINE('',#92,#93);
#92 = CARTESIAN_POINT('',(10.,-21.65,0.));
#93 = VECTOR('',#94,1.);
#94 = DIRECTION('',(0.,1.,0.));
#95 = ORIENTED_EDGE('',*,*,#96,.F.);
#96 = EDGE_CURVE('',#22,#89,#97,.T.);
#97 = LINE('',#98,#99);
#98 = CARTESIAN_POINT('',(0.5,-21.65,0.));
#99 = VECTOR('',#100,1.);
#100 = DIRECTION('',(1.,0.,0.));
#101 = PLANE('',#102);
#102 = AXIS2_PLACEMENT_3D('',#103,#104,#105);
#103 = CARTESIAN_POINT('',(1.354843625751,-1.336092818771,0.));
#104 = DIRECTION('',(-0.,-0.,-1.));
#105 = DIRECTION('',(-1.,0.,0.));
#106 = ADVANCED_FACE('',(#107,#132),#143,.T.);
#107 = FACE_BOUND('',#108,.T.);
#108 = EDGE_LOOP('',(#109,#110,#118,#126));
#109 = ORIENTED_EDGE('',*,*,#21,.F.);
#110 = ORIENTED_EDGE('',*,*,#111,.T.);
#111 = EDGE_CURVE('',#22,#112,#114,.T.);
#112 = VERTEX_POINT('',#113);
#113 = CARTESIAN_POINT('',(0.5,-21.65,22.));
#114 = LINE('',#115,#116);
#115 = CARTESIAN_POINT('',(0.5,-21.65,12.));
#116 = VECTOR('',#117,1.);
#117 = DIRECTION('',(0.,0.,1.));
#118 = ORIENTED_EDGE('',*,*,#119,.T.);
#119 = EDGE_CURVE('',#112,#120,#122,.T.);
#120 = VERTEX_POINT('',#121);
#121 = CARTESIAN_POINT('',(0.5,-9.637037926666,22.));
#122 = LINE('',#123,#124);
#123 = CARTESIAN_POINT('',(0.5,-7.763095914666,22.));
#124 = VECTOR('',#125,1.);
#125 = DIRECTION('',(-4.3E-16,1.,0.));
#126 = ORIENTED_EDGE('',*,*,#127,.F.);
#127 = EDGE_CURVE('',#24,#120,#128,.T.);
#128 = LINE('',#129,#130);
#129 = CARTESIAN_POINT('',(0.5,-9.637037926666,12.));
#130 = VECTOR('',#131,1.);
#131 = DIRECTION('',(0.,0.,1.));
#132 = FACE_BOUND('',#133,.T.);
#133 = EDGE_LOOP('',(#134));
#134 = ORIENTED_EDGE('',*,*,#135,.T.);
#135 = EDGE_CURVE('',#136,#136,#138,.T.);
#136 = VERTEX_POINT('',#137);
#137 = CARTESIAN_POINT('',(0.5,-15.64351896333,8.75));
#138 = CIRCLE('',#139,2.75);
#139 = AXIS2_PLACEMENT_3D('',#140,#141,#142);
#140 = CARTESIAN_POINT('',(0.5,-15.64351896333,6.));
#141 = DIRECTION('',(1.,0.,-0.));
#142 = DIRECTION('',(0.,0.,1.));
#143 = PLANE('',#144);
#144 = AXIS2_PLACEMENT_3D('',#145,#146,#147);
#145 = CARTESIAN_POINT('',(0.5,-15.64351896333,16.));
#146 = DIRECTION('',(-1.,-4.3E-16,-0.));
#147 = DIRECTION('',(4.3E-16,-1.,0.));
#148 = ADVANCED_FACE('',(#149,#174),#185,.T.);
#149 = FACE_BOUND('',#150,.T.);
#150 = EDGE_LOOP('',(#151,#159,#167,#173));
#151 = ORIENTED_EDGE('',*,*,#152,.T.);
#152 = EDGE_CURVE('',#32,#153,#155,.T.);
#153 = VERTEX_POINT('',#154);
#154 = CARTESIAN_POINT('',(-0.5,-9.637037926666,32.));
#155 = LINE('',#156,#157);
#156 = CARTESIAN_POINT('',(-0.5,-9.637037926666,0.));
#157 = VECTOR('',#158,1.);
#158 = DIRECTION('',(0.,0.,1.));
#159 = ORIENTED_EDGE('',*,*,#160,.T.);
#160 = EDGE_CURVE('',#153,#161,#163,.T.);
#161 = VERTEX_POINT('',#162);
#162 = CARTESIAN_POINT('',(-0.5,-21.65,32.));
#163 = LINE('',#164,#165);
#164 = CARTESIAN_POINT('',(-0.5,-9.637037926666,32.));
#165 = VECTOR('',#166,1.);
#166 = DIRECTION('',(0.,-1.,0.));
#167 = ORIENTED_EDGE('',*,*,#168,.F.);
#168 = EDGE_CURVE('',#41,#161,#169,.T.);
#169 = LINE('',#170,#171);
#170 = CARTESIAN_POINT('',(-0.5,-21.65,0.));
#171 = VECTOR('',#172,1.);
#172 = DIRECTION('',(0.,0.,1.));
#173 = ORIENTED_EDGE('',*,*,#40,.F.);
#174 = FACE_BOUND('',#175,.T.);
#175 = EDGE_LOOP('',(#176));
#176 = ORIENTED_EDGE('',*,*,#177,.F.);
#177 = EDGE_CURVE('',#178,#178,#180,.T.);
#178 = VERTEX_POINT('',#179);
#179 = CARTESIAN_POINT('',(-0.5,-15.64351896333,8.75));
#180 = CIRCLE('',#181,2.75);
#181 = AXIS2_PLACEMENT_3D('',#182,#183,#184);
#182 = CARTESIAN_POINT('',(-0.5,-15.64351896333,6.));
#183 = DIRECTION('',(1.,0.,-0.));
#184 = DIRECTION('',(0.,0.,1.));
#185 = PLANE('',#186);
#186 = AXIS2_PLACEMENT_3D('',#187,#188,#189);
#187 = CARTESIAN_POINT('',(-0.5,-15.64351896333,16.));
#188 = DIRECTION('',(1.,0.,0.));
#189 = DIRECTION('',(0.,0.,1.));
#190 = ADVANCED_FACE('',(#191),#209,.T.);
#191 = FACE_BOUND('',#192,.T.);
#192 = EDGE_LOOP('',(#193,#194,#202,#208));
#193 = ORIENTED_EDGE('',*,*,#168,.T.);
#194 = ORIENTED_EDGE('',*,*,#195,.T.);
#195 = EDGE_CURVE('',#161,#196,#198,.T.);
#196 = VERTEX_POINT('',#197);
#197 = CARTESIAN_POINT('',(-4.5,-21.65,32.));
#198 = LINE('',#199,#200);
#199 = CARTESIAN_POINT('',(-0.5,-21.65,32.));
#200 = VECTOR('',#201,1.);
#201 = DIRECTION('',(-1.,0.,0.));
#202 = ORIENTED_EDGE('',*,*,#203,.F.);
#203 = EDGE_CURVE('',#49,#196,#204,.T.);
#204 = LINE('',#205,#206);
#205 = CARTESIAN_POINT('',(-4.5,-21.65,12.));
#206 = VECTOR('',#207,1.);
#207 = DIRECTION('',(0.,0.,1.));
#208 = ORIENTED_EDGE('',*,*,#48,.F.);
#209 = PLANE('',#210);
#210 = AXIS2_PLACEMENT_3D('',#211,#212,#213);
#211 = CARTESIAN_POINT('',(-2.5,-21.65,16.));
#212 = DIRECTION('',(-0.,-1.,-0.));
#213 = DIRECTION('',(0.,0.,-1.));
#214 = ADVANCED_FACE('',(#215,#257),#268,.T.);
#215 = FACE_BOUND('',#216,.T.);
#216 = EDGE_LOOP('',(#217,#218,#219,#227,#235,#243,#251));
#217 = ORIENTED_EDGE('',*,*,#56,.F.);
#218 = ORIENTED_EDGE('',*,*,#203,.T.);
#219 = ORIENTED_EDGE('',*,*,#220,.T.);
#220 = EDGE_CURVE('',#196,#221,#223,.T.);
#221 = VERTEX_POINT('',#222);
#222 = CARTESIAN_POINT('',(-13.47858099062,-4.,32.));
#223 = LINE('',#224,#225);
#224 = CARTESIAN_POINT('',(-4.5,-21.65,32.));
#225 = VECTOR('',#226,1.);
#226 = DIRECTION('',(-0.453407357115,0.891303409908,0.));
#227 = ORIENTED_EDGE('',*,*,#228,.F.);
#228 = EDGE_CURVE('',#229,#221,#231,.T.);
#229 = VERTEX_POINT('',#230);
#230 = CARTESIAN_POINT('',(-13.47858099062,-4.,22.));
#231 = LINE('',#232,#233);
#232 = CARTESIAN_POINT('',(-13.47858099062,-4.,24.));
#233 = VECTOR('',#234,1.);
#234 = DIRECTION('',(-0.,0.,1.));
#235 = ORIENTED_EDGE('',*,*,#236,.T.);
#236 = EDGE_CURVE('',#229,#237,#239,.T.);
#237 = VERTEX_POINT('',#238);
#238 = CARTESIAN_POINT('',(-15.51338688085,0.,22.));
#239 = LINE('',#240,#241);
#240 = CARTESIAN_POINT('',(-10.76279948157,-9.338654703324,22.));
#241 = VECTOR('',#242,1.);
#242 = DIRECTION('',(-0.453407357115,0.891303409908,0.));
#243 = ORIENTED_EDGE('',*,*,#244,.T.);
#244 = EDGE_CURVE('',#237,#245,#247,.T.);
#245 = VERTEX_POINT('',#246);
#246 = CARTESIAN_POINT('',(-16.5,1.939473684211,22.));
#247 = LINE('',#248,#249);
#248 = CARTESIAN_POINT('',(-10.76279948157,-9.338654703324,22.));
#249 = VECTOR('',#250,1.);
#250 = DIRECTION('',(-0.453407357115,0.891303409908,0.));
#251 = ORIENTED_EDGE('',*,*,#252,.F.);
#252 = EDGE_CURVE('',#57,#245,#253,.T.);
#253 = LINE('',#254,#255);
#254 = CARTESIAN_POINT('',(-16.5,1.939473684211,12.));
#255 = VECTOR('',#256,1.);
#256 = DIRECTION('',(0.,0.,1.));
#257 = FACE_BOUND('',#258,.T.);
#258 = EDGE_LOOP('',(#259));
#259 = ORIENTED_EDGE('',*,*,#260,.F.);
#260 = EDGE_CURVE('',#261,#261,#263,.T.);
#261 = VERTEX_POINT('',#262);
#262 = CARTESIAN_POINT('',(-7.555505748238,-15.64351896333,11.));
#263 = ELLIPSE('',#264,5.609762000704,5.);
#264 = AXIS2_PLACEMENT_3D('',#265,#266,#267);
#265 = CARTESIAN_POINT('',(-7.555505748238,-15.64351896333,6.));
#266 = DIRECTION('',(-0.891303409908,-0.453407357115,0.));
#267 = DIRECTION('',(0.453407357115,-0.891303409908,0.));
#268 = PLANE('',#269);
#269 = AXIS2_PLACEMENT_3D('',#270,#271,#272);
#270 = CARTESIAN_POINT('',(-10.5,-9.855263157895,16.));
#271 = DIRECTION('',(-0.891303409908,-0.453407357115,-0.));
#272 = DIRECTION('',(0.453407357115,-0.891303409908,0.));
#273 = ADVANCED_FACE('',(#274),#292,.T.);
#274 = FACE_BOUND('',#275,.T.);
#275 = EDGE_LOOP('',(#276,#277,#278,#286));
#276 = ORIENTED_EDGE('',*,*,#64,.F.);
#277 = ORIENTED_EDGE('',*,*,#252,.T.);
#278 = ORIENTED_EDGE('',*,*,#279,.T.);
#279 = EDGE_CURVE('',#245,#280,#282,.T.);
#280 = VERTEX_POINT('',#281);
#281 = CARTESIAN_POINT('',(-16.5,15.7,22.));
#282 = LINE('',#283,#284);
#283 = CARTESIAN_POINT('',(-16.5,4.468531988053,22.));
#284 = VECTOR('',#285,1.);
#285 = DIRECTION('',(0.,1.,0.));
#286 = ORIENTED_EDGE('',*,*,#287,.F.);
#287 = EDGE_CURVE('',#65,#280,#288,.T.);
#288 = LINE('',#289,#290);
#289 = CARTESIAN_POINT('',(-16.5,15.7,0.));
#290 = VECTOR('',#291,1.);
#291 = DIRECTION('',(0.,0.,1.));
#292 = PLANE('',#293);
#293 = AXIS2_PLACEMENT_3D('',#294,#295,#296);
#294 = CARTESIAN_POINT('',(-16.5,8.819736842105,16.));
#295 = DIRECTION('',(-1.,-0.,-0.));
#296 = DIRECTION('',(0.,0.,-1.));
#297 = ADVANCED_FACE('',(#298),#316,.T.);
#298 = FACE_BOUND('',#299,.T.);
#299 = EDGE_LOOP('',(#300,#308,#309,#310));
#300 = ORIENTED_EDGE('',*,*,#301,.F.);
#301 = EDGE_CURVE('',#73,#302,#304,.T.);
#302 = VERTEX_POINT('',#303);
#303 = CARTESIAN_POINT('',(23.5,15.7,22.));
#304 = LINE('',#305,#306);
#305 = CARTESIAN_POINT('',(23.5,15.7,0.));
#306 = VECTOR('',#307,1.);
#307 = DIRECTION('',(0.,0.,1.));
#308 = ORIENTED_EDGE('',*,*,#72,.T.);
#309 = ORIENTED_EDGE('',*,*,#287,.T.);
#310 = ORIENTED_EDGE('',*,*,#311,.T.);
#311 = EDGE_CURVE('',#280,#302,#312,.T.);
#312 = LINE('',#313,#314);
#313 = CARTESIAN_POINT('',(5.023663567,15.7,22.));
#314 = VECTOR('',#315,1.);
#315 = DIRECTION('',(1.,0.,0.));
#316 = PLANE('',#317);
#317 = AXIS2_PLACEMENT_3D('',#318,#319,#320);
#318 = CARTESIAN_POINT('',(3.5,15.7,16.));
#319 = DIRECTION('',(0.,1.,0.));
#320 = DIRECTION('',(0.,0.,1.));
#321 = ADVANCED_FACE('',(#322),#340,.T.);
#322 = FACE_BOUND('',#323,.T.);
#323 = EDGE_LOOP('',(#324,#325,#326,#334));
#324 = ORIENTED_EDGE('',*,*,#80,.F.);
#325 = ORIENTED_EDGE('',*,*,#301,.T.);
#326 = ORIENTED_EDGE('',*,*,#327,.T.);
#327 = EDGE_CURVE('',#302,#328,#330,.T.);
#328 = VERTEX_POINT('',#329);
#329 = CARTESIAN_POINT('',(10.,-10.83815789473,22.));
#330 = LINE('',#331,#332);
#331 = CARTESIAN_POINT('',(15.233787414745,-0.54963368733,22.));
#332 = VECTOR('',#333,1.);
#333 = DIRECTION('',(-0.453407357115,-0.891303409908,0.));
#334 = ORIENTED_EDGE('',*,*,#335,.F.);
#335 = EDGE_CURVE('',#81,#328,#336,.T.);
#336 = LINE('',#337,#338);
#337 = CARTESIAN_POINT('',(10.,-10.83815789473,3.));
#338 = VECTOR('',#339,1.);
#339 = DIRECTION('',(0.,0.,1.));
#340 = PLANE('',#341);
#341 = AXIS2_PLACEMENT_3D('',#342,#343,#344);
#342 = CARTESIAN_POINT('',(16.75,2.430921052632,16.));
#343 = DIRECTION('',(0.891303409908,-0.453407357115,0.));
#344 = DIRECTION('',(0.453407357115,0.891303409908,0.));
#345 = ADVANCED_FACE('',(#346,#364),#414,.T.);
#346 = FACE_BOUND('',#347,.T.);
#347 = EDGE_LOOP('',(#348,#356,#357,#358));
#348 = ORIENTED_EDGE('',*,*,#349,.F.);
#349 = EDGE_CURVE('',#89,#350,#352,.T.);
#350 = VERTEX_POINT('',#351);
#351 = CARTESIAN_POINT('',(10.,-21.65,22.));
#352 = LINE('',#353,#354);
#353 = CARTESIAN_POINT('',(10.,-21.65,12.));
#354 = VECTOR('',#355,1.);
#355 = DIRECTION('',(0.,0.,1.));
#356 = ORIENTED_EDGE('',*,*,#88,.T.);
#357 = ORIENTED_EDGE('',*,*,#335,.T.);
#358 = ORIENTED_EDGE('',*,*,#359,.T.);
#359 = EDGE_CURVE('',#328,#350,#360,.T.);
#360 = LINE('',#361,#362);
#361 = CARTESIAN_POINT('',(10.,-8.063375906684,22.));
#362 = VECTOR('',#363,1.);
#363 = DIRECTION('',(0.,-1.,0.));
#364 = FACE_BOUND('',#365,.T.);
#365 = EDGE_LOOP('',(#366,#376,#384,#392,#400,#408));
#366 = ORIENTED_EDGE('',*,*,#367,.T.);
#367 = EDGE_CURVE('',#368,#370,#372,.T.);
#368 = VERTEX_POINT('',#369);
#369 = CARTESIAN_POINT('',(10.,-15.64351896333,10.907477288112));
#370 = VERTEX_POINT('',#371);
#371 = CARTESIAN_POINT('',(10.,-11.39351896333,8.453738644056));
#372 = LINE('',#373,#374);
#373 = CARTESIAN_POINT('',(10.,-15.64351896333,10.907477288112));
#374 = VECTOR('',#375,1.);
#375 = DIRECTION('',(-0.,0.866025403784,-0.5));
#376 = ORIENTED_EDGE('',*,*,#377,.T.);
#377 = EDGE_CURVE('',#370,#378,#380,.T.);
#378 = VERTEX_POINT('',#379);
#379 = CARTESIAN_POINT('',(10.,-11.39351896333,3.546261355944));
#380 = LINE('',#381,#382);
#381 = CARTESIAN_POINT('',(10.,-11.39351896333,8.453738644056));
#382 = VECTOR('',#383,1.);
#383 = DIRECTION('',(0.,-3.6E-16,-1.));
#384 = ORIENTED_EDGE('',*,*,#385,.T.);
#385 = EDGE_CURVE('',#378,#386,#388,.T.);
#386 = VERTEX_POINT('',#387);
#387 = CARTESIAN_POINT('',(10.,-15.64351896333,1.092522711888));
#388 = LINE('',#389,#390);
#389 = CARTESIAN_POINT('',(10.,-11.39351896333,3.546261355944));
#390 = VECTOR('',#391,1.);
#391 = DIRECTION('',(0.,-0.866025403784,-0.5));
#392 = ORIENTED_EDGE('',*,*,#393,.T.);
#393 = EDGE_CURVE('',#386,#394,#396,.T.);
#394 = VERTEX_POINT('',#395);
#395 = CARTESIAN_POINT('',(10.,-19.89351896333,3.546261355944));
#396 = LINE('',#397,#398);
#397 = CARTESIAN_POINT('',(10.,-15.64351896333,1.092522711888));
#398 = VECTOR('',#399,1.);
#399 = DIRECTION('',(0.,-0.866025403784,0.5));
#400 = ORIENTED_EDGE('',*,*,#401,.T.);
#401 = EDGE_CURVE('',#394,#402,#404,.T.);
#402 = VERTEX_POINT('',#403);
#403 = CARTESIAN_POINT('',(10.,-19.89351896333,8.453738644056));
#404 = LINE('',#405,#406);
#405 = CARTESIAN_POINT('',(10.,-19.89351896333,3.546261355944));
#406 = VECTOR('',#407,1.);
#407 = DIRECTION('',(0.,0.,1.));
#408 = ORIENTED_EDGE('',*,*,#409,.T.);
#409 = EDGE_CURVE('',#402,#368,#410,.T.);
#410 = LINE('',#411,#412);
#411 = CARTESIAN_POINT('',(10.,-19.89351896333,8.453738644056));
#412 = VECTOR('',#413,1.);
#413 = DIRECTION('',(0.,0.866025403784,0.5));
#414 = PLANE('',#415);
#415 = AXIS2_PLACEMENT_3D('',#416,#417,#418);
#416 = CARTESIAN_POINT('',(10.,-16.24407894736,16.));
#417 = DIRECTION('',(1.,0.,0.));
#418 = DIRECTION('',(0.,0.,1.));
#419 = ADVANCED_FACE('',(#420),#431,.T.);
#420 = FACE_BOUND('',#421,.T.);
#421 = EDGE_LOOP('',(#422,#423,#424,#425));
#422 = ORIENTED_EDGE('',*,*,#111,.F.);
#423 = ORIENTED_EDGE('',*,*,#96,.T.);
#424 = ORIENTED_EDGE('',*,*,#349,.T.);
#425 = ORIENTED_EDGE('',*,*,#426,.T.);
#426 = EDGE_CURVE('',#350,#112,#427,.T.);
#427 = LINE('',#428,#429);
#428 = CARTESIAN_POINT('',(5.898663567,-21.65,22.));
#429 = VECTOR('',#430,1.);
#430 = DIRECTION('',(-1.,0.,0.));
#431 = PLANE('',#432);
#432 = AXIS2_PLACEMENT_3D('',#433,#434,#435);
#433 = CARTESIAN_POINT('',(5.25,-21.65,16.));
#434 = DIRECTION('',(-0.,-1.,-0.));
#435 = DIRECTION('',(0.,0.,-1.));
#436 = ADVANCED_FACE('',(#437),#461,.T.);
#437 = FACE_BOUND('',#438,.T.);
#438 = EDGE_LOOP('',(#439,#440,#448,#455,#456,#457,#458,#459,#460));
#439 = ORIENTED_EDGE('',*,*,#244,.F.);
#440 = ORIENTED_EDGE('',*,*,#441,.F.);
#441 = EDGE_CURVE('',#442,#237,#444,.T.);
#442 = VERTEX_POINT('',#443);
#443 = CARTESIAN_POINT('',(-9.65,1.E-15,22.));
#444 = LINE('',#445,#446);
#445 = CARTESIAN_POINT('',(0.,0.,22.));
#446 = VECTOR('',#447,1.);
#447 = DIRECTION('',(-1.,0.,0.));
#448 = ORIENTED_EDGE('',*,*,#449,.T.);
#449 = EDGE_CURVE('',#442,#120,#450,.T.);
#450 = CIRCLE('',#451,9.65);
#451 = AXIS2_PLACEMENT_3D('',#452,#453,#454);
#452 = CARTESIAN_POINT('',(0.,0.,22.));
#453 = DIRECTION('',(0.,0.,-1.));
#454 = DIRECTION('',(1.,0.,0.));
#455 = ORIENTED_EDGE('',*,*,#119,.F.);
#456 = ORIENTED_EDGE('',*,*,#426,.F.);
#457 = ORIENTED_EDGE('',*,*,#359,.F.);
#458 = ORIENTED_EDGE('',*,*,#327,.F.);
#459 = ORIENTED_EDGE('',*,*,#311,.F.);
#460 = ORIENTED_EDGE('',*,*,#279,.F.);
#461 = PLANE('',#462);
#462 = AXIS2_PLACEMENT_3D('',#463,#464,#465);
#463 = CARTESIAN_POINT('',(6.547327134001,0.117327134001,22.));
#464 = DIRECTION('',(0.,0.,1.));
#465 = DIRECTION('',(1.,0.,0.));
#466 = ADVANCED_FACE('',(#467),#486,.F.);
#467 = FACE_BOUND('',#468,.T.);
#468 = EDGE_LOOP('',(#469,#470,#478,#485));
#469 = ORIENTED_EDGE('',*,*,#135,.F.);
#470 = ORIENTED_EDGE('',*,*,#471,.T.);
#471 = EDGE_CURVE('',#136,#472,#474,.T.);
#472 = VERTEX_POINT('',#473);
#473 = CARTESIAN_POINT('',(7.555505748238,-15.64351896333,8.75));
#474 = LINE('',#475,#476);
#475 = CARTESIAN_POINT('',(-5.,-15.64351896333,8.75));
#476 = VECTOR('',#477,1.);
#477 = DIRECTION('',(1.,0.,-5.E-17));
#478 = ORIENTED_EDGE('',*,*,#479,.T.);
#479 = EDGE_CURVE('',#472,#472,#480,.T.);
#480 = ELLIPSE('',#481,3.085369100387,2.75);
#481 = AXIS2_PLACEMENT_3D('',#482,#483,#484);
#482 = CARTESIAN_POINT('',(7.555505748238,-15.64351896333,6.));
#483 = DIRECTION('',(0.891303409908,-0.453407357115,0.));
#484 = DIRECTION('',(0.453407357115,0.891303409908,0.));
#485 = ORIENTED_EDGE('',*,*,#471,.F.);
#486 = CYLINDRICAL_SURFACE('',#487,2.75);
#487 = AXIS2_PLACEMENT_3D('',#488,#489,#490);
#488 = CARTESIAN_POINT('',(-5.,-15.64351896333,6.));
#489 = DIRECTION('',(1.,0.,0.));
#490 = DIRECTION('',(0.,0.,1.));
#491 = ADVANCED_FACE('',(#492),#511,.F.);
#492 = FACE_BOUND('',#493,.T.);
#493 = EDGE_LOOP('',(#494,#502,#509,#510));
#494 = ORIENTED_EDGE('',*,*,#495,.F.);
#495 = EDGE_CURVE('',#496,#178,#498,.T.);
#496 = VERTEX_POINT('',#497);
#497 = CARTESIAN_POINT('',(-5.,-15.64351896333,8.75));
#498 = LINE('',#499,#500);
#499 = CARTESIAN_POINT('',(-5.,-15.64351896333,8.75));
#500 = VECTOR('',#501,1.);
#501 = DIRECTION('',(1.,0.,-5.E-17));
#502 = ORIENTED_EDGE('',*,*,#503,.T.);
#503 = EDGE_CURVE('',#496,#496,#504,.T.);
#504 = CIRCLE('',#505,2.75);
#505 = AXIS2_PLACEMENT_3D('',#506,#507,#508);
#506 = CARTESIAN_POINT('',(-5.,-15.64351896333,6.));
#507 = DIRECTION('',(-1.,0.,0.));
#508 = DIRECTION('',(0.,0.,1.));
#509 = ORIENTED_EDGE('',*,*,#495,.T.);
#510 = ORIENTED_EDGE('',*,*,#177,.T.);
#511 = CYLINDRICAL_SURFACE('',#512,2.75);
#512 = AXIS2_PLACEMENT_3D('',#513,#514,#515);
#513 = CARTESIAN_POINT('',(-5.,-15.64351896333,6.));
#514 = DIRECTION('',(1.,0.,0.));
#515 = DIRECTION('',(0.,0.,1.));
#516 = ADVANCED_FACE('',(#517),#542,.F.);
#517 = FACE_BOUND('',#518,.F.);
#518 = EDGE_LOOP('',(#519,#529,#535,#536));
#519 = ORIENTED_EDGE('',*,*,#520,.F.);
#520 = EDGE_CURVE('',#521,#523,#525,.T.);
#521 = VERTEX_POINT('',#522);
#522 = CARTESIAN_POINT('',(-15.46519410977,-4.,22.));
#523 = VERTEX_POINT('',#524);
#524 = CARTESIAN_POINT('',(-17.5,0.,22.));
#525 = LINE('',#526,#527);
#526 = CARTESIAN_POINT('',(-15.0519038353,-4.812441671121,22.));
#527 = VECTOR('',#528,1.);
#528 = DIRECTION('',(-0.453407357115,0.891303409908,0.));
#529 = ORIENTED_EDGE('',*,*,#530,.F.);
#530 = EDGE_CURVE('',#229,#521,#531,.T.);
#531 = LINE('',#532,#533);
#532 = CARTESIAN_POINT('',(-4.458933487886,-4.,22.));
#533 = VECTOR('',#534,1.);
#534 = DIRECTION('',(-1.,0.,0.));
#535 = ORIENTED_EDGE('',*,*,#236,.T.);
#536 = ORIENTED_EDGE('',*,*,#537,.F.);
#537 = EDGE_CURVE('',#523,#237,#538,.T.);
#538 = LINE('',#539,#540);
#539 = CARTESIAN_POINT('',(-1.551336433,0.,22.));
#540 = VECTOR('',#541,1.);
#541 = DIRECTION('',(1.,-0.,0.));
#542 = PLANE('',#543);
#543 = AXIS2_PLACEMENT_3D('',#544,#545,#546);
#544 = CARTESIAN_POINT('',(6.547327134001,0.117327134001,22.));
#545 = DIRECTION('',(0.,0.,1.));
#546 = DIRECTION('',(1.,0.,-0.));
#547 = ADVANCED_FACE('',(#548),#566,.T.);
#548 = FACE_BOUND('',#549,.T.);
#549 = EDGE_LOOP('',(#550,#558,#564,#565));
#550 = ORIENTED_EDGE('',*,*,#551,.F.);
#551 = EDGE_CURVE('',#552,#221,#554,.T.);
#552 = VERTEX_POINT('',#553);
#553 = CARTESIAN_POINT('',(-15.46519410977,-4.,32.));
#554 = LINE('',#555,#556);
#555 = CARTESIAN_POINT('',(-15.46519410977,-4.,32.));
#556 = VECTOR('',#557,1.);
#557 = DIRECTION('',(1.,0.,0.));
#558 = ORIENTED_EDGE('',*,*,#559,.T.);
#559 = EDGE_CURVE('',#552,#521,#560,.T.);
#560 = LINE('',#561,#562);
#561 = CARTESIAN_POINT('',(-15.46519410977,-4.,32.));
#562 = VECTOR('',#563,1.);
#563 = DIRECTION('',(-0.,-0.,-1.));
#564 = ORIENTED_EDGE('',*,*,#530,.F.);
#565 = ORIENTED_EDGE('',*,*,#228,.T.);
#566 = PLANE('',#567);
#567 = AXIS2_PLACEMENT_3D('',#568,#569,#570);
#568 = CARTESIAN_POINT('',(-15.46519410977,-4.,32.));
#569 = DIRECTION('',(0.,-1.,0.));
#570 = DIRECTION('',(1.,0.,0.));
#571 = ADVANCED_FACE('',(#572),#591,.F.);
#572 = FACE_BOUND('',#573,.T.);
#573 = EDGE_LOOP('',(#574,#575,#583,#590));
#574 = ORIENTED_EDGE('',*,*,#260,.T.);
#575 = ORIENTED_EDGE('',*,*,#576,.T.);
#576 = EDGE_CURVE('',#261,#577,#579,.T.);
#577 = VERTEX_POINT('',#578);
#578 = CARTESIAN_POINT('',(-5.,-15.64351896333,11.));
#579 = LINE('',#580,#581);
#580 = CARTESIAN_POINT('',(-11.5,-15.64351896333,11.));
#581 = VECTOR('',#582,1.);
#582 = DIRECTION('',(1.,0.,0.));
#583 = ORIENTED_EDGE('',*,*,#584,.F.);
#584 = EDGE_CURVE('',#577,#577,#585,.T.);
#585 = CIRCLE('',#586,5.);
#586 = AXIS2_PLACEMENT_3D('',#587,#588,#589);
#587 = CARTESIAN_POINT('',(-5.,-15.64351896333,6.));
#588 = DIRECTION('',(-1.,0.,0.));
#589 = DIRECTION('',(0.,0.,1.));
#590 = ORIENTED_EDGE('',*,*,#576,.F.);
#591 = CYLINDRICAL_SURFACE('',#592,5.);
#592 = AXIS2_PLACEMENT_3D('',#593,#594,#595);
#593 = CARTESIAN_POINT('',(-11.5,-15.64351896333,6.));
#594 = DIRECTION('',(1.,0.,0.));
#595 = DIRECTION('',(0.,0.,1.));
#596 = ADVANCED_FACE('',(#597),#622,.F.);
#597 = FACE_BOUND('',#598,.F.);
#598 = EDGE_LOOP('',(#599,#609,#615,#616));
#599 = ORIENTED_EDGE('',*,*,#600,.T.);
#600 = EDGE_CURVE('',#601,#603,#605,.T.);
#601 = VERTEX_POINT('',#602);
#602 = CARTESIAN_POINT('',(9.717487006604,-11.39351896333,8.453738644056
    ));
#603 = VERTEX_POINT('',#604);
#604 = CARTESIAN_POINT('',(7.555505748238,-15.64351896333,
    10.907477288112));
#605 = LINE('',#606,#607);
#606 = CARTESIAN_POINT('',(14.291305758432,-2.402354206451,
    3.262687251342));
#607 = VECTOR('',#608,1.);
#608 = DIRECTION('',(-0.403159027195,-0.79252577188,0.457564967735));
#609 = ORIENTED_EDGE('',*,*,#610,.T.);
#610 = EDGE_CURVE('',#603,#368,#611,.T.);
#611 = LINE('',#612,#613);
#612 = CARTESIAN_POINT('',(0.5,-15.64351896333,10.907477288112));
#613 = VECTOR('',#614,1.);
#614 = DIRECTION('',(1.,0.,0.));
#615 = ORIENTED_EDGE('',*,*,#367,.T.);
#616 = ORIENTED_EDGE('',*,*,#617,.F.);
#617 = EDGE_CURVE('',#601,#370,#618,.T.);
#618 = LINE('',#619,#620);
#619 = CARTESIAN_POINT('',(0.5,-11.39351896333,8.453738644056));
#620 = VECTOR('',#621,1.);
#621 = DIRECTION('',(1.,0.,0.));
#622 = PLANE('',#623);
#623 = AXIS2_PLACEMENT_3D('',#624,#625,#626);
#624 = CARTESIAN_POINT('',(0.5,-15.64351896333,10.907477288112));
#625 = DIRECTION('',(0.,0.5,0.866025403784));
#626 = DIRECTION('',(0.,0.866025403784,-0.5));
#627 = ADVANCED_FACE('',(#628),#646,.F.);
#628 = FACE_BOUND('',#629,.F.);
#629 = EDGE_LOOP('',(#630,#638,#644,#645));
#630 = ORIENTED_EDGE('',*,*,#631,.T.);
#631 = EDGE_CURVE('',#603,#632,#634,.T.);
#632 = VERTEX_POINT('',#633);
#633 = CARTESIAN_POINT('',(5.393524489871,-19.89351896333,8.453738644056
    ));
#634 = LINE('',#635,#636);
#635 = CARTESIAN_POINT('',(11.373898199244,-8.137363276749,
    15.241158294341));
#636 = VECTOR('',#637,1.);
#637 = DIRECTION('',(-0.403159027195,-0.79252577188,-0.457564967735));
#638 = ORIENTED_EDGE('',*,*,#639,.T.);
#639 = EDGE_CURVE('',#632,#402,#640,.T.);
#640 = LINE('',#641,#642);
#641 = CARTESIAN_POINT('',(0.5,-19.89351896333,8.453738644056));
#642 = VECTOR('',#643,1.);
#643 = DIRECTION('',(1.,0.,0.));
#644 = ORIENTED_EDGE('',*,*,#409,.T.);
#645 = ORIENTED_EDGE('',*,*,#610,.F.);
#646 = PLANE('',#647);
#647 = AXIS2_PLACEMENT_3D('',#648,#649,#650);
#648 = CARTESIAN_POINT('',(0.5,-19.89351896333,8.453738644056));
#649 = DIRECTION('',(0.,-0.5,0.866025403784));
#650 = DIRECTION('',(0.,0.866025403784,0.5));
#651 = ADVANCED_FACE('',(#652),#670,.F.);
#652 = FACE_BOUND('',#653,.F.);
#653 = EDGE_LOOP('',(#654,#662,#663,#664));
#654 = ORIENTED_EDGE('',*,*,#655,.T.);
#655 = EDGE_CURVE('',#656,#601,#658,.T.);
#656 = VERTEX_POINT('',#657);
#657 = CARTESIAN_POINT('',(9.717487006604,-11.39351896333,3.546261355944
    ));
#658 = LINE('',#659,#660);
#659 = CARTESIAN_POINT('',(9.717487006604,-11.39351896333,4.226869322028
    ));
#660 = VECTOR('',#661,1.);
#661 = DIRECTION('',(1.8E-16,3.6E-16,1.));
#662 = ORIENTED_EDGE('',*,*,#617,.T.);
#663 = ORIENTED_EDGE('',*,*,#377,.T.);
#664 = ORIENTED_EDGE('',*,*,#665,.F.);
#665 = EDGE_CURVE('',#656,#378,#666,.T.);
#666 = LINE('',#667,#668);
#667 = CARTESIAN_POINT('',(0.5,-11.39351896333,3.546261355944));
#668 = VECTOR('',#669,1.);
#669 = DIRECTION('',(1.,0.,0.));
#670 = PLANE('',#671);
#671 = AXIS2_PLACEMENT_3D('',#672,#673,#674);
#672 = CARTESIAN_POINT('',(0.5,-11.39351896333,8.453738644056));
#673 = DIRECTION('',(0.,1.,-3.6E-16));
#674 = DIRECTION('',(0.,-3.6E-16,-1.));
#675 = ADVANCED_FACE('',(#676),#694,.F.);
#676 = FACE_BOUND('',#677,.F.);
#677 = EDGE_LOOP('',(#678,#686,#692,#693));
#678 = ORIENTED_EDGE('',*,*,#679,.T.);
#679 = EDGE_CURVE('',#632,#680,#682,.T.);
#680 = VERTEX_POINT('',#681);
#681 = CARTESIAN_POINT('',(5.393524489871,-19.89351896333,3.546261355944
    ));
#682 = LINE('',#683,#684);
#683 = CARTESIAN_POINT('',(5.393524489871,-19.89351896333,1.773130677972
    ));
#684 = VECTOR('',#685,1.);
#685 = DIRECTION('',(0.,0.,-1.));
#686 = ORIENTED_EDGE('',*,*,#687,.T.);
#687 = EDGE_CURVE('',#680,#394,#688,.T.);
#688 = LINE('',#689,#690);
#689 = CARTESIAN_POINT('',(0.5,-19.89351896333,3.546261355944));
#690 = VECTOR('',#691,1.);
#691 = DIRECTION('',(1.,0.,0.));
#692 = ORIENTED_EDGE('',*,*,#401,.T.);
#693 = ORIENTED_EDGE('',*,*,#639,.F.);
#694 = PLANE('',#695);
#695 = AXIS2_PLACEMENT_3D('',#696,#697,#698);
#696 = CARTESIAN_POINT('',(0.5,-19.89351896333,3.546261355944));
#697 = DIRECTION('',(0.,-1.,0.));
#698 = DIRECTION('',(0.,0.,1.));
#699 = ADVANCED_FACE('',(#700),#718,.F.);
#700 = FACE_BOUND('',#701,.F.);
#701 = EDGE_LOOP('',(#702,#710,#711,#712));
#702 = ORIENTED_EDGE('',*,*,#703,.T.);
#703 = EDGE_CURVE('',#704,#656,#706,.T.);
#704 = VERTEX_POINT('',#705);
#705 = CARTESIAN_POINT('',(7.555505748238,-15.64351896333,1.092522711888
    ));
#706 = LINE('',#707,#708);
#707 = CARTESIAN_POINT('',(14.089766512594,-2.798537934452,
    8.508575966648));
#708 = VECTOR('',#709,1.);
#709 = DIRECTION('',(0.403159027195,0.79252577188,0.457564967735));
#710 = ORIENTED_EDGE('',*,*,#665,.T.);
#711 = ORIENTED_EDGE('',*,*,#385,.T.);
#712 = ORIENTED_EDGE('',*,*,#713,.F.);
#713 = EDGE_CURVE('',#704,#386,#714,.T.);
#714 = LINE('',#715,#716);
#715 = CARTESIAN_POINT('',(0.5,-15.64351896333,1.092522711888));
#716 = VECTOR('',#717,1.);
#717 = DIRECTION('',(1.,0.,0.));
#718 = PLANE('',#719);
#719 = AXIS2_PLACEMENT_3D('',#720,#721,#722);
#720 = CARTESIAN_POINT('',(0.5,-11.39351896333,3.546261355944));
#721 = DIRECTION('',(0.,0.5,-0.866025403784));
#722 = DIRECTION('',(0.,-0.866025403784,-0.5));
#723 = ADVANCED_FACE('',(#724),#735,.F.);
#724 = FACE_BOUND('',#725,.F.);
#725 = EDGE_LOOP('',(#726,#732,#733,#734));
#726 = ORIENTED_EDGE('',*,*,#727,.T.);
#727 = EDGE_CURVE('',#680,#704,#728,.T.);
#728 = LINE('',#729,#730);
#729 = CARTESIAN_POINT('',(13.386016320649,-4.181962653883,
    -5.524809908705));
#730 = VECTOR('',#731,1.);
#731 = DIRECTION('',(0.403159027195,0.79252577188,-0.457564967735));
#732 = ORIENTED_EDGE('',*,*,#713,.T.);
#733 = ORIENTED_EDGE('',*,*,#393,.T.);
#734 = ORIENTED_EDGE('',*,*,#687,.F.);
#735 = PLANE('',#736);
#736 = AXIS2_PLACEMENT_3D('',#737,#738,#739);
#737 = CARTESIAN_POINT('',(0.5,-15.64351896333,1.092522711888));
#738 = DIRECTION('',(-0.,-0.5,-0.866025403784));
#739 = DIRECTION('',(0.,-0.866025403784,0.5));
#740 = ADVANCED_FACE('',(#741,#749),#752,.T.);
#741 = FACE_BOUND('',#742,.T.);
#742 = EDGE_LOOP('',(#743,#744,#745,#746,#747,#748));
#743 = ORIENTED_EDGE('',*,*,#655,.T.);
#744 = ORIENTED_EDGE('',*,*,#600,.T.);
#745 = ORIENTED_EDGE('',*,*,#631,.T.);
#746 = ORIENTED_EDGE('',*,*,#679,.T.);
#747 = ORIENTED_EDGE('',*,*,#727,.T.);
#748 = ORIENTED_EDGE('',*,*,#703,.T.);
#749 = FACE_BOUND('',#750,.T.);
#750 = EDGE_LOOP('',(#751));
#751 = ORIENTED_EDGE('',*,*,#479,.F.);
#752 = PLANE('',#753);
#753 = AXIS2_PLACEMENT_3D('',#754,#755,#756);
#754 = CARTESIAN_POINT('',(23.5,15.7,0.));
#755 = DIRECTION('',(0.891303409908,-0.453407357115,0.));
#756 = DIRECTION('',(-0.453407357115,-0.891303409908,0.));
#757 = ADVANCED_FACE('',(#758,#761),#764,.T.);
#758 = FACE_BOUND('',#759,.T.);
#759 = EDGE_LOOP('',(#760));
#760 = ORIENTED_EDGE('',*,*,#584,.T.);
#761 = FACE_BOUND('',#762,.T.);
#762 = EDGE_LOOP('',(#763));
#763 = ORIENTED_EDGE('',*,*,#503,.F.);
#764 = PLANE('',#765);
#765 = AXIS2_PLACEMENT_3D('',#766,#767,#768);
#766 = CARTESIAN_POINT('',(-5.,-15.64351896333,6.));
#767 = DIRECTION('',(-1.,-0.,-0.));
#768 = DIRECTION('',(0.,0.,1.));
#769 = ADVANCED_FACE('',(#770),#788,.T.);
#770 = FACE_BOUND('',#771,.T.);
#771 = EDGE_LOOP('',(#772,#780,#786,#787));
#772 = ORIENTED_EDGE('',*,*,#773,.F.);
#773 = EDGE_CURVE('',#774,#552,#776,.T.);
#774 = VERTEX_POINT('',#775);
#775 = CARTESIAN_POINT('',(-17.5,0.,32.));
#776 = LINE('',#777,#778);
#777 = CARTESIAN_POINT('',(-17.5,0.,32.));
#778 = VECTOR('',#779,1.);
#779 = DIRECTION('',(0.453407357115,-0.891303409908,0.));
#780 = ORIENTED_EDGE('',*,*,#781,.T.);
#781 = EDGE_CURVE('',#774,#523,#782,.T.);
#782 = LINE('',#783,#784);
#783 = CARTESIAN_POINT('',(-17.5,0.,32.));
#784 = VECTOR('',#785,1.);
#785 = DIRECTION('',(-0.,-0.,-1.));
#786 = ORIENTED_EDGE('',*,*,#520,.F.);
#787 = ORIENTED_EDGE('',*,*,#559,.F.);
#788 = PLANE('',#789);
#789 = AXIS2_PLACEMENT_3D('',#790,#791,#792);
#790 = CARTESIAN_POINT('',(-17.5,0.,32.));
#791 = DIRECTION('',(-0.891303409908,-0.453407357115,0.));
#792 = DIRECTION('',(0.453407357115,-0.891303409908,0.));
#793 = ADVANCED_FACE('',(#794),#825,.T.);
#794 = FACE_BOUND('',#795,.T.);
#795 = EDGE_LOOP('',(#796,#805,#814,#820,#821,#822,#823,#824));
#796 = ORIENTED_EDGE('',*,*,#797,.F.);
#797 = EDGE_CURVE('',#798,#153,#800,.T.);
#798 = VERTEX_POINT('',#799);
#799 = CARTESIAN_POINT('',(-8.781941698736,-4.,32.));
#800 = CIRCLE('',#801,9.65);
#801 = AXIS2_PLACEMENT_3D('',#802,#803,#804);
#802 = CARTESIAN_POINT('',(0.,0.,32.));
#803 = DIRECTION('',(0.,0.,1.));
#804 = DIRECTION('',(1.,0.,0.));
#805 = ORIENTED_EDGE('',*,*,#806,.F.);
#806 = EDGE_CURVE('',#807,#798,#809,.T.);
#807 = VERTEX_POINT('',#808);
#808 = CARTESIAN_POINT('',(-9.65,1.3E-13,32.));
#809 = CIRCLE('',#810,9.65);
#810 = AXIS2_PLACEMENT_3D('',#811,#812,#813);
#811 = CARTESIAN_POINT('',(0.,0.,32.));
#812 = DIRECTION('',(0.,0.,1.));
#813 = DIRECTION('',(1.,0.,0.));
#814 = ORIENTED_EDGE('',*,*,#815,.T.);
#815 = EDGE_CURVE('',#807,#774,#816,.T.);
#816 = LINE('',#817,#818);
#817 = CARTESIAN_POINT('',(0.,0.,32.));
#818 = VECTOR('',#819,1.);
#819 = DIRECTION('',(-1.,0.,0.));
#820 = ORIENTED_EDGE('',*,*,#773,.T.);
#821 = ORIENTED_EDGE('',*,*,#551,.T.);
#822 = ORIENTED_EDGE('',*,*,#220,.F.);
#823 = ORIENTED_EDGE('',*,*,#195,.F.);
#824 = ORIENTED_EDGE('',*,*,#160,.F.);
#825 = PLANE('',#826);
#826 = AXIS2_PLACEMENT_3D('',#827,#828,#829);
#827 = CARTESIAN_POINT('',(-7.651083379265,-9.76841208158,32.));
#828 = DIRECTION('',(0.,0.,1.));
#829 = DIRECTION('',(1.,0.,-0.));
#830 = ADVANCED_FACE('',(#831),#843,.T.);
#831 = FACE_BOUND('',#832,.T.);
#832 = EDGE_LOOP('',(#833,#834,#840,#841,#842));
#833 = ORIENTED_EDGE('',*,*,#815,.F.);
#834 = ORIENTED_EDGE('',*,*,#835,.T.);
#835 = EDGE_CURVE('',#807,#442,#836,.T.);
#836 = LINE('',#837,#838);
#837 = CARTESIAN_POINT('',(-9.65,0.,0.));
#838 = VECTOR('',#839,1.);
#839 = DIRECTION('',(-0.,-0.,-1.));
#840 = ORIENTED_EDGE('',*,*,#441,.T.);
#841 = ORIENTED_EDGE('',*,*,#537,.F.);
#842 = ORIENTED_EDGE('',*,*,#781,.F.);
#843 = PLANE('',#844);
#844 = AXIS2_PLACEMENT_3D('',#845,#846,#847);
#845 = CARTESIAN_POINT('',(-13.575,0.,27.));
#846 = DIRECTION('',(0.,1.,0.));
#847 = DIRECTION('',(0.,-0.,1.));
#848 = ADVANCED_FACE('',(#849),#858,.F.);
#849 = FACE_BOUND('',#850,.T.);
#850 = EDGE_LOOP('',(#851,#852,#853,#854,#855,#856,#857));
#851 = ORIENTED_EDGE('',*,*,#806,.T.);
#852 = ORIENTED_EDGE('',*,*,#797,.T.);
#853 = ORIENTED_EDGE('',*,*,#152,.F.);
#854 = ORIENTED_EDGE('',*,*,#31,.F.);
#855 = ORIENTED_EDGE('',*,*,#127,.T.);
#856 = ORIENTED_EDGE('',*,*,#449,.F.);
#857 = ORIENTED_EDGE('',*,*,#835,.F.);
#858 = CYLINDRICAL_SURFACE('',#859,9.65);
#859 = AXIS2_PLACEMENT_3D('',#860,#861,#862);
#860 = CARTESIAN_POINT('',(0.,0.,0.));
#861 = DIRECTION('',(-0.,-0.,-1.));
#862 = DIRECTION('',(1.,0.,0.));
#863 = ( GEOMETRIC_REPRESENTATION_CONTEXT(3) 
GLOBAL_UNCERTAINTY_ASSIGNED_CONTEXT((#867)) GLOBAL_UNIT_ASSIGNED_CONTEXT
((#864,#865,#866)) REPRESENTATION_CONTEXT('Context #1',
  '3D Context with UNIT and UNCERTAINTY') );
#864 = ( LENGTH_UNIT() NAMED_UNIT(*) SI_UNIT(.MILLI.,.METRE.) );
#865 = ( NAMED_UNIT(*) PLANE_ANGLE_UNIT() SI_UNIT($,.RADIAN.) );
#866 = ( NAMED_UNIT(*) SI_UNIT($,.STERADIAN.) SOLID_ANGLE_UNIT() );
#867 = UNCERTAINTY_MEASURE_WITH_UNIT(LENGTH_MEASURE(2.E-05),#864,
  'distance_accuracy_value','confusion accuracy');
#868 = PRODUCT_RELATED_PRODUCT_CATEGORY('part',$,(#7));
#869 = MECHANICAL_DESIGN_GEOMETRIC_PRESENTATION_REPRESENTATION('',(#870)
  ,#863);
#870 = STYLED_ITEM('color',(#871),#15);
#871 = PRESENTATION_STYLE_ASSIGNMENT((#872,#878));
#872 = SURFACE_STYLE_USAGE(.BOTH.,#873);
#873 = SURFACE_SIDE_STYLE('',(#874));
#874 = SURFACE_STYLE_FILL_AREA(#875);
#875 = FILL_AREA_STYLE('',(#876));
#876 = FILL_AREA_STYLE_COLOUR('',#877);
#877 = COLOUR_RGB('',0.678431390124,0.709803936702,0.741176476869);
#878 = CURVE_STYLE('',#879,POSITIVE_LENGTH_MEASURE(0.1),#880);
#879 = DRAUGHTING_PRE_DEFINED_CURVE_FONT('continuous');
#880 = COLOUR_RGB('',9.803921802644E-02,9.803921802644E-02,
  9.803921802644E-02);
ENDSEC;
END-ISO-10303-21;
