ISO-10303-21;
HEADER;
FILE_DESCRIPTION(('FreeCAD Model'),'2;1');
FILE_NAME('Open CASCADE Shape Model','2026-07-15T11:30:23',(''),(''),
  'Open CASCADE STEP processor 7.8','FreeCAD','Unknown');
FILE_SCHEMA(('AUTOMOTIVE_DESIGN { 1 0 10303 214 1 1 1 1 }'));
ENDSEC;
DATA;
#1 = APPLICATION_PROTOCOL_DEFINITION('international standard',
  'automotive_design',2000,#2);
#2 = APPLICATION_CONTEXT(
  'core data for automotive mechanical design processes');
#3 = SHAPE_DEFINITION_REPRESENTATION(#4,#10);
#4 = PRODUCT_DEFINITION_SHAPE('','',#5);
#5 = PRODUCT_DEFINITION('design','',#6,#9);
#6 = PRODUCT_DEFINITION_FORMATION('','',#7);
#7 = PRODUCT('Long','Long','',(#8));
#8 = PRODUCT_CONTEXT('',#2,'mechanical');
#9 = PRODUCT_DEFINITION_CONTEXT('part definition',#2,'design');
#10 = ADVANCED_BREP_SHAPE_REPRESENTATION('',(#11,#15),#697);
#11 = AXIS2_PLACEMENT_3D('',#12,#13,#14);
#12 = CARTESIAN_POINT('',(0.,0.,0.));
#13 = DIRECTION('',(0.,0.,1.));
#14 = DIRECTION('',(1.,0.,-0.));
#15 = MANIFOLD_SOLID_BREP('',#16);
#16 = CLOSED_SHELL('',(#17,#79,#110,#182,#206,#230,#255,#280,#327,#351,
    #375,#399,#423,#447,#498,#515,#535,#555,#572,#589,#620,#644,#668,
    #685));
#17 = ADVANCED_FACE('',(#18,#52,#63),#74,.T.);
#18 = FACE_BOUND('',#19,.T.);
#19 = EDGE_LOOP('',(#20,#30,#38,#46));
#20 = ORIENTED_EDGE('',*,*,#21,.T.);
#21 = EDGE_CURVE('',#22,#24,#26,.T.);
#22 = VERTEX_POINT('',#23);
#23 = CARTESIAN_POINT('',(0.,0.,0.));
#24 = VERTEX_POINT('',#25);
#25 = CARTESIAN_POINT('',(0.,0.,30.));
#26 = LINE('',#27,#28);
#27 = CARTESIAN_POINT('',(0.,0.,0.));
#28 = VECTOR('',#29,1.);
#29 = DIRECTION('',(0.,0.,1.));
#30 = ORIENTED_EDGE('',*,*,#31,.T.);
#31 = EDGE_CURVE('',#24,#32,#34,.T.);
#32 = VERTEX_POINT('',#33);
#33 = CARTESIAN_POINT('',(0.,20.,30.));
#34 = LINE('',#35,#36);
#35 = CARTESIAN_POINT('',(0.,0.,30.));
#36 = VECTOR('',#37,1.);
#37 = DIRECTION('',(0.,1.,0.));
#38 = ORIENTED_EDGE('',*,*,#39,.F.);
#39 = EDGE_CURVE('',#40,#32,#42,.T.);
#40 = VERTEX_POINT('',#41);
#41 = CARTESIAN_POINT('',(0.,20.,0.));
#42 = LINE('',#43,#44);
#43 = CARTESIAN_POINT('',(0.,20.,0.));
#44 = VECTOR('',#45,1.);
#45 = DIRECTION('',(0.,0.,1.));
#46 = ORIENTED_EDGE('',*,*,#47,.F.);
#47 = EDGE_CURVE('',#22,#40,#48,.T.);
#48 = LINE('',#49,#50);
#49 = CARTESIAN_POINT('',(0.,0.,0.));
#50 = VECTOR('',#51,1.);
#51 = DIRECTION('',(0.,1.,0.));
#52 = FACE_BOUND('',#53,.T.);
#53 = EDGE_LOOP('',(#54));
#54 = ORIENTED_EDGE('',*,*,#55,.F.);
#55 = EDGE_CURVE('',#56,#56,#58,.T.);
#56 = VERTEX_POINT('',#57);
#57 = CARTESIAN_POINT('',(0.,10.,19.75));
#58 = CIRCLE('',#59,2.75);
#59 = AXIS2_PLACEMENT_3D('',#60,#61,#62);
#60 = CARTESIAN_POINT('',(0.,10.,22.5));
#61 = DIRECTION('',(-1.,-0.,-0.));
#62 = DIRECTION('',(0.,0.,-1.));
#63 = FACE_BOUND('',#64,.T.);
#64 = EDGE_LOOP('',(#65));
#65 = ORIENTED_EDGE('',*,*,#66,.F.);
#66 = EDGE_CURVE('',#67,#67,#69,.T.);
#67 = VERTEX_POINT('',#68);
#68 = CARTESIAN_POINT('',(0.,10.,4.75));
#69 = CIRCLE('',#70,2.75);
#70 = AXIS2_PLACEMENT_3D('',#71,#72,#73);
#71 = CARTESIAN_POINT('',(0.,10.,7.5));
#72 = DIRECTION('',(-1.,-0.,-0.));
#73 = DIRECTION('',(0.,0.,-1.));
#74 = PLANE('',#75);
#75 = AXIS2_PLACEMENT_3D('',#76,#77,#78);
#76 = CARTESIAN_POINT('',(0.,0.,0.));
#77 = DIRECTION('',(-1.,0.,0.));
#78 = DIRECTION('',(0.,1.,0.));
#79 = ADVANCED_FACE('',(#80),#105,.F.);
#80 = FACE_BOUND('',#81,.F.);
#81 = EDGE_LOOP('',(#82,#83,#91,#99));
#82 = ORIENTED_EDGE('',*,*,#21,.T.);
#83 = ORIENTED_EDGE('',*,*,#84,.T.);
#84 = EDGE_CURVE('',#24,#85,#87,.T.);
#85 = VERTEX_POINT('',#86);
#86 = CARTESIAN_POINT('',(5.,0.,30.));
#87 = LINE('',#88,#89);
#88 = CARTESIAN_POINT('',(0.,0.,30.));
#89 = VECTOR('',#90,1.);
#90 = DIRECTION('',(1.,0.,0.));
#91 = ORIENTED_EDGE('',*,*,#92,.F.);
#92 = EDGE_CURVE('',#93,#85,#95,.T.);
#93 = VERTEX_POINT('',#94);
#94 = CARTESIAN_POINT('',(5.,0.,0.));
#95 = LINE('',#96,#97);
#96 = CARTESIAN_POINT('',(5.,0.,0.));
#97 = VECTOR('',#98,1.);
#98 = DIRECTION('',(0.,0.,1.));
#99 = ORIENTED_EDGE('',*,*,#100,.F.);
#100 = EDGE_CURVE('',#22,#93,#101,.T.);
#101 = LINE('',#102,#103);
#102 = CARTESIAN_POINT('',(0.,0.,0.));
#103 = VECTOR('',#104,1.);
#104 = DIRECTION('',(1.,0.,0.));
#105 = PLANE('',#106);
#106 = AXIS2_PLACEMENT_3D('',#107,#108,#109);
#107 = CARTESIAN_POINT('',(0.,0.,0.));
#108 = DIRECTION('',(0.,1.,0.));
#109 = DIRECTION('',(1.,0.,0.));
#110 = ADVANCED_FACE('',(#111),#177,.F.);
#111 = FACE_BOUND('',#112,.T.);
#112 = EDGE_LOOP('',(#113,#114,#122,#130,#138,#146,#154,#162,#170,#176)
  );
#113 = ORIENTED_EDGE('',*,*,#47,.T.);
#114 = ORIENTED_EDGE('',*,*,#115,.T.);
#115 = EDGE_CURVE('',#40,#116,#118,.T.);
#116 = VERTEX_POINT('',#117);
#117 = CARTESIAN_POINT('',(-5.,20.,0.));
#118 = LINE('',#119,#120);
#119 = CARTESIAN_POINT('',(0.,20.,0.));
#120 = VECTOR('',#121,1.);
#121 = DIRECTION('',(-1.,0.,0.));
#122 = ORIENTED_EDGE('',*,*,#123,.T.);
#123 = EDGE_CURVE('',#116,#124,#126,.T.);
#124 = VERTEX_POINT('',#125);
#125 = CARTESIAN_POINT('',(-5.,30.,0.));
#126 = LINE('',#127,#128);
#127 = CARTESIAN_POINT('',(-5.,20.,0.));
#128 = VECTOR('',#129,1.);
#129 = DIRECTION('',(0.,1.,0.));
#130 = ORIENTED_EDGE('',*,*,#131,.T.);
#131 = EDGE_CURVE('',#124,#132,#134,.T.);
#132 = VERTEX_POINT('',#133);
#133 = CARTESIAN_POINT('',(8.588584416385,75.217463,0.));
#134 = LINE('',#135,#136);
#135 = CARTESIAN_POINT('',(-5.,30.,0.));
#136 = VECTOR('',#137,1.);
#137 = DIRECTION('',(0.287801477095,0.957690090677,0.));
#138 = ORIENTED_EDGE('',*,*,#139,.F.);
#139 = EDGE_CURVE('',#140,#132,#142,.T.);
#140 = VERTEX_POINT('',#141);
#141 = CARTESIAN_POINT('',(15.,116.49,0.));
#142 = LINE('',#143,#144);
#143 = CARTESIAN_POINT('',(15.,116.49,0.));
#144 = VECTOR('',#145,1.);
#145 = DIRECTION('',(-0.153502299808,-0.988148290467,0.));
#146 = ORIENTED_EDGE('',*,*,#147,.F.);
#147 = EDGE_CURVE('',#148,#140,#150,.T.);
#148 = VERTEX_POINT('',#149);
#149 = CARTESIAN_POINT('',(15.,136.49,0.));
#150 = LINE('',#151,#152);
#151 = CARTESIAN_POINT('',(15.,136.49,0.));
#152 = VECTOR('',#153,1.);
#153 = DIRECTION('',(0.,-1.,0.));
#154 = ORIENTED_EDGE('',*,*,#155,.F.);
#155 = EDGE_CURVE('',#156,#148,#158,.T.);
#156 = VERTEX_POINT('',#157);
#157 = CARTESIAN_POINT('',(18.,136.49,0.));
#158 = LINE('',#159,#160);
#159 = CARTESIAN_POINT('',(18.,136.49,0.));
#160 = VECTOR('',#161,1.);
#161 = DIRECTION('',(-1.,0.,0.));
#162 = ORIENTED_EDGE('',*,*,#163,.F.);
#163 = EDGE_CURVE('',#164,#156,#166,.T.);
#164 = VERTEX_POINT('',#165);
#165 = CARTESIAN_POINT('',(18.,83.685572086639,0.));
#166 = LINE('',#167,#168);
#167 = CARTESIAN_POINT('',(18.,83.685572086639,0.));
#168 = VECTOR('',#169,1.);
#169 = DIRECTION('',(0.,1.,0.));
#170 = ORIENTED_EDGE('',*,*,#171,.F.);
#171 = EDGE_CURVE('',#93,#164,#172,.T.);
#172 = LINE('',#173,#174);
#173 = CARTESIAN_POINT('',(5.,0.,0.));
#174 = VECTOR('',#175,1.);
#175 = DIRECTION('',(0.153502299808,0.988148290467,0.));
#176 = ORIENTED_EDGE('',*,*,#100,.F.);
#177 = PLANE('',#178);
#178 = AXIS2_PLACEMENT_3D('',#179,#180,#181);
#179 = CARTESIAN_POINT('',(9.67693041246,66.787939851709,0.));
#180 = DIRECTION('',(0.,0.,1.));
#181 = DIRECTION('',(1.,0.,0.));
#182 = ADVANCED_FACE('',(#183),#201,.T.);
#183 = FACE_BOUND('',#184,.T.);
#184 = EDGE_LOOP('',(#185,#186,#187,#195));
#185 = ORIENTED_EDGE('',*,*,#31,.F.);
#186 = ORIENTED_EDGE('',*,*,#84,.T.);
#187 = ORIENTED_EDGE('',*,*,#188,.T.);
#188 = EDGE_CURVE('',#85,#189,#191,.T.);
#189 = VERTEX_POINT('',#190);
#190 = CARTESIAN_POINT('',(8.10686768958,20.,30.));
#191 = LINE('',#192,#193);
#192 = CARTESIAN_POINT('',(5.,0.,30.));
#193 = VECTOR('',#194,1.);
#194 = DIRECTION('',(0.153502299808,0.988148290467,0.));
#195 = ORIENTED_EDGE('',*,*,#196,.F.);
#196 = EDGE_CURVE('',#32,#189,#197,.T.);
#197 = LINE('',#198,#199);
#198 = CARTESIAN_POINT('',(0.,20.,30.));
#199 = VECTOR('',#200,1.);
#200 = DIRECTION('',(1.,0.,0.));
#201 = PLANE('',#202);
#202 = AXIS2_PLACEMENT_3D('',#203,#204,#205);
#203 = CARTESIAN_POINT('',(9.67693041246,66.787939851709,30.));
#204 = DIRECTION('',(0.,0.,1.));
#205 = DIRECTION('',(1.,0.,0.));
#206 = ADVANCED_FACE('',(#207),#225,.T.);
#207 = FACE_BOUND('',#208,.T.);
#208 = EDGE_LOOP('',(#209,#210,#218,#224));
#209 = ORIENTED_EDGE('',*,*,#39,.T.);
#210 = ORIENTED_EDGE('',*,*,#211,.T.);
#211 = EDGE_CURVE('',#32,#212,#214,.T.);
#212 = VERTEX_POINT('',#213);
#213 = CARTESIAN_POINT('',(-5.,20.,30.));
#214 = LINE('',#215,#216);
#215 = CARTESIAN_POINT('',(0.,20.,30.));
#216 = VECTOR('',#217,1.);
#217 = DIRECTION('',(-1.,0.,0.));
#218 = ORIENTED_EDGE('',*,*,#219,.F.);
#219 = EDGE_CURVE('',#116,#212,#220,.T.);
#220 = LINE('',#221,#222);
#221 = CARTESIAN_POINT('',(-5.,20.,0.));
#222 = VECTOR('',#223,1.);
#223 = DIRECTION('',(0.,0.,1.));
#224 = ORIENTED_EDGE('',*,*,#115,.F.);
#225 = PLANE('',#226);
#226 = AXIS2_PLACEMENT_3D('',#227,#228,#229);
#227 = CARTESIAN_POINT('',(0.,20.,0.));
#228 = DIRECTION('',(0.,-1.,0.));
#229 = DIRECTION('',(-1.,0.,0.));
#230 = ADVANCED_FACE('',(#231),#250,.F.);
#231 = FACE_BOUND('',#232,.T.);
#232 = EDGE_LOOP('',(#233,#241,#248,#249));
#233 = ORIENTED_EDGE('',*,*,#234,.F.);
#234 = EDGE_CURVE('',#235,#56,#237,.T.);
#235 = VERTEX_POINT('',#236);
#236 = CARTESIAN_POINT('',(5.7,10.,19.75));
#237 = LINE('',#238,#239);
#238 = CARTESIAN_POINT('',(5.7,10.,19.75));
#239 = VECTOR('',#240,1.);
#240 = DIRECTION('',(-1.,0.,6.139482163826E-17));
#241 = ORIENTED_EDGE('',*,*,#242,.T.);
#242 = EDGE_CURVE('',#235,#235,#243,.T.);
#243 = CIRCLE('',#244,2.75);
#244 = AXIS2_PLACEMENT_3D('',#245,#246,#247);
#245 = CARTESIAN_POINT('',(5.7,10.,22.5));
#246 = DIRECTION('',(1.,-0.,0.));
#247 = DIRECTION('',(0.,0.,-1.));
#248 = ORIENTED_EDGE('',*,*,#234,.T.);
#249 = ORIENTED_EDGE('',*,*,#55,.T.);
#250 = CYLINDRICAL_SURFACE('',#251,2.75);
#251 = AXIS2_PLACEMENT_3D('',#252,#253,#254);
#252 = CARTESIAN_POINT('',(5.7,10.,22.5));
#253 = DIRECTION('',(-1.,-0.,-0.));
#254 = DIRECTION('',(0.,0.,-1.));
#255 = ADVANCED_FACE('',(#256),#275,.F.);
#256 = FACE_BOUND('',#257,.T.);
#257 = EDGE_LOOP('',(#258,#266,#273,#274));
#258 = ORIENTED_EDGE('',*,*,#259,.F.);
#259 = EDGE_CURVE('',#260,#67,#262,.T.);
#260 = VERTEX_POINT('',#261);
#261 = CARTESIAN_POINT('',(5.7,10.,4.75));
#262 = LINE('',#263,#264);
#263 = CARTESIAN_POINT('',(5.7,10.,4.75));
#264 = VECTOR('',#265,1.);
#265 = DIRECTION('',(-1.,0.,6.139482163826E-17));
#266 = ORIENTED_EDGE('',*,*,#267,.T.);
#267 = EDGE_CURVE('',#260,#260,#268,.T.);
#268 = CIRCLE('',#269,2.75);
#269 = AXIS2_PLACEMENT_3D('',#270,#271,#272);
#270 = CARTESIAN_POINT('',(5.7,10.,7.5));
#271 = DIRECTION('',(1.,-0.,0.));
#272 = DIRECTION('',(0.,0.,-1.));
#273 = ORIENTED_EDGE('',*,*,#259,.T.);
#274 = ORIENTED_EDGE('',*,*,#66,.T.);
#275 = CYLINDRICAL_SURFACE('',#276,2.75);
#276 = AXIS2_PLACEMENT_3D('',#277,#278,#279);
#277 = CARTESIAN_POINT('',(5.7,10.,7.5));
#278 = DIRECTION('',(-1.,-0.,-0.));
#279 = DIRECTION('',(0.,0.,-1.));
#280 = ADVANCED_FACE('',(#281,#300,#311),#322,.F.);
#281 = FACE_BOUND('',#282,.F.);
#282 = EDGE_LOOP('',(#283,#284,#285,#286,#294));
#283 = ORIENTED_EDGE('',*,*,#171,.F.);
#284 = ORIENTED_EDGE('',*,*,#92,.T.);
#285 = ORIENTED_EDGE('',*,*,#188,.T.);
#286 = ORIENTED_EDGE('',*,*,#287,.F.);
#287 = EDGE_CURVE('',#288,#189,#290,.T.);
#288 = VERTEX_POINT('',#289);
#289 = CARTESIAN_POINT('',(18.,83.685572086639,21.799437022066));
#290 = LINE('',#291,#292);
#291 = CARTESIAN_POINT('',(11.191589228325,39.857437438293,
    27.443028916007));
#292 = VECTOR('',#293,1.);
#293 = DIRECTION('',(-0.152274578917,-0.9802450193,0.126222639621));
#294 = ORIENTED_EDGE('',*,*,#295,.F.);
#295 = EDGE_CURVE('',#164,#288,#296,.T.);
#296 = LINE('',#297,#298);
#297 = CARTESIAN_POINT('',(18.,83.685572086639,0.));
#298 = VECTOR('',#299,1.);
#299 = DIRECTION('',(0.,0.,1.));
#300 = FACE_BOUND('',#301,.F.);
#301 = EDGE_LOOP('',(#302));
#302 = ORIENTED_EDGE('',*,*,#303,.F.);
#303 = EDGE_CURVE('',#304,#304,#306,.T.);
#304 = VERTEX_POINT('',#305);
#305 = CARTESIAN_POINT('',(6.55343384479,10.,17.5));
#306 = ELLIPSE('',#307,5.059969286224,5.);
#307 = AXIS2_PLACEMENT_3D('',#308,#309,#310);
#308 = CARTESIAN_POINT('',(6.55343384479,10.,22.5));
#309 = DIRECTION('',(-0.988148290467,0.153502299808,0.));
#310 = DIRECTION('',(-0.153502299808,-0.988148290467,0.));
#311 = FACE_BOUND('',#312,.F.);
#312 = EDGE_LOOP('',(#313));
#313 = ORIENTED_EDGE('',*,*,#314,.F.);
#314 = EDGE_CURVE('',#315,#315,#317,.T.);
#315 = VERTEX_POINT('',#316);
#316 = CARTESIAN_POINT('',(6.55343384479,10.,2.5));
#317 = ELLIPSE('',#318,5.059969286224,5.);
#318 = AXIS2_PLACEMENT_3D('',#319,#320,#321);
#319 = CARTESIAN_POINT('',(6.55343384479,10.,7.5));
#320 = DIRECTION('',(-0.988148290467,0.153502299808,0.));
#321 = DIRECTION('',(-0.153502299808,-0.988148290467,0.));
#322 = PLANE('',#323);
#323 = AXIS2_PLACEMENT_3D('',#324,#325,#326);
#324 = CARTESIAN_POINT('',(5.,0.,0.));
#325 = DIRECTION('',(-0.988148290467,0.153502299808,0.));
#326 = DIRECTION('',(0.153502299808,0.988148290467,0.));
#327 = ADVANCED_FACE('',(#328),#346,.T.);
#328 = FACE_BOUND('',#329,.T.);
#329 = EDGE_LOOP('',(#330,#331,#332,#340));
#330 = ORIENTED_EDGE('',*,*,#123,.F.);
#331 = ORIENTED_EDGE('',*,*,#219,.T.);
#332 = ORIENTED_EDGE('',*,*,#333,.F.);
#333 = EDGE_CURVE('',#334,#212,#336,.T.);
#334 = VERTEX_POINT('',#335);
#335 = CARTESIAN_POINT('',(-5.,30.,28.712335822817));
#336 = LINE('',#337,#338);
#337 = CARTESIAN_POINT('',(-5.,51.022492882162,26.005344722874));
#338 = VECTOR('',#339,1.);
#339 = DIRECTION('',(0.,-0.991811296665,0.127711987724));
#340 = ORIENTED_EDGE('',*,*,#341,.F.);
#341 = EDGE_CURVE('',#124,#334,#342,.T.);
#342 = LINE('',#343,#344);
#343 = CARTESIAN_POINT('',(-5.,30.,0.));
#344 = VECTOR('',#345,1.);
#345 = DIRECTION('',(0.,0.,1.));
#346 = PLANE('',#347);
#347 = AXIS2_PLACEMENT_3D('',#348,#349,#350);
#348 = CARTESIAN_POINT('',(-5.,20.,0.));
#349 = DIRECTION('',(-1.,0.,0.));
#350 = DIRECTION('',(0.,1.,0.));
#351 = ADVANCED_FACE('',(#352),#370,.T.);
#352 = FACE_BOUND('',#353,.T.);
#353 = EDGE_LOOP('',(#354,#355,#356,#364));
#354 = ORIENTED_EDGE('',*,*,#131,.F.);
#355 = ORIENTED_EDGE('',*,*,#341,.T.);
#356 = ORIENTED_EDGE('',*,*,#357,.F.);
#357 = EDGE_CURVE('',#358,#334,#360,.T.);
#358 = VERTEX_POINT('',#359);
#359 = CARTESIAN_POINT('',(8.588584416385,75.217463,22.889845093999));
#360 = LINE('',#361,#362);
#361 = CARTESIAN_POINT('',(2.363606977503,54.503187075932,
    25.557148200369));
#362 = VECTOR('',#363,1.);
#363 = DIRECTION('',(-0.285637767044,-0.95049011486,0.122391207167));
#364 = ORIENTED_EDGE('',*,*,#365,.F.);
#365 = EDGE_CURVE('',#132,#358,#366,.T.);
#366 = LINE('',#367,#368);
#367 = CARTESIAN_POINT('',(8.588584416385,75.217463,0.));
#368 = VECTOR('',#369,1.);
#369 = DIRECTION('',(0.,0.,1.));
#370 = PLANE('',#371);
#371 = AXIS2_PLACEMENT_3D('',#372,#373,#374);
#372 = CARTESIAN_POINT('',(-5.,30.,0.));
#373 = DIRECTION('',(-0.957690090677,0.287801477095,0.));
#374 = DIRECTION('',(0.287801477095,0.957690090677,0.));
#375 = ADVANCED_FACE('',(#376),#394,.F.);
#376 = FACE_BOUND('',#377,.F.);
#377 = EDGE_LOOP('',(#378,#379,#387,#393));
#378 = ORIENTED_EDGE('',*,*,#139,.F.);
#379 = ORIENTED_EDGE('',*,*,#380,.T.);
#380 = EDGE_CURVE('',#140,#381,#383,.T.);
#381 = VERTEX_POINT('',#382);
#382 = CARTESIAN_POINT('',(15.,116.49,17.575328354365));
#383 = LINE('',#384,#385);
#384 = CARTESIAN_POINT('',(15.,116.49,0.));
#385 = VECTOR('',#386,1.);
#386 = DIRECTION('',(0.,0.,1.));
#387 = ORIENTED_EDGE('',*,*,#388,.F.);
#388 = EDGE_CURVE('',#358,#381,#389,.T.);
#389 = LINE('',#390,#391);
#390 = CARTESIAN_POINT('',(12.093322676679,97.778695794356,
    19.984715967763));
#391 = VECTOR('',#392,1.);
#392 = DIRECTION('',(0.152274578917,0.9802450193,-0.126222639621));
#393 = ORIENTED_EDGE('',*,*,#365,.F.);
#394 = PLANE('',#395);
#395 = AXIS2_PLACEMENT_3D('',#396,#397,#398);
#396 = CARTESIAN_POINT('',(15.,116.49,0.));
#397 = DIRECTION('',(0.988148290467,-0.153502299808,0.));
#398 = DIRECTION('',(-0.153502299808,-0.988148290467,0.));
#399 = ADVANCED_FACE('',(#400),#418,.F.);
#400 = FACE_BOUND('',#401,.F.);
#401 = EDGE_LOOP('',(#402,#403,#411,#417));
#402 = ORIENTED_EDGE('',*,*,#147,.F.);
#403 = ORIENTED_EDGE('',*,*,#404,.T.);
#404 = EDGE_CURVE('',#148,#405,#407,.T.);
#405 = VERTEX_POINT('',#406);
#406 = CARTESIAN_POINT('',(15.,136.49,15.));
#407 = LINE('',#408,#409);
#408 = CARTESIAN_POINT('',(15.,136.49,0.));
#409 = VECTOR('',#410,1.);
#410 = DIRECTION('',(0.,0.,1.));
#411 = ORIENTED_EDGE('',*,*,#412,.F.);
#412 = EDGE_CURVE('',#381,#405,#413,.T.);
#413 = LINE('',#414,#415);
#414 = CARTESIAN_POINT('',(15.,108.31749644108,18.627672361437));
#415 = VECTOR('',#416,1.);
#416 = DIRECTION('',(0.,0.991811296665,-0.127711987724));
#417 = ORIENTED_EDGE('',*,*,#380,.F.);
#418 = PLANE('',#419);
#419 = AXIS2_PLACEMENT_3D('',#420,#421,#422);
#420 = CARTESIAN_POINT('',(15.,136.49,0.));
#421 = DIRECTION('',(1.,0.,0.));
#422 = DIRECTION('',(0.,-1.,0.));
#423 = ADVANCED_FACE('',(#424),#442,.F.);
#424 = FACE_BOUND('',#425,.F.);
#425 = EDGE_LOOP('',(#426,#427,#435,#441));
#426 = ORIENTED_EDGE('',*,*,#155,.F.);
#427 = ORIENTED_EDGE('',*,*,#428,.T.);
#428 = EDGE_CURVE('',#156,#429,#431,.T.);
#429 = VERTEX_POINT('',#430);
#430 = CARTESIAN_POINT('',(18.,136.49,15.));
#431 = LINE('',#432,#433);
#432 = CARTESIAN_POINT('',(18.,136.49,0.));
#433 = VECTOR('',#434,1.);
#434 = DIRECTION('',(0.,0.,1.));
#435 = ORIENTED_EDGE('',*,*,#436,.T.);
#436 = EDGE_CURVE('',#429,#405,#437,.T.);
#437 = LINE('',#438,#439);
#438 = CARTESIAN_POINT('',(0.,136.49,15.));
#439 = VECTOR('',#440,1.);
#440 = DIRECTION('',(-1.,-0.,-0.));
#441 = ORIENTED_EDGE('',*,*,#404,.F.);
#442 = PLANE('',#443);
#443 = AXIS2_PLACEMENT_3D('',#444,#445,#446);
#444 = CARTESIAN_POINT('',(18.,136.49,0.));
#445 = DIRECTION('',(0.,-1.,0.));
#446 = DIRECTION('',(-1.,0.,0.));
#447 = ADVANCED_FACE('',(#448,#459),#493,.F.);
#448 = FACE_BOUND('',#449,.F.);
#449 = EDGE_LOOP('',(#450,#451,#452,#458));
#450 = ORIENTED_EDGE('',*,*,#163,.F.);
#451 = ORIENTED_EDGE('',*,*,#295,.T.);
#452 = ORIENTED_EDGE('',*,*,#453,.F.);
#453 = EDGE_CURVE('',#429,#288,#454,.T.);
#454 = LINE('',#455,#456);
#455 = CARTESIAN_POINT('',(18.,82.345911882555,21.971940267505));
#456 = VECTOR('',#457,1.);
#457 = DIRECTION('',(0.,-0.991811296665,0.127711987724));
#458 = ORIENTED_EDGE('',*,*,#428,.F.);
#459 = FACE_BOUND('',#460,.F.);
#460 = EDGE_LOOP('',(#461,#471,#479,#487));
#461 = ORIENTED_EDGE('',*,*,#462,.T.);
#462 = EDGE_CURVE('',#463,#465,#467,.T.);
#463 = VERTEX_POINT('',#464);
#464 = CARTESIAN_POINT('',(18.,131.49,7.5));
#465 = VERTEX_POINT('',#466);
#466 = CARTESIAN_POINT('',(18.,129.49,4.5));
#467 = LINE('',#468,#469);
#468 = CARTESIAN_POINT('',(18.,131.49,7.5));
#469 = VECTOR('',#470,1.);
#470 = DIRECTION('',(0.,-0.554700196225,-0.832050294338));
#471 = ORIENTED_EDGE('',*,*,#472,.T.);
#472 = EDGE_CURVE('',#465,#473,#475,.T.);
#473 = VERTEX_POINT('',#474);
#474 = CARTESIAN_POINT('',(18.,134.49,7.5));
#475 = LINE('',#476,#477);
#476 = CARTESIAN_POINT('',(18.,129.49,4.5));
#477 = VECTOR('',#478,1.);
#478 = DIRECTION('',(0.,0.857492925713,0.514495755428));
#479 = ORIENTED_EDGE('',*,*,#480,.T.);
#480 = EDGE_CURVE('',#473,#481,#483,.T.);
#481 = VERTEX_POINT('',#482);
#482 = CARTESIAN_POINT('',(18.,129.49,10.5));
#483 = LINE('',#484,#485);
#484 = CARTESIAN_POINT('',(18.,134.49,7.5));
#485 = VECTOR('',#486,1.);
#486 = DIRECTION('',(0.,-0.857492925713,0.514495755428));
#487 = ORIENTED_EDGE('',*,*,#488,.T.);
#488 = EDGE_CURVE('',#481,#463,#489,.T.);
#489 = LINE('',#490,#491);
#490 = CARTESIAN_POINT('',(18.,129.49,10.5));
#491 = VECTOR('',#492,1.);
#492 = DIRECTION('',(0.,0.554700196225,-0.832050294338));
#493 = PLANE('',#494);
#494 = AXIS2_PLACEMENT_3D('',#495,#496,#497);
#495 = CARTESIAN_POINT('',(18.,83.685572086639,0.));
#496 = DIRECTION('',(-1.,0.,0.));
#497 = DIRECTION('',(0.,1.,0.));
#498 = ADVANCED_FACE('',(#499),#510,.F.);
#499 = FACE_BOUND('',#500,.F.);
#500 = EDGE_LOOP('',(#501,#502,#503,#504,#505,#506,#507,#508,#509));
#501 = ORIENTED_EDGE('',*,*,#436,.F.);
#502 = ORIENTED_EDGE('',*,*,#453,.T.);
#503 = ORIENTED_EDGE('',*,*,#287,.T.);
#504 = ORIENTED_EDGE('',*,*,#196,.F.);
#505 = ORIENTED_EDGE('',*,*,#211,.T.);
#506 = ORIENTED_EDGE('',*,*,#333,.F.);
#507 = ORIENTED_EDGE('',*,*,#357,.F.);
#508 = ORIENTED_EDGE('',*,*,#388,.T.);
#509 = ORIENTED_EDGE('',*,*,#412,.T.);
#510 = PLANE('',#511);
#511 = AXIS2_PLACEMENT_3D('',#512,#513,#514);
#512 = CARTESIAN_POINT('',(-5.275267006741E-15,78.245,22.5));
#513 = DIRECTION('',(-0.,-0.127711987724,-0.991811296665));
#514 = DIRECTION('',(0.,-0.991811296665,0.127711987724));
#515 = ADVANCED_FACE('',(#516,#527),#530,.T.);
#516 = FACE_BOUND('',#517,.T.);
#517 = EDGE_LOOP('',(#518));
#518 = ORIENTED_EDGE('',*,*,#519,.T.);
#519 = EDGE_CURVE('',#520,#520,#522,.T.);
#520 = VERTEX_POINT('',#521);
#521 = CARTESIAN_POINT('',(5.7,10.,17.5));
#522 = CIRCLE('',#523,5.);
#523 = AXIS2_PLACEMENT_3D('',#524,#525,#526);
#524 = CARTESIAN_POINT('',(5.7,10.,22.5));
#525 = DIRECTION('',(1.,-0.,0.));
#526 = DIRECTION('',(0.,0.,-1.));
#527 = FACE_BOUND('',#528,.T.);
#528 = EDGE_LOOP('',(#529));
#529 = ORIENTED_EDGE('',*,*,#242,.F.);
#530 = PLANE('',#531);
#531 = AXIS2_PLACEMENT_3D('',#532,#533,#534);
#532 = CARTESIAN_POINT('',(5.7,10.,22.5));
#533 = DIRECTION('',(1.,0.,0.));
#534 = DIRECTION('',(0.,0.,-1.));
#535 = ADVANCED_FACE('',(#536,#547),#550,.T.);
#536 = FACE_BOUND('',#537,.T.);
#537 = EDGE_LOOP('',(#538));
#538 = ORIENTED_EDGE('',*,*,#539,.T.);
#539 = EDGE_CURVE('',#540,#540,#542,.T.);
#540 = VERTEX_POINT('',#541);
#541 = CARTESIAN_POINT('',(5.7,10.,2.5));
#542 = CIRCLE('',#543,5.);
#543 = AXIS2_PLACEMENT_3D('',#544,#545,#546);
#544 = CARTESIAN_POINT('',(5.7,10.,7.5));
#545 = DIRECTION('',(1.,-0.,0.));
#546 = DIRECTION('',(0.,0.,-1.));
#547 = FACE_BOUND('',#548,.T.);
#548 = EDGE_LOOP('',(#549));
#549 = ORIENTED_EDGE('',*,*,#267,.F.);
#550 = PLANE('',#551);
#551 = AXIS2_PLACEMENT_3D('',#552,#553,#554);
#552 = CARTESIAN_POINT('',(5.7,10.,7.5));
#553 = DIRECTION('',(1.,0.,0.));
#554 = DIRECTION('',(0.,0.,-1.));
#555 = ADVANCED_FACE('',(#556),#567,.F.);
#556 = FACE_BOUND('',#557,.T.);
#557 = EDGE_LOOP('',(#558,#559,#565,#566));
#558 = ORIENTED_EDGE('',*,*,#303,.F.);
#559 = ORIENTED_EDGE('',*,*,#560,.T.);
#560 = EDGE_CURVE('',#304,#520,#561,.T.);
#561 = LINE('',#562,#563);
#562 = CARTESIAN_POINT('',(9.,10.,17.5));
#563 = VECTOR('',#564,1.);
#564 = DIRECTION('',(-1.,0.,0.));
#565 = ORIENTED_EDGE('',*,*,#519,.F.);
#566 = ORIENTED_EDGE('',*,*,#560,.F.);
#567 = CYLINDRICAL_SURFACE('',#568,5.);
#568 = AXIS2_PLACEMENT_3D('',#569,#570,#571);
#569 = CARTESIAN_POINT('',(9.,10.,22.5));
#570 = DIRECTION('',(-1.,-0.,-0.));
#571 = DIRECTION('',(0.,0.,-1.));
#572 = ADVANCED_FACE('',(#573),#584,.F.);
#573 = FACE_BOUND('',#574,.T.);
#574 = EDGE_LOOP('',(#575,#576,#582,#583));
#575 = ORIENTED_EDGE('',*,*,#314,.F.);
#576 = ORIENTED_EDGE('',*,*,#577,.T.);
#577 = EDGE_CURVE('',#315,#540,#578,.T.);
#578 = LINE('',#579,#580);
#579 = CARTESIAN_POINT('',(9.,10.,2.5));
#580 = VECTOR('',#581,1.);
#581 = DIRECTION('',(-1.,0.,0.));
#582 = ORIENTED_EDGE('',*,*,#539,.F.);
#583 = ORIENTED_EDGE('',*,*,#577,.F.);
#584 = CYLINDRICAL_SURFACE('',#585,5.);
#585 = AXIS2_PLACEMENT_3D('',#586,#587,#588);
#586 = CARTESIAN_POINT('',(9.,10.,7.5));
#587 = DIRECTION('',(-1.,-0.,-0.));
#588 = DIRECTION('',(0.,0.,-1.));
#589 = ADVANCED_FACE('',(#590),#615,.F.);
#590 = FACE_BOUND('',#591,.F.);
#591 = EDGE_LOOP('',(#592,#600,#608,#614));
#592 = ORIENTED_EDGE('',*,*,#593,.T.);
#593 = EDGE_CURVE('',#463,#594,#596,.T.);
#594 = VERTEX_POINT('',#595);
#595 = CARTESIAN_POINT('',(17.,131.49,7.5));
#596 = LINE('',#597,#598);
#597 = CARTESIAN_POINT('',(18.,131.49,7.5));
#598 = VECTOR('',#599,1.);
#599 = DIRECTION('',(-1.,-0.,-0.));
#600 = ORIENTED_EDGE('',*,*,#601,.T.);
#601 = EDGE_CURVE('',#594,#602,#604,.T.);
#602 = VERTEX_POINT('',#603);
#603 = CARTESIAN_POINT('',(17.,129.49,4.5));
#604 = LINE('',#605,#606);
#605 = CARTESIAN_POINT('',(17.,131.49,7.5));
#606 = VECTOR('',#607,1.);
#607 = DIRECTION('',(0.,-0.554700196225,-0.832050294338));
#608 = ORIENTED_EDGE('',*,*,#609,.F.);
#609 = EDGE_CURVE('',#465,#602,#610,.T.);
#610 = LINE('',#611,#612);
#611 = CARTESIAN_POINT('',(18.,129.49,4.5));
#612 = VECTOR('',#613,1.);
#613 = DIRECTION('',(-1.,-0.,-0.));
#614 = ORIENTED_EDGE('',*,*,#462,.F.);
#615 = PLANE('',#616);
#616 = AXIS2_PLACEMENT_3D('',#617,#618,#619);
#617 = CARTESIAN_POINT('',(18.,131.49,7.5));
#618 = DIRECTION('',(0.,-0.832050294338,0.554700196225));
#619 = DIRECTION('',(0.,-0.554700196225,-0.832050294338));
#620 = ADVANCED_FACE('',(#621),#639,.F.);
#621 = FACE_BOUND('',#622,.F.);
#622 = EDGE_LOOP('',(#623,#631,#637,#638));
#623 = ORIENTED_EDGE('',*,*,#624,.T.);
#624 = EDGE_CURVE('',#481,#625,#627,.T.);
#625 = VERTEX_POINT('',#626);
#626 = CARTESIAN_POINT('',(17.,129.49,10.5));
#627 = LINE('',#628,#629);
#628 = CARTESIAN_POINT('',(18.,129.49,10.5));
#629 = VECTOR('',#630,1.);
#630 = DIRECTION('',(-1.,-0.,-0.));
#631 = ORIENTED_EDGE('',*,*,#632,.T.);
#632 = EDGE_CURVE('',#625,#594,#633,.T.);
#633 = LINE('',#634,#635);
#634 = CARTESIAN_POINT('',(17.,129.49,10.5));
#635 = VECTOR('',#636,1.);
#636 = DIRECTION('',(0.,0.554700196225,-0.832050294338));
#637 = ORIENTED_EDGE('',*,*,#593,.F.);
#638 = ORIENTED_EDGE('',*,*,#488,.F.);
#639 = PLANE('',#640);
#640 = AXIS2_PLACEMENT_3D('',#641,#642,#643);
#641 = CARTESIAN_POINT('',(18.,129.49,10.5));
#642 = DIRECTION('',(0.,-0.832050294338,-0.554700196225));
#643 = DIRECTION('',(0.,0.554700196225,-0.832050294338));
#644 = ADVANCED_FACE('',(#645),#663,.F.);
#645 = FACE_BOUND('',#646,.F.);
#646 = EDGE_LOOP('',(#647,#648,#656,#662));
#647 = ORIENTED_EDGE('',*,*,#609,.T.);
#648 = ORIENTED_EDGE('',*,*,#649,.T.);
#649 = EDGE_CURVE('',#602,#650,#652,.T.);
#650 = VERTEX_POINT('',#651);
#651 = CARTESIAN_POINT('',(17.,134.49,7.5));
#652 = LINE('',#653,#654);
#653 = CARTESIAN_POINT('',(17.,129.49,4.5));
#654 = VECTOR('',#655,1.);
#655 = DIRECTION('',(0.,0.857492925713,0.514495755428));
#656 = ORIENTED_EDGE('',*,*,#657,.F.);
#657 = EDGE_CURVE('',#473,#650,#658,.T.);
#658 = LINE('',#659,#660);
#659 = CARTESIAN_POINT('',(18.,134.49,7.5));
#660 = VECTOR('',#661,1.);
#661 = DIRECTION('',(-1.,-0.,-0.));
#662 = ORIENTED_EDGE('',*,*,#472,.F.);
#663 = PLANE('',#664);
#664 = AXIS2_PLACEMENT_3D('',#665,#666,#667);
#665 = CARTESIAN_POINT('',(18.,129.49,4.5));
#666 = DIRECTION('',(0.,0.514495755428,-0.857492925713));
#667 = DIRECTION('',(0.,0.857492925713,0.514495755428));
#668 = ADVANCED_FACE('',(#669),#680,.F.);
#669 = FACE_BOUND('',#670,.F.);
#670 = EDGE_LOOP('',(#671,#672,#678,#679));
#671 = ORIENTED_EDGE('',*,*,#657,.T.);
#672 = ORIENTED_EDGE('',*,*,#673,.T.);
#673 = EDGE_CURVE('',#650,#625,#674,.T.);
#674 = LINE('',#675,#676);
#675 = CARTESIAN_POINT('',(17.,134.49,7.5));
#676 = VECTOR('',#677,1.);
#677 = DIRECTION('',(0.,-0.857492925713,0.514495755428));
#678 = ORIENTED_EDGE('',*,*,#624,.F.);
#679 = ORIENTED_EDGE('',*,*,#480,.F.);
#680 = PLANE('',#681);
#681 = AXIS2_PLACEMENT_3D('',#682,#683,#684);
#682 = CARTESIAN_POINT('',(18.,134.49,7.5));
#683 = DIRECTION('',(0.,0.514495755428,0.857492925713));
#684 = DIRECTION('',(0.,-0.857492925713,0.514495755428));
#685 = ADVANCED_FACE('',(#686),#692,.T.);
#686 = FACE_BOUND('',#687,.T.);
#687 = EDGE_LOOP('',(#688,#689,#690,#691));
#688 = ORIENTED_EDGE('',*,*,#649,.T.);
#689 = ORIENTED_EDGE('',*,*,#673,.T.);
#690 = ORIENTED_EDGE('',*,*,#632,.T.);
#691 = ORIENTED_EDGE('',*,*,#601,.T.);
#692 = PLANE('',#693);
#693 = AXIS2_PLACEMENT_3D('',#694,#695,#696);
#694 = CARTESIAN_POINT('',(17.,131.41687171131,7.5));
#695 = DIRECTION('',(1.,0.,0.));
#696 = DIRECTION('',(0.,0.,1.));
#697 = ( GEOMETRIC_REPRESENTATION_CONTEXT(3) 
GLOBAL_UNCERTAINTY_ASSIGNED_CONTEXT((#701)) GLOBAL_UNIT_ASSIGNED_CONTEXT
((#698,#699,#700)) REPRESENTATION_CONTEXT('Context #1',
  '3D Context with UNIT and UNCERTAINTY') );
#698 = ( LENGTH_UNIT() NAMED_UNIT(*) SI_UNIT(.MILLI.,.METRE.) );
#699 = ( NAMED_UNIT(*) PLANE_ANGLE_UNIT() SI_UNIT($,.RADIAN.) );
#700 = ( NAMED_UNIT(*) SI_UNIT($,.STERADIAN.) SOLID_ANGLE_UNIT() );
#701 = UNCERTAINTY_MEASURE_WITH_UNIT(LENGTH_MEASURE(5.E-05),#698,
  'distance_accuracy_value','confusion accuracy');
#702 = PRODUCT_RELATED_PRODUCT_CATEGORY('part',$,(#7));
#703 = MECHANICAL_DESIGN_GEOMETRIC_PRESENTATION_REPRESENTATION('',(#704)
  ,#697);
#704 = STYLED_ITEM('color',(#705),#15);
#705 = PRESENTATION_STYLE_ASSIGNMENT((#706,#712));
#706 = SURFACE_STYLE_USAGE(.BOTH.,#707);
#707 = SURFACE_SIDE_STYLE('',(#708));
#708 = SURFACE_STYLE_FILL_AREA(#709);
#709 = FILL_AREA_STYLE('',(#710));
#710 = FILL_AREA_STYLE_COLOUR('',#711);
#711 = COLOUR_RGB('',0.678431390124,0.709803936702,0.741176476869);
#712 = CURVE_STYLE('',#713,POSITIVE_LENGTH_MEASURE(0.1),#714);
#713 = DRAUGHTING_PRE_DEFINED_CURVE_FONT('continuous');
#714 = COLOUR_RGB('',9.803921802644E-02,9.803921802644E-02,
  9.803921802644E-02);
ENDSEC;
END-ISO-10303-21;
